<?xml version="1.0" encoding="UTF-8"?>
<svg id="Layer_1" data-name="Layer 1" xmlns="http://www.w3.org/2000/svg" viewBox="0 0 500 849">
  <defs>
    <style>
      .cls-1 {
        fill: #fff;
      }
    </style>
  </defs>
  <path class="cls-1" d="M417.97,843.84c-4.66-5.01-9.6-9.79-13.89-15.09-3.46-4.29-4.81-9.6-2.21-14.83,2.66-5.35,7.77-6.66,13.37-6.59,4.59,.06,9.18,.01,14.11,.01v-11.4h-36.89v46.91c-7.94-3.33-9.12-9.45-8.06-16.61-15.22,4.16-26.79-2.71-31-18.47,2.15-.19,4.19-.36,6.23-.55,3.7-.35,6.29-2.08,6.68-5.99,.36-3.53-.42-6.1-4.99-5.8-4.57,.3-9.18,.07-14.4,.07v47.59c-5.25-2.55-8.68-4.94-8.17-10.87,.47-5.53,.1-11.12,.1-16.98h-16.05c1.22,2.55,2.19,4.34,2.95,6.2,1.61,3.95,2.65,8.13-.75,11.54-3.25,3.25-7.34,2.35-11.11,.8-7.64-3.13-17.31-17.5-16.06-25.61,1.06,1.53,2.11,3.06,3.17,4.58,2.78,4,5.2,8.33,8.46,11.89,2.62,2.86,6.61,3.57,9.79,.64,3.21-2.95,1.87-6.31-.46-9.26-1.91-2.42-3.95-4.75-6.83-8.18h26.56v-12.16h-43.24v-6.01h147.08v5.58c-1.45,.16-2.84,.31-4.81,.53v47.46c-5.17-2.74-8.45-5.34-7.9-11.25,.53-5.69,.11-11.47,.11-17.7-4.66,0-9.24-.78-13.35,.26-3.08,.77-7.2,3.44-7.91,6.07-.93,3.42,.35,7.98,2.01,11.4,1.33,2.75,4.87,4.35,6.98,6.84,1.02,1.21,1,3.3,1.45,4.99h-.99Zm-33.48-48.05h-15.4c.4,2.58,.66,4.82,1.12,7.03,1.65,7.88,1.35,8.59-6.45,11.43-2.89,1.05-2.76,2.64-.99,4.33,3.58,3.4,8.01,3.75,12.44,2.29,4.46-1.46,8.8-3.67,9.2-9.1,.38-5.19,.08-10.44,.08-15.98Z"/>
  <path class="cls-1" d="M94.74,708.14c-10.55-1.33-20.83-2.19-30.92-4.05-7.2-1.33-13.53-4.72-16.26-12.48-2.77-7.86-6.42-15.48-8.4-23.53-1.42-5.8-.6-12.13-1.08-18.2-.12-1.52-1.13-3.2-2.21-4.35-1.87-1.99-5.66-3.47-5.88-5.46-.48-4.32-.72-10.11,1.69-12.99,3.82-4.56,3.97-9.16,4.69-14.33,1.09-7.83,.02-16.02,3.75-23.51,.87-1.75,.26-4.22,.45-6.35,.48-5.35,3.32-8.12,8.6-9.05,1.36-.24,2.69-1.41,3.76-2.44,2.76-2.67,5.14-5.79,8.12-8.17,2.26-1.8,3.15-3.06,2.02-6.07-4.45-11.83-2.95-15.78,7.31-22.8,1.69-1.15,3.12-3.34,3.71-5.33,3.24-10.97,6.93-13.45,18.42-11.79,8.71,1.26,11.09,.23,13.05-8.4,1.66-7.31,1.83-14.96,2.7-22.45,.76-6.51,.5-13.38,2.59-19.43,3.57-10.35,2.57-20.14,.55-30.52-2.92-14.98-4.74-30.19-6.65-45.35-.46-3.63,.26-7.54,1.08-11.17,.71-3.14-.06-5.36-2.73-6.59-5.63-2.59-7.35-7.24-7.22-12.88,.09-3.89-1.46-6.28-4.93-8.21-4.76-2.65-7.54-6.68-8.61-12.48-.64-3.45-3.54-6.99-6.35-9.42-5.23-4.53-9.58-10.04-10.08-16.47-.58-7.45-2.6-13.67-6.75-19.66-1.17-1.69-1.67-4.74-.99-6.64,2.27-6.29,.01-12.58,.73-18.78,.49-4.25,2.01-8.38,3.03-12.57,.23-.94,.71-2.07,.4-2.84-2.72-6.71,.5-11.91,4.42-16.7,3-3.66,5.71-7.21,5.34-12.27-.06-.77,.15-1.88,.67-2.31,7.26-5.93,4.12-13.38,2.88-22.09-1.21,2.63-1.94,4.06-2.53,5.54-3.22,8.08-9.85,12.19-18.37,10.84-1.78-.28-3.54-2-4.88-3.45-2.77-3-5.49-6.11-7.81-9.47-4.57-6.58-8.76-13.42-13.31-20.01-1.19-1.73-2.99-3.17-4.77-4.34-4.73-3.1-10.31-5.27-10.3-12.46,0-1.09-2.06-2.91-3.38-3.14-3.54-.61-4.92-2.71-5.78-5.84-2.69-9.78,1.38-17.83,7.71-24.23,6.45-6.51,10.85-13.25,11.52-22.59,.53-7.34,6.04-11.05,12.4-13.21,9.62-3.26,17.05-8.99,21.85-18.02,4.08-7.67,8.8-15.12,17.34-18.11,6.67-2.33,13.15-4.16,19.3-8.27,7.51-5.01,19.12-2.32,25.31,4.62,4.84,5.43,10.42,7.84,17.53,8.69,4.72,.56,9.25,3.07,13.76,4.95,6.94,2.89,8.64,2.2,11.95-4.44,2.26-4.53,5.41-8.64,7.45-13.25,1.21-2.75,1.59-6.14,1.39-9.18-.41-6.22-1.82-12.38-2.17-18.6-.33-5.93,5.62-11.53,13-12.75,2.24-.37,4.64-.42,6.87-.02,4.56,.82,8.5,.29,12.72-2.08,2.22-1.25,6.05-.75,8.7,.21,2.78,1.01,4.19,.84,5.56-1.68,2.46-4.51,5.5-4.63,10.84-4.03,6.57,.73,13.41-1.04,19.7,2.66,.32,.19,1.35-.31,1.69-.77,2.74-3.73,5.2-2.89,8.06,0,.71,.72,3.13,.73,4.07,.08,3.26-2.26,5.94-2.53,9.42-.06,1.47,1.04,4.74,.78,6.57-.15,6.28-3.18,9.81-2.8,14.94,2.14,1.03,.99,2.8,1.59,4.26,1.65,2.27,.09,4.57-.5,6.86-.69,11.88-.98,18.69,4.29,20.78,15.53,.53,2.87,2.56,5.43,3.27,8.3,1.31,5.32,3.07,10.78,2.95,16.14-.14,5.93,.18,10.63,5.11,14.95,2.65,2.32,3.86,6.68,4.91,10.35,1.52,5.3,2.99,6.45,8.44,5.17,6.55-1.54,13.17-2.8,19.66-4.55,1.66-.45,2.98-2.26,4.36-3.54,4.42-4.09,8.31-9.01,13.3-12.2,11.55-7.38,23.13-6.36,34.7,1.11,10.04,6.49,16.93,14.97,20.03,26.48,.88,3.27,2.65,4.82,6.08,5.4,5.82,.98,11.69,2.09,17.27,3.95,10.89,3.61,15.97,11.4,14.67,22.72-.59,5.21,1.23,8.73,4.56,12.32,3.68,3.96,6.93,8.34,10.18,12.68,3.62,4.81,3.71,10.01,1.18,15.38-4.35,9.22-11.38,16.16-19.53,21.84-6.32,4.4-11.08,9.44-15.11,16.29-4.28,7.29-11.1,13.4-17.73,18.91-6.45,5.35-16.05,.57-17.56-7.83-.56-3.13-.33-6.98-4.59-7.83-1.21-.24-2.64,.63-3.96,.99,1.17,2.88,2.23,5.82,3.54,8.63,1.72,3.67,3.62,7.25,5.48,10.86,1.8,3.49,3.68,6.93,5.46,10.44,1.69,3.33,3.29,6.7-.56,9.36,1.75,3.97,4.72,7.68,4.75,11.41,.06,8.02,1.21,15.81,2.01,23.71,.42,4.15-2.8,8.81-4.86,13.01-1.16,2.35-3.25,3.94-.72,6.89,.94,1.09,.58,3.89-.04,5.6-1.16,3.22-2.52,6.54-4.57,9.23-2.79,3.65-4.68,6.6-3.32,11.88,.67,2.59-2.99,6.88-5.54,9.58-3,3.17-6.93,5.3-6.17,10.74,.2,1.44-1.63,3.11-2.41,4.73-1.7,3.52-3.34,7.08-5,10.62-.42,.89-.58,2.16-1.27,2.62-5.69,3.8-7.26,10.21-10.09,15.78-.7,1.39-.44,3.24-.97,4.75-.57,1.61-1.26,4.06-2.42,4.41-4.02,1.2-4.21,4.04-4.18,7.29,.12,11.37,.47,22.74,.24,34.1-.24,11.76-2.19,23.23-7.5,33.95-2.39,4.84-2.2,9.75,.17,14.74,4.6,9.67,8.45,19.48,9.43,30.44,.92,10.25,4.97,12.92,16.2,12.09,6.47-.48,12.27,.68,16.74,5.38,2.13,2.24,3.15,5.5,4.81,8.21,1.12,1.81,2.16,3.93,3.81,5.11,5.82,4.14,8.43,11.05,5.37,17.27-2.16,4.39-1.02,7.25,2.6,9.64,2.85,1.88,3.76,5.27,5.65,7.41,3.52,4,3.7,10.65,9.77,12.53,.7,.22,1.55,.97,1.73,1.64,1.61,6.05,4.06,12.09,4.31,18.22,.24,5.93,.14,10.89,6.04,14.36,3.87,2.28,4.22,14.78,.32,17.08-5.96,3.52-6.62,8.99-7.31,14.73-.41,3.43-.35,6.94-1.03,10.31-.45,2.25-1.83,4.32-2.81,6.47-.06,.13-.34,.2-.36,.32-.69,6.29-6.61,9.52-8.78,15.05-1.31,3.34-3.54,6.66-6.17,9.09-8.51,7.86-19.49,10.69-30.31,13.53-3.68,.97-5.46,2.4-4.51,6.42,3.79,16.12-8.9,27.44-22.76,28.16-17.74,.93-35.54,.78-53.3,1.29-67.02,1.92-133.99-.68-200.97-2.39-8.34-.21-16.63-.4-24.69-3.73-10.78-4.44-15.46-19.47-7.14-27.93Zm88.31-163.14c-.11-.8,.06-1.88-.39-2.36-2.27-2.4-4.4-5.24-7.21-6.65-1.19-.59-5.05,1.51-5.75,3.2-1.32,3.19-1.5,6.96-1.54,10.49,0,1.05,1.92,2.4,3.24,3.06,.76,.38,2.91-.22,2.98-.63,.23-1.3-.17-2.73-.46-4.07-.13-.61-.96-1.22-.86-1.71,.51-2.56,1.22-5.08,1.86-7.62,1.96,1.34,3.94,2.65,5.87,4.04,.87,.63,1.62,1.41,2.42,2.12-.84,.76-2.07,1.36-2.44,2.3-.55,1.39-1.04,3.28-.49,4.47,.4,.86,2.77,1.57,3.8,1.17,1.08-.43,1.99-2.16,2.32-3.49,1.19-4.76,2.69-9.56,2.97-14.4,.39-6.75,2.7-12.61,6.78-17.64,4.39-5.41,5.32-11.46,5.03-18.03-.13-2.98-.02-5.97-.02-8.95,.4-.01,.8-.02,1.21-.03,1.02,6.32,2.04,12.64,3.12,19.31,10.31-5.11,3.38-13.31,5.5-19.98,1.84,6.05,3.68,12.11,5.52,18.16,.67-.12,1.33-.24,2-.36,5.12-13.19-1.9-25.61-3.78-38.36,.39-.2,.77-.4,1.16-.6,1.4,2.51,2.81,5.01,4.21,7.52,.49-.16,.99-.31,1.48-.47-.67-3.21-.58-6.86-2.14-9.56-5.34-9.21-8.12-19.16-8.48-29.58-.38-10.96-.99-22.19,.91-32.88,3.1-17.37,2.41-25.97-10.21-36.14-5.51-4.44-12.07-5.69-18.09-3.38-5.75,2.21-5.47,8.75-5.59,14.23-.02,.82,.05,1.65,.17,2.46,1.39,9.57,2.78,19.15,4.21,28.72,2.57,17.19,6.54,34.13,5.46,51.82-.87,14.24,.07,28.59,.16,42.89,.01,1.87-.22,3.73-.41,6.8-1.6-2.57-2.52-4.05-4.12-6.62-1.21,2.91-2.27,4.58-2.54,6.37-.25,1.61,.35,3.35,.58,5.03,1.78-.54,3.87-.67,5.3-1.7,4.35-3.15,5.51-7.94,5.91-13.03,.19-2.41,.66-4.8,1-7.2,.66,.13,1.31,.27,1.97,.4-1.63,7.48-3.05,15.02-4.99,22.42-.78,3-3.13,5.51-6.68,3.92-3.67-1.63-4.38,.45-4.88,3.1-.39,2.06-.51,4.17-.78,6.5,1.17,.18,2.1,.42,3.05,.46,5.49,.24,5.72,.67,3.94,5.66-.58,1.61-.37,3.49-.76,5.18-.29,1.25-.96,2.4-1.48,3.62Zm-29.44-57.71c.62,.16,1.24,.32,1.86,.48,1.21-3.6,2.6-7.16,3.59-10.82,1.02-3.79,.49-8.61,2.67-11.37,6.02-7.58,9.17-15.59,8.36-25.29-.43-5.13,.33-10.39-.34-15.47-1.02-7.81-3.42-15.47-4.13-23.29-1.16-12.87-4.1-25.7-1.55-38.8,.39-2.01-1-4.88-2.43-6.63-2.88-3.52-5.26-6.74-4.46-11.82,.27-1.71-2.2-3.85-3.42-5.8-1.37,1.73-3.81,3.4-3.9,5.19-.27,5.43-3.75,8.01-7.48,10.88-2.52,1.93-5.12,4.23-6.58,6.95-1.7,3.16-3.55,5.49-7.1,6.11-4.37,.76-6.09,3.4-5.71,7.65,1.03,11.8,1.57,23.67,3.23,35.38,1.87,13.12,2.07,25.99-2.68,38.48-6.35,16.72-8.79,34.25-11.39,51.76-.28,1.86,.22,3.83,.35,5.76,.51,.01,1.03,.03,1.54,.04l2.98-18.11c.68,.08,1.36,.17,2.04,.25,0,1.77,.36,3.64-.06,5.31-1.56,6.21-3.59,12.32-4.95,18.57-.39,1.76,.87,3.88,1.38,5.84,1.56-1.38,4-2.49,4.51-4.18,1.08-3.57,1.06-7.46,1.67-11.19,.39-2.39,1.1-4.72,1.89-8.04,3.45,5.8,3.39,6.48,.56,14.14-1.14,3.08-3,6.27,.81,10.35,1.89-3.3,3.83-5.89,4.91-8.81,1.05-2.84,1.22-6,1.77-9.02,.46,.08,.92,.16,1.37,.24-.56,4.54-.8,9.14-1.76,13.59-2.47,11.5-9.85,15.68-21.21,12.72-1.86-.48-5.57-.06-5.85,.79-.72,2.2-.29,4.94,.26,7.33,.34,1.47,1.75,2.69,3.31,4.94-2.74,0-4.24-.27-5.62,.05-3.69,.86-5.79,3.23-5.1,7.14,.21,1.18,1.64,2.15,2.52,3.22,.79-.9,1.75-1.7,2.34-2.72,.57-.98,.75-2.19,1.11-3.3,.58,.08,1.17,.15,1.75,.23-.15,3.45-.31,6.9-.47,10.5,2.32-.93,4.24-1.65,6.11-2.48,2.08-.92,4.07-2.04,6.16-2.91,4.01-1.67,7.95-3.66,12.12-4.73,4.88-1.24,8.06-3.94,9.22-9.32-3.35,1.69-6.71,3.39-10.08,5.09-.26-.45-.53-.89-.79-1.34,2.83-3.34,5.87-6.53,8.42-10.08,1.89-2.62,3.53-5.57,4.61-8.61,3.01-8.5,7.35-16.7,6.83-26.14-.02-.43,.45-.88,.59-1.34,1.28-4.06,2.6-8.1,3.78-12.19,.55-1.91,.85-3.89,1.27-5.84,.38,.05,.77,.1,1.15,.16v10.51Zm178.02,207.64c-1.13-4.86-.38-7.48,4.81-7.83,3.64-.24,2.26-2.84,.78-4.74,4.63-2.91,4.95-4.24,2.3-7.56,1.98-1.6,3.95-3.19,6.18-4.99-.73,9.75-5.32,17.6-12.6,24.36,8.03,2.13,10.64,1.11,14.1-4.96,1.22-2.14,2.88-4.08,3.79-6.34,1.86-4.63,3.4-9.39,4.95-14.14,.69-2.13,1.1-4.35,1.63-6.53,.14,7.26,11.37,11.73,5.35,20.01-1.49-1.1-2.62-1.93-3.74-2.75,1.39,5.28,3.12,10.05-2.1,14.04,8.14,3.14,13.4-.03,12.12-7.19-1.07-6.04,.44-11.19,3.04-16.53,1.79-3.68,4.5-7.93,.02-12.01-.44-.4,.03-2.55,.71-3.31,5.52-6.11,8.57-13.15,8.85-21.42,4.32,9.06,1.81,16.92-4.5,23.97,7.47,6.42,17.53,4.49,27.51-4.43-.52,3.36-1.06,7.55-1.89,11.68-.2,.98-1.41,1.72-2.08,2.63-4.8,6.56-9.71,13.06-14.27,19.79-.93,1.37-.55,3.63-.77,5.48,8.68,.89,10.56-.76,13.41-7.95,1.94-4.9,5.23-9.29,8.04-13.83,2.53-4.08,5.24-8.04,7.83-12.08,.34-.53,.41-1.25,.52-1.9,.49-2.9,1.44-5.82,1.31-8.7-.41-8.81-2.4-17.47-12.68-19.63-5.01-1.05-9.72-1.5-14.22,1.5-2.67,1.78-4.8,1.19-6.75-1.4-3.84-5.11-3.88-6.27,.39-11.28,3.88-4.57,4.18-7.98,.94-10.76-3.84-3.29-10.6-3.24-12.7,.88-3.65,7.16-12.36,7.4-16.7,14.84,.45-3.03,1.11-4.67,.77-6.06-.32-1.29-1.71-2.31-2.62-3.45,.47-.09,1.09-.3,1.73-.31,7.62-.16,10.89-3.12,11.57-10.83,.37-4.15,.47-8.33,.57-12.49,.02-.87-.38-1.78-.72-2.62-.76-1.91-1.85-3.73-2.36-5.7-.71-2.76-1.31-5.37-4.93-5.54-.18,8.79-1.53,11.33-6.25,10.97-1.99-.15-5.19-1.03-5.58-2.29-1.11-3.57-1.07-7.5-1.46-11.14-5.65,2.64-7.36,8.14-4.17,13.24,.71,1.14,.41,3.91-.52,4.92-5.04,5.48-5.44,10.31-.66,15.72-1.6,.9-3.16,1.78-3.59,2.02,1.8,2.08,3.47,4.02,5.14,5.95-2.6,1.21-5.2,2.42-7.62,3.55,2.23,1.39,5.34,2.59,8.32-.53,3.31-3.48,5.96-2.07,9.15,.73-4.64,1.43-8.91,2.75-13.17,4.06,.17,.82,.34,1.64,.5,2.46,2.42-.25,4.84-.49,7.26-.74,.23,.24,.47,.49,.7,.73-2.68,2.37-5.36,4.74-8.04,7.11,.14,.3,.28,.59,.42,.89,2.17-.31,4.35-.62,6.94-.98-2.63,2.11-4.96,3.98-7.29,5.85,.38,.49,.76,.97,1.14,1.46,6.39-1.58,9.83-7.59,14.8-11.3l.8,.91c-5.02,4.71-10.03,9.42-14.97,14.06q3.07,1.23,18.03-13.32c-.79,1.59-1,2.37-1.47,2.92-4.18,4.83-8.46,9.59-12.59,14.46-.99,1.17-2.18,2.69-2.17,4.04,.01,1.06,1.66,2.86,2.71,2.96,1.26,.12,3.13-.88,3.9-1.99,3.27-4.7,6.23-9.61,9.3-14.45-2.32,6.62-5.67,12.6-8.81,18.68-.65,1.25-.54,2.89-.78,4.36,1.62-.41,3.99-.29,4.72-1.33,2.33-3.31,4.18-6.99,5.98-10.65,1.65-3.36,2.98-6.87,4.45-10.32-2.82,18.71-8.17,26.28-16.37,26.7-8.5-5.64-7.5-15.9-13.98-22.15,4.02-1.88,2.46-4.12-.51-6.23,3.87-2.15,3.42-4.14,1.81-6.32-.42-2.73-.84-5.47-1.26-8.2-.47,.06-.93,.13-1.4,.19-1.34,9.43-2.68,18.86-4.02,28.29,.24-.04,.48-.09,.73-.13-1.23,1.95-2.47,3.91-3.69,5.84,1.4,1.05,2.32,1.73,2.13,1.59-1.96,2.98-3.62,5.49-5.25,8.02-.26,.4-.29,.97-.6,1.3-6.12,6.64-12.34,13.19-18.36,19.92-1.39,1.55-2.14,3.66-2.89,4.99-3.1,.94-6.11,1.85-9.11,2.76,11.88,.87,23.49,.88,35.1,.85,1.44,0,2.88-.21,5-.38Zm66.68-136.98c3.56-2.76,4.23-6.98,.42-8.82-7.14-3.45-11.41-8.34-11.73-16.61-.07-1.82-2.33-5.08-3.6-5.09-10.51-.08-14.12-7.46-15.57-15.55-2.88-15.97-6.72-32.01-4.51-48.42,1.6-11.91,1.32-23.93,2.59-35.9,1.31-12.36-1.45-25.19-2.81-37.77-.72-6.65-4.21-11.63-9.83-15.76-6.11-4.49-11.33-10.2-16.87-15.46-.67-.63-.81-1.8-1.38-2.57-.7-.94-1.61-1.72-2.43-2.58-.59,1.19-1.85,2.52-1.64,3.55,.95,4.54,2.35,8.98,3.53,13.48,.28,1.07,.7,2.32,.41,3.29-3.03,10.21-3.3,20.64-2.92,31.16,.08,2.26,.23,4.83-.69,6.76-2.69,5.67-2.57,11.39-1.75,17.37,.32,2.34,.28,5.13-.7,7.18-3.02,6.33-2.98,12.94,.1,18.58,4.77,8.75,4.74,19.09,11.52,27.42,5.71,7.01,6.72,17.23,8.24,26.21,1.12,6.57,1.52,12.83,6.17,18,.63,.7,.83,1.78,1.31,2.64,3.58,6.38,7.02,12.85,10.88,19.06,1.33,2.14,3.51,3.98,5.7,5.31,3.81,2.32,6.32,1.16,6.84-3.31,.6-5.06,.54-10.21,.78-15.55,6.86,5.76,5.64,13.95,5.11,21.27,3-2,5.98-5.22,7.38-4.64,2.35,.97,3.69,4.37,5.44,6.74ZM240.66,36.5c.67-2.19,1.27-3.81,1.66-5.48,.71-3.02,1.53-6.04,1.88-9.11,.42-3.74-1.44-6.69-5.02-7.45-2.09-.44-6.19,.3-6.5,1.36-.84,2.84-.51,6.23,.13,9.23,.37,1.74,2.39,3.08,3.43,4.75,2.81,4.53,1.51,6.81-3.59,8.34-8.94,2.68-17.85,5.54-26.56,8.9-7.76,3-11.61,8.94-10.38,17.52,.6,4.21-.53,7.37-3.83,10.42-5,4.62-5.05,9.64-.61,14.85,2.32,2.73,5.29,4.91,8.02,7.28,4.67,4.06,4.87,11.12,.4,15.46-4.22,4.09-4.21,6.45-1.43,11.62,1.01,1.88,.85,4.83,.28,7.06-1.99,7.79-1.74,13.94,6.36,14.73,4.08,.4,8.05,1.82,9.18,6.85,.38,1.68,1.65,3.17,2.57,4.85,7.25-8.19,5.5-13.01-3.64-15.41-9.48-2.49-9.37-2.65-8.32-12.42,.33-3.03-.65-6.33-1.67-9.3-.46-1.35-2.45-2.18-3.75-3.24,.33-.48,.66-.95,1-1.43l7.66,5.5c.58-.33,1.17-.67,1.75-1-1.1-3.34-2.32-6.65-3.25-10.03-.35-1.27-.51-2.98,.07-4.04,1.83-3.34,4.57-6.25,6-9.72,2.11-5.1,4.12-9.97,9.16-11.45-7.57-3.53-15.37-7.16-23.17-10.79,2.88-.48,5.58-.13,8.18,.56,5.08,1.34,10.05,3.18,15.19,4.24,7.34,1.52,14.19-3.21,15.09-9.95,.93-6.99-4.05-13.34-11.74-13.51-3.61-.08-7.46,1.79-10.85,3.49-3.59,1.8-6.76,4.44-10.11,6.71-.36-.51-.71-1.02-1.07-1.54,4.83-3.88,9.35-8.27,14.57-11.53,7.59-4.74,16.26-3.5,22.33,2.22,6.34,5.98,8.95,14.76,6.2,20.87q-4.44,9.86,5.06,14.14c4.1,1.85,12.92,.95,14.81-2.2,2.6-4.31,.11-8.18-2.48-11.74-.19-.27-.38-.54-.58-.8-2.91-3.62-2.66-7.25,.03-10.84,1.28-1.71,2.55-3.44,3.95-5.06,5.21-6.05,11.3-10.19,19.79-8.46,8.95,1.82,12.45,9.16,16.22,16.2-3.57-2.56-6.63-5.66-9.98-8.43-5.81-4.82-11.88-4.81-17.29,.4-2.54,2.44-4.71,5.56-6.2,8.76-3.28,7.03-.03,12.54,7.73,12.35,5.47-.13,10.95-1.78,16.31-3.2,3.76-1,7.32-2.75,10.97-4.16,.27,.52,.54,1.04,.81,1.56-5.67,3.4-11.34,6.8-16.74,10.04,2.06,3.29,4.11,6.58,6.17,9.87,.96,1.53,1.8,3.17,2.93,4.56,2.76,3.37,4.39,3.08,7.11-.46,1.57-2.04,3.61-3.8,5.66-5.38,6.73-5.19,7.21-8.74,2.79-15.89-1.91-3.09-3.44-6.69-4.03-10.24-1.64-9.84-6.4-17.39-15.46-21.48-6.55-2.96-13.46-5.24-20.39-7.18-7.29-2.04-8.23-4.07-5.33-11.18,1.27-3.12,1.34-6.99,.99-10.41-.15-1.49-2.61-3.53-4.28-3.82-1.28-.22-3.52,1.59-4.37,3.06-2.38,4.11-2.06,8.42-.11,12.78,.97,2.17,1.29,4.63,2.06,7.54-3.59-.21-5.92-.35-6.89-.41,.39-5.91,1.12-11.15,.87-16.34-.09-1.79-2.6-3.47-4.01-5.2-1.76,1.87-4.04,3.5-5.09,5.71-.69,1.46,.23,3.81,.7,5.69,.81,3.24,1.84,6.43,2.89,10.02-3.68,.29-6.56,.51-10.25,.8Zm-1.76,515.56c6.34,0,14.04,.09,21.73-.03,6.8-.1,9.29-2.62,8.83-9.4-.17-2.49-1.17-5.14-2.47-7.3-3.17-5.29-4.59-10.49-1.24-16.22,6.6-11.28,5.97-24.03,7.15-36.38,.21-2.17-.92-4.46-1.36-6.7-2.49-12.54-5.9-24.99-7.18-37.66-1.3-12.89-.47-25.99-.65-38.99-.03-1.88-.5-3.75-.76-5.62-.35,.42-.71,.85-1.06,1.27-2.32-.78-4.6-1.74-6.97-2.3-2.17-.51-4.45-.9-6.65-.78-3.11,.17-6.2,.86-10.76,1.55-.56,4.81-1.98,11.08-1.87,17.32,.19,11.84,1.4,23.66,1.88,35.5,.16,3.87-.35,7.84-1.07,11.67-1.6,8.51-4.36,16.9-5.04,25.46-.57,7.22,2.91,15.02,1.41,21.86-2.43,11.04,4.08,21.41,.69,32.13-.16,.5,.38,1.22,.61,1.83,1.38,3.69,2.77,7.39,4.8,12.79Zm-140.17,30.74c-.33,0-.65-.02-.98-.03,.45-1.6,1.17-3.17,1.28-4.79,.09-1.38-.49-4.02-.82-4.02-4.4-.09-9.25-.92-13.12,.62-6.16,2.44-7.82,8.57-8.69,14.88-.62,4.53-1.97,8.98-3.2,13.41-1.21,4.36,1.07,8.47,5.42,9.51,1.51-3.7,3.96-7.3,4.25-11.06,.28-3.67-1.64-7.52-2.59-11.29,.39-.21,.79-.42,1.18-.63,.91,1.75,2.17,3.42,2.65,5.28,.61,2.36,.86,4.88,.78,7.32-.16,5.24,.28,10.75-1.21,15.64-1.97,6.47-1.75,9.05,4.71,11.96-1.6,2.34-3.07,4.63-4.67,6.82-3.26,4.48-3.84,12.19-1.14,16.31,3.62,5.54,3.39,6.15-3.09,8.21-6.87,2.18-8.18,4.17-7.45,10.92,.12,1.07-.46,2.21-.64,3.33-1.41,8.68,6.45,16.64,15.09,14.55-1.32-2.14-2.42-5.76-3.82-5.87-6.34-.54-5.19-4.54-4.83-8.47,.09-.96,.02-2.01-.27-2.91-1.83-5.59-1.6-6.04,4.27-7.27,1.45-.3,2.9-.58,4.34-.94,9.26-2.34,14.14-9.46,12.89-18.73-.09-.69-.01-1.4-.01-.88,3.06,2.45,6.48,5.17,9.87,7.92,.76,.62,1.51,1.28,2.14,2.03,2.45,2.91,4.99,6.81,9.16,5.06,2.31-.97,3.47-4.68,5.37-7.49,.39,.3,1.4,1.38,2.64,1.96,6.35,2.94,12.71,5.85,19.16,8.55,3.7,1.55,7.63,2.53,11.34,4.06,2.26,.93,4.7,2,6.37,3.69,4.32,4.39,8.69,8.86,12.13,13.92,1.33,1.96,.22,5.58,.22,8.91,2.83,.36,6.23,.77,7.57-3.62,1.76-5.75-3.1-12.96-10.07-14.83,.17-.89,.08-1.97,.55-2.68,2.26-3.4,.75-5.1-2.53-6.15-1.1-.35-2.18-.75-3.28-1.09-7.92-2.44-11.18-9.46-14.4-15.9-2-4-1.83-9.09-2.6-13.47,5.04-1.02,11.09-1.89,16.88-3.6,2.36-.7,6.11-3.57,5.88-4.88-.61-3.62,3.79-7.17,.04-10.63-.21-.2,.28-1.73,.81-2.07,3.48-2.24,2.17-4.52-.1-6.66,1.25-1.04,2.19-1.82,3.14-2.6-.99-1.32-1.8-2.41-2.28-3.05,2.09-2.05,5.28-3.82,5.23-5.48-.07-2.29-2.6-4.5-4.05-6.71,2.45-2.26,5.03-4.3,7.12-6.75,.7-.82,.19-2.69,.23-4.07-1.46,.4-3.84,.39-4.22,1.26-3.03,6.94-12.78,9.4-12.35,18.55-5.48,4.42-4.44,9.51-1.89,15.08,2.17,4.76,.99,10.32-2.1,12.77-3.65,2.89-9.64,3.17-13.95,.37-5.8-3.77-11.7-4.47-18.3-2.1-2.36,.85-5.31,.14-7.98,.01-1.93-.09-3.86-.36-5.77-.63-1.4-.19-2.78-.51-4.47-.83,2.66-1.92,4.67-3.37,6.69-4.82-.29-.4-.57-.81-.86-1.21-1.84,.48-3.68,.97-5.2,1.37,1.42-2.57,2.73-4.92,4.46-8.04-3.88,.56-6.07,.87-9.37,1.34,2.84-3.22,4.68-5.3,6.52-7.39-.34-.34-.68-.69-1.02-1.03-1.53,.16-3.06,.31-4.19,.43,.73-2.27,1.41-4.4,2.09-6.54-.52-.18-1.04-.36-1.56-.55-.96,1.15-1.91,2.3-2.87,3.44-.42-.18-.85-.36-1.27-.55,.5-1.43,1.01-2.86,1.5-4.3,.52-1.53,1.01-3.07,1.52-4.61-1.39,.16-2.78,.32-4.08,.47-1.41-2.85,6.44-7.04-1.48-9.66-.2-.95-.55-2.56-1.14-5.33-2.4,2.71-3.98,4.49-5.55,6.27Zm175-49.47c.47-.27,.94-.53,1.42-.8,.14-2.75-.43-5.78,.55-8.19,3.67-9,4.57-18.29,4.16-27.84-.02-.48,.19-.97,.29-1.45,1.25-6.46,2.54-12.92,3.74-19.39,1.68-9.06,3.3-18.14,4.95-27.21,1.37,8.76,1.15,17.51,2.1,26.13,.79,7.09,1.7,14.69,4.88,20.85,3.67,7.1,1.41,14.59,3.89,21.63,.91,2.58,1.38,4.72,3.89,5.19,4.5,.85,7.66,2.56,7.72,7.71,0,.75,.48,1.68,1.04,2.2,4.34,3.95,4.43,8.8,3.21,14.01-.12,.52,.17,1.14,.27,1.72,1.32-.76,2.42-1.4,3.73-2.16q1.37,7.34,5.74,5.53c-.44-1.52-1.21-3.07-1.23-4.63-.01-1.28,.88-2.56,1.37-3.85,1.31,.96,2.89,1.72,3.83,2.97,.54,.71-.04,2.22,0,3.36,.04,1.29,.22,2.58,.33,3.86,.57,0,1.15,0,1.72,0,0-2.52,.59-5.23-.16-7.49-.8-2.41-2.57-4.78-4.57-6.32-.62-.48-3.37,1.81-5.82,3.23,.15-2.42-.08-4.83,.51-7.02,1.74-6.54,.93-8.71-5.13-11.93-5.69-3.02-7.56-10.08-4.5-15.82,.98-1.84,1.41-4.13,1.56-6.25,.8-11.22-4.4-21.12-7.23-31.54-3.04-11.22-4.67-22.02-.77-33.81,5.03-15.23,8.23-31.1,11.69-46.81,.96-4.37,.44-9.2-.06-13.74-.55-5.03-1.73-10.01-2.93-14.94-.29-1.21-1.5-2.54-2.64-3.12-4.25-2.19-7.45-.37-10.31,2.99-3.58,4.21-6.69,9.36-13.12,9.49-4.93,.1-5.14,2.66-4.26,6.5,4.66,20.38,2.88,41.08,1.24,61.46-1.5,18.62-6.37,36.95-9.31,55.47-.63,3.97,.16,8.39,1.24,12.34,1.03,3.76,.96,6.61-1.03,10.19-2.14,3.86-3,8.53-3.89,12.95-.27,1.33,1.23,3.01,1.91,4.53ZM450.55,160.61c-.39,.22-.79,.44-1.18,.66,.56,1.34,.9,2.84,1.71,4,3.2,4.58,6.47,9.12,9.91,13.53,.97,1.24,2.59,1.98,3.9,2.95,.52-1.54,1.73-3.24,1.42-4.59-1.08-4.69-2.69-9.26-4.41-14.86,2,2.73,3.28,4.85,4.92,6.63,1.91,2.08,2.6,6.03,6.82,4.91-1.15-2.5-1.99-5.2-3.52-7.44-1.72-2.52-4.06-4.61-6.13-6.89,.37-.39,.74-.78,1.12-1.17,7.22,.57,9.42,8.97,17.35,11.65-1.07-3.07-1.33-5.3-2.48-6.87-4.56-6.21-10.67-9.58-18.58-9.37-2.34,.06-5.54,.54-4.17-3.75,1.74-5.44-.57-8.84-5.44-11.04-1.64-.74-3.42-1.45-4.7-2.64-.78-.73-1.38-2.82-.91-3.51,4.19-6.1,8.55-12.1,13.06-17.97,2.17-2.82,4.92-3.1,7.64-.5,2.13,2.03,4.83,13.29,3.04,15.36-3.27,3.78-4.42,7.44-1.23,12.06-.39,.24-.78,.49-1.18,.73-2.61-1.57-5.21-3.14-8.55-5.15,2.53,4.65,4.52,8.3,6.69,12.28q9.83,.97,15.52,9.6c1.83,2.78,4.04,3.13,5.7,.21,1.23-2.17,2.12-4.86,2.14-7.33,.04-5.21-3.21-9.07-7.18-11.79-3.97-2.72-6.21-6.22-7.25-10.65-.48-2.04-.55-4.19-.66-6.3-.39-7.79-4.88-15.02-10.02-16.76-7.59-2.57-15.15-5.27-22.59-8.26-6.4-2.57-9.45-1.83-13.53,3.69-1.41,1.91-3.13,3.99-5.19,4.91-4.7,2.1-6,4.32-4.33,9.46,2.18,6.69,3.83,7.63,9.87,5.62,5.92-1.97,14.03,2.61,15.79,9.71-2.85-.69-5.28-1.54-7.77-1.82-4.84-.53-9.73-1.17-14.57-.93-3.69,.18-5.24,3.13-4.74,6.78,.72,5.18,1.58,10.34,2.59,16.81,5.01-.8,11.06-1.76,16.69-2.65-1.75,1.94-3.6,4-5.48,6.06-3.42,3.75-6.83,7.06-12.73,4.77-2.64-1.02-3.21,1.28-3.15,3.54,.14,5.88,.47,11.77,.27,17.63-.23,6.62,1.77,11.46,8.4,13.92,4.77,1.77,7.63,5.12,8.64,10.48,.37,1.97,3.4,4.77,5.27,4.82,2.96,.08,6.07-1.66,8.83-3.16,.36-.19-.98-3.55-1.57-5.43-.68-2.17-2.21-4.42-1.95-6.46,.63-4.96-1.51-6.1-5.81-5.69-1.95,.19-3.95,.03-5.91-.16-4.49-.45-7.68-2.8-9.36-6.99-1.63-4.05-.1-7.43,4.13-8.17,3.27-.57,4.04-2.51,4.93-5.21,1.74-5.26,3.62-10.52,6.06-15.48,2.19-4.45,9.22-5.62,12.91-2.23,6.64,6.09,11.55,13.3,11.73,23.15-3.59-4.91-7.18-9.82-10.77-14.73ZM57.07,120.61c-1.89,.18-2.86,.29-3.84,.35-9.89,.67-12.07,3.04-12.84,12.83-.15,1.97-1.61,4.1-3.01,5.66-2.05,2.29-4.58,4.13-6.91,6.17,.29,.58,.58,1.17,.86,1.75,10.7-5.62,21.03-13.22,34.55-7.77-1.7,1.3-2.84,2.18-4.32,3.31,6.91,2.05,11.91,.37,16.2-5.2,.22,2.56,.15,4.94-1.02,6.5-5.16,6.88-11.82,7.41-19.69,3.77,4.08,6.21,8.25,11.98,13.15,17.04,4.34,4.49,5.51,9.21,2.21,14.52-.56,.89-1.55,1.85-1.51,2.73,.3,5.96-2.06,8.69-8.45,9.39-7.16,.79-9.19,2.28-10.81,8.94-.54,2.24,0,4.73,.03,7.11,2.73-.2,5.55-.04,8.14-.75,1.25-.34,2.11-2.28,3.02-3.59,.93-1.33,1.71-2.78,2.83-4.63,.66,1.93,1.03,2.99,1.73,5.02,2.43-6.24,4.34-11.91,10.75-13.07,4.08-.74,5.06-2.42,4.26-6.37-1.02-5.07-.82-9.98,2.86-14.46,1.18-1.44,1.29-4.96,.36-6.72-2.8-5.26-3.32-10.73-2.46-16.31,.69-4.47,2.27-8.81,3.48-13.3-1.01-.82-2.71-1.55-3.32-2.8-5.26-10.8-6.78-11.76-18.76-11.35-1.47,.05-2.95-.49-4.43-.75,.73-1.37,1.34-1.77,1.86-1.67,7.28,1.36,12.95-2.45,18.83-5.71,3.05-1.69,3.07-4.25,1.6-6.7-.95-1.6-2.62-3.04-4.3-3.87-5.59-2.74-11.42-4.9-15.33-10.3-1.5-2.06-4.36-2.53-5.47,.59-2.35,6.6-7.6,8.29-13.69,9.62-9.98,2.18-14.28,8.69-15.2,18.72-.44,4.87-3.42,9.52-5.32,14.24-.12,.29-.88,.34-1.35,.48-5.79,1.75-8.48,6.52-10.8,11.46-2.28,4.86-.92,8.72,3.22,10.26,4.35,1.62,9.28-.86,10.09-5.86,.93-5.73,4-8.72,9.07-11.18,2.32-1.12,3.89-4.95,4.61-7.85,.64-2.58-.09-5.67-3.93-6.26-.76-.12-2.05-1.41-1.94-1.86,.91-3.5,1.43-7.4,3.41-10.25,2.08-3,5.91-4.53,9.66-2.29,3.46,2.06,6.69,4.54,9.9,7,.79,.6,1.11,1.81,2.02,3.41Zm352.08-9.24c.81-3.15,1.79-5.11,1.73-7.04-.24-6.64,.06-8.41,8.51-6.77,3.72,.72,6.81,.91,9.1-2.65,2.73-4.23,3.01-10.76,.55-14.12-1.72,.94-3.44,1.88-4.66,2.55,.38-2.58,.73-4.93,1.23-8.32-3.9,3.63-6.55,6.1-9.2,8.57-.32-.34-.64-.68-.96-1.03,4.77-7.29,5.12-10.16,.74-13.68-6.66-5.34-14.37-6.36-22.35-3.6-7.53,2.61-13.25,7.18-14.57,15.75-.28,1.83-1.05,3.58-1.35,4.53-6.15-.99-12.03-3.65-16.81-2.33-9.29,2.56-16.87,8.78-21.51,17.61-.85,1.62,.18,4.23,.34,6.38,1.91-.5,4.05-.64,5.69-1.6,2.39-1.4,4.29-3.61,6.65-5.08,2.18-1.36,4.59-2.85,7.05-3.16,4.36-.55,8.26-1.06,8.51-6.97,1.75,7.75-1.31,11.68-10.39,13.44-4.49,.87-8.64,1.51-10.73,6.47-.48,1.15-3.07,1.3-4.53,2.18-1.11,.67-2.91,2.4-2.81,2.55,1.87,2.71,3.83,5.42,6.16,7.73,.59,.59,2.59-.18,3.9-.48,.22-.05,.43-.91,.37-1.36-.81-6.52,3.62-6.68,8.11-6.68,10.5,0,16.21-6.58,14.95-17.2-.29-2.48-.27-5-.41-7.97,4.44,2.54,5.45,4.7,4.23,7.74-1.88,4.69-.87,6.52,4.61,8.14,.55-1.88,1.1-3.77,1.65-5.65,.62,.06,1.24,.11,1.86,.17,0,1.85,.64,4.04-.12,5.49-1.96,3.75-4.89,6.99-6.77,10.77-1.78,3.59-3.23,7.51-3.86,11.44-.53,3.29,2.17,4.97,5.35,5.1,2.84,.11,4.54-1.15,4.9-4.28,1.12-9.76,2.5-11.47,12.12-13.71,4.87-1.14,9.35-2.15,8.31-10.22,1.89,3.13,2.77,4.59,4.38,7.26Zm-294.76-9.55c9-3.6,8.82-10.22,7.01-17.78-1.08-4.5,.2-9.73-4.85-12.73-.47-.28-.4-1.52-.53-2.32-1.06-6.56-3.23-8.92-9.73-8.22-3.84,.42-7.77,2.31-11.13,4.39-4.51,2.79-8.39,6.82-13.65,1.27-.66-.69-2.64-.12-4-.14,.68,1.23,1.09,2.76,2.09,3.61,2.11,1.8,4.07,3.39,2.02,6.49-5.15-4.31-8.06-4.87-11.46-2.32-3.28,2.45-4.89,7.53-2.52,11.57,1.6,2.72,4.59,5,7.47,6.49,2.83,1.46,6.41,1.4,9.49,2.49,9.89,3.5,11.13,10.24,3.32,17.19-1.25,1.11-2.53,2.2-4.07,3.54,5.75,2.19,13.95-.8,15.8-6.36,1.35-4.07,1.69-9.27,.34-13.23-1.37-4.01-5.37-7.13-7.67-9.96,5.78,.61,11.09,7.11,12.51,16.7,1.56,10.59-.13,12.49-18.8,20.33,2.25,.89,3.71,1.59,5.23,2.06,2.02,.62,4.2,.8,6.12,1.63,3.73,1.61,3.75,4.78,2.44,7.92-1.62,3.88-3.94,1.19-6.02,.35-.57-.23-1.19-.34-1.76-.5-1.95,4.69-.31,8.15,4.42,9.36,1.73,.44,3.6,.36,5.38,.61,4.89,.69,6.76,4.22,4.85,8.77-.64,1.52-.81,3.23-1.19,4.86,.45,.34,.89,.68,1.34,1.02,1.63-1.27,3.69-2.25,4.83-3.87,5.12-7.29,3.91-14.73-2.94-20.51-2.18-1.84-4.15-3.91-6.22-5.88,.42-.54,.85-1.07,1.27-1.61,2.03,1.12,4,2.38,6.12,3.31,2.1,.92,4.35,1.51,6.54,2.24,.78-2.53,2.68-5.35,2.11-7.53-1.23-4.71-3.72-9.1-5.61-13.44,7.8-.89,9.03-.5,1.45-9.78Zm-2.71,473.65l-.08,1.62c1.08,.61,2.17,1.22,2.33,1.31-.54,2.69-1.5,4.56-1.1,6.06,1.44,5.37,3.24,10.65,5.13,15.89,1.27,3.52,3.3,6.79,4.35,10.37,2.42,8.28,2.76,8.58,11.5,7.42,2.25-.3,4.75-.48,6.86,.17,5.19,1.62,10.16,3.94,15.33,5.59,2.53,.81,6.03,1.87,6.99-2.03,.85-3.43,1.23-7.41-2.76-8.03-.68-3.5-1.24-6.4-1.83-9.47,5.79-2.38,7.88-6.55,4.75-10.77,2.7-2.25,5.41-4.51,8.04-6.7-.64-1.03-1.13-1.82-1.81-2.92,2.31,0,4.46,.65,5.73-.13,2.93-1.81,6.28-4.54,4.59-8.25-.86-1.9-4.67-3.45-7.14-3.45-13.98,.04-27.97,.43-41.95,1.08-6.33,.29-12.61,1.47-18.91,2.25Zm142.41,122.34c38.12,.04,69.07-30.84,69.14-68.99,.07-38.46-30.83-69.64-69.04-69.69-38.31-.05-69.42,31.03-69.42,69.34,0,38.47,30.82,69.3,69.31,69.34ZM302.91,27.53c-.38,.47-.76,.94-1.14,1.4-.91-.22-1.81-.51-2.73-.64-3.95-.55-8.72,2.08-9.52,5.41-1.08,4.49,1.09,7.35,5.13,8.82,2.75,1.01,5.62,1.87,8.51,2.29,5.73,.84,10.78,6.92,9.32,12.32-1.98,7.33-.99,13.25,3.94,19.6,8.91,11.46,8.19,14.95,.59,27.53-3.28,5.44-5.91,11.62-.26,17.62,.59,.63,.4,2.01,.6,3.19-2.08-1.16-3.78-2.11-5.48-3.07-.87,1.84-2.85,4.03-2.41,5.48,1.95,6.49,4.59,12.77,7.02,19.11,.16,.42,.6,.86,1.01,1.05,1.4,.63,2.86,1.15,4.29,1.71,.47-1.33,1.45-2.71,1.31-3.97-.5-4.44-1.39-8.83-2.13-13.25,1.63,1.36,2.62,3.31,3.99,4.92,.75,.88,2.16,1.2,3.27,1.77,.42-1.38,1.25-2.8,1.14-4.14-.09-1.17-1.28-2.23-1.88-3.4-.16-.31,.1-.84,.2-1.45,1.52,.38,2.85,.71,3.92,.98,1.02-4.26,2.02-8.13,2.81-12.05,.17-.85-.23-2.05-.79-2.77-2.39-3.11-2.08-6.31-1-9.82,1.18-3.84,1.29-7.46-3.33-9.58-.84-.39-1.25-2.58-1.17-3.89,.08-1.2,1.12-2.33,1.69-3.52,3.13-6.49,2.49-11.98-2.73-17.03-3.44-3.32-4.27-10.84-12.31-7.45-.37-.71-.74-1.43-1.1-2.14,1.59-.86,3.55-1.37,4.72-2.63,3.44-3.72,5-8.09,3.04-13.14-1.58-4.05-2.99-8.2-4.91-12.08-.66-1.34-2.52-2.51-4.04-2.87-1.12-.26-3.48,.71-3.68,1.52-.35,1.46,.17,3.4,.94,4.8,1.02,1.84,2.86,3.22,3.94,5.03,.75,1.27,.83,2.94,1.21,4.43-.81,.57-1.61,1.15-2.42,1.72-.47-1.22-.59-2.93-1.48-3.57-2.92-2.09-6.1-3.83-9.23-5.61-1.17-.67-2.49-1.1-3.74-1.64,.89-1.06,1.59-2.38,2.69-3.14,3.09-2.13,6.79-3.56,9.43-6.12,4.58-4.42,3.22-9.37-2.81-11.3-5.91-1.88-12.01-1.71-16.99,2.05-2.96,2.24-5.01,5.89-6.9,9.23-.56,.98,.84,3.07,1.35,4.66,1.23-.85,2.7-1.51,3.63-2.61,1.04-1.22,1.24-3.5,2.44-4.18,2.57-1.44,5.5-2.56,8.39-2.95,1.04-.14,2.41,2.18,3.63,3.38ZM143.43,672.83c.49-4.31-3.44-4.8-7.1-4.91-7.48-.23-14.97-.07-22.37-.07-.7-5.95-5.04-6.42-8.55-7.76-3.04-1.17-4.86,.57-7.15,2.62-3.21,2.89-7.16,5.2-11.16,6.9-5.32,2.26-6.63,4.4-4.62,10.06h4.81c-.32,1.12-.65,2.25-.9,3.13,.98,.84,2.89,1.88,2.76,2.47-1.23,5.6,2.92,6.2,6.31,6.27,19.38,.41,38.78,.52,58.17,.66,3.35,.02,6.86-.27,7.73-4.49,.91-4.41-.04-8.51-4.38-10.48-4.01-1.82-8.41-2.78-13.55-4.4Zm-22.11-452.71l.79-.99c1.29,.54,2.61,1.58,3.87,1.52,3.09-.15,7.22,.25,8.95-1.51,2.18-2.22,3.62-6.57,3.13-9.65-.66-4.14-3.42-7.97-5.38-11.88-.24-.49-1.06-1-1.6-.99-4.95,.1-8.19-2.85-11.41-6.03-.8-.79-2.5-1.53-3.33-1.19-.88,.36-1.58,1.99-1.75,3.16-1.04,7.02,1.99,12.15,9.33,16.28,2.52,1.42,5.38,3.15,3.27,6.45-2.23,3.5-4.41,.27-5.95-1.11-4.01-3.58-6.59-.54-9.33,1.66-2.98,2.39-4.03,5.44-1.24,8.51,2.74,3.03,5.89,5.68,8.92,8.43,2.12,1.92,4.1,4.3,1.31,6.47-1.13,.88-4.19-.65-6.33-1.24-.53-.15-.94-.9-1.29-1.45-2.11-3.26-4.31-3.54-7.06-.59-3.72,3.99-4.02,6.14-.62,8.96,2.78,2.31,5.7,4.46,8.54,6.71,3.08,2.44,3.61,5.62,1.55,8.73-2.33,3.5-4.67,.67-7.17-.37-2.22-.91-4.82-.88-7.26-1.26-.12,2.67-.84,5.51-.15,7.94,.56,1.98,2.78,3.53,4.36,5.17,1.36,1.42,3.06,2.56,4.23,4.11,1.98,2.63,1.35,8.06-1.14,9.41-4.06,2.2-5.01-1.32-6.39-3.87-.23-.43-.39-.92-.67-1.32-2.11-3.01-4.63-2.86-6.53,.36-2.48,4.19,.1,10.83,4.93,12.68q11.63,4.47,9.96,15.92c-.02,.12,.16,.28,.38,.62,4.19,.24,5.74-3,7.27-6,4.61-9.08-5.56-9.58-9.52-14.75,6.36-.38,10.25-2.93,12.4-8,2.55-6.01-3.12-8.58-5.47-12.55,3.22-1.74,6.3-2.99,8.88-4.91,4.03-2.99,4.91-8.06,2.26-10.63-2.74-2.67-5.52-5.3-8.89-8.52,2.67-.31,4.72-.53,6.77-.8,8.99-1.17,12.02-7.77,6.75-15.17-1.36-1.91-3.68-3.13-5.51-4.72-1.32-1.15-2.55-2.4-3.83-3.6ZM205.08,27.21c.17-.23,.34-.46,.51-.69,1.43,1.06,3.07,1.94,4.25,3.23,1.88,2.06,3.33,4.51,5.21,6.57,.87,.96,2.3,1.4,3.47,2.08,.33-1.32,1.23-2.82,.89-3.93-1.87-6.07-4.63-11.57-10.47-14.98-3.8-2.21-6.69-2.15-10.04,1.26-1.69,1.72-5.22,2.73-7.67,2.37-4.63-.69-8.43,.25-10.9,3.91-2.52,3.74-1.69,7.99-.3,12.04,2.24-.41,3.88-.72,5.52-1.02-.1,1.96-.73,2.98-1.6,3.71-3.6,3.04-4.16,6.48-1.53,10.22,4.97,7.08,4.9,9.95-.3,17.07-.41-2.41-.41-5.15-1.38-7.49-1.52-3.68-5.76-4.02-7.05-.47-2.27,6.23-5.52,12.54-3.55,19.48,.67,2.34,2.56,4.38,4.05,6.44,2.63,3.65,5.88,6.97,7.85,10.93,1.03,2.08,0,5.25-.41,7.88-.06,.36-2.66,.88-2.84,.57-1.37-2.25-2.58-4.63-3.54-7.09-1.04-2.68-1.18-5.89-2.76-8.12-1.69-2.38-4.8-2.39-5.49,1.08-1.05,5.24-2.23,10.65,2.54,15.24,3.4,3.27,2.93,6.47-.25,9.87-1.07,1.15-1.56,2.84-2.31,4.28,1.68,.85,3.31,2.31,5.03,2.42,5.12,.31,8.46-2.97,11.46-6.63,.66-.8,1.39-1.95,2.24-2.11,4.64-.87,6.42-3.56,4.68-7.93-.97-2.43-2.36-4.7-3.57-7.04-3.86-7.45-3.86-14.59,.64-21.99,1.62-2.66,2.2-6.52,1.85-9.68-.52-4.76,.23-8.87,3.16-12.5,2.68-3.32,5.55-6.51,8.48-9.63,4.07-4.32,2.92-10.23-2.61-12.83-.14,9.25-1.92,11.22-8.75,9.24,1.11-1.45,2.15-2.81,3.39-4.43-1.82-1.39-3.41-2.6-5.05-3.84,2.62-.76,5.27-.88,7.07-2.18,4.24-3.04,7.18-1.82,10.14,1.76,1.55,1.87,3.54,3.39,5.33,5.07l1.89-1.54c-2.42-3.53-4.84-7.07-7.26-10.6Zm83.06,61.61c-.72,.26-1.44,.52-2.16,.78-.12,1.39-.55,2.84-.31,4.17,1.09,6.06-3.67,7.98-7.41,10.37-3.43,2.18-7.34,2.2-10.65-.37-2.68-2.09-5.24-2.16-7.61-.15-3.26,2.77-6.58,2.37-10.13,1.02-3.21-1.21-6.35-2.79-9.67-3.49-5.84-1.22-7.07-2.42-6.99-8.58,.02-1.65,.44-3.41,0-4.91-.46-1.55-1.75-2.86-2.68-4.27-1.08,1.59-2.99,3.15-3.05,4.77-.08,2.52,1.35,5.06,1.69,7.64,.63,4.84,3.32,7.29,8.01,7.92,1.46,.2,3.06,.28,4.3,.96,1.46,.79,3.74,2.33,3.62,3.26-.21,1.54-1.79,3.41-3.28,4.17-9.26,4.73-19.89,2.21-26.33-5.76-.82-1.02-2.54-1.31-3.85-1.94,.14,1.49-.18,3.25,.51,4.41,3.25,5.48,7.95,8.59,14.62,8.26,7.79-.39,15.49-.87,21.67-6.58,.35-.33,1.12-.2,1.7-.28,.28,.34,.57,.68,.85,1.02-1.38,1.51-2.49,3.5-4.18,4.44-9.06,5.03-18.62,7.23-28.97,4.53-1.8-.47-3.82-.07-5.74-.07-.1,.6-.2,1.2-.3,1.8,4.87,1.56,9.75,3.11,15.3,4.88-2.72,.67-5.11,1.01-7.29,1.88-1.15,.46-1.96,1.81-2.92,2.75,1.12,.81,2.13,1.94,3.38,2.32,1.17,.35,2.71,.21,3.87-.25,10.88-4.32,22.83-7.15,28.03-20.59,1.28,1.68,2.15,2.57,2.73,3.61,9.43,17.2,35.76,17.92,46.15,1.28,.8-1.28,2.15-2.2,3.67-3.71,.76,2.55,1.21,4.02,1.65,5.49,.56,0,1.12,0,1.68-.01,.08-2.3,.67-4.73,.1-6.86-.45-1.68-2.8-4.4-3.45-4.18-1.95,.67-4.23,2.22-5.05,4.04-2.94,6.49-8.42,8.84-14.71,9.03-5.52,.16-11.2-.45-16.58-1.71-5.62-1.31-10.11-4.8-13.04-10.4,.91-.1,1.3-.27,1.49-.14,1.1,.72,2.18,1.48,3.21,2.3,7.39,5.91,15.82,7.68,25.05,6.49,5-.65,8.65-3.28,10.71-7.72,.86-1.84,.6-4.21,.85-6.33-1.9,.89-3.88,1.66-5.67,2.74-.94,.57-1.5,1.74-2.32,2.54-7.07,6.86-21.82,5.34-26.72-2.07,4.72,1.19,9.98,3.27,15.36,3.69,8.15,.63,15.2-7.33,14.14-15.4-.31-2.37-2.12-4.54-3.24-6.8ZM82.44,256.74c.46-.4,.92-.8,1.39-1.2,1.16,.58,2.28,1.24,3.48,1.72,6.2,2.46,10.97,.98,13.35-4.07,1.72-3.65-.82-8.75-5.67-11.79-1.71-1.07-3.17-2.53-5.73-4.63,2.67,0,3.93-.08,5.19,.01,7.45,.54,12.19-6.66,10.3-12.62-.92-2.91-4.13-5.1-6.33-7.59-2.34-2.65-4.72-5.27-7.86-8.76,3.62-.82,5.42-1.22,8.05-1.82-2.54-2.71-4.39-5.2-6.78-6.96-.93-.69-3.65-.31-4.57,.59-5.95,5.76-5.36,14.65,1.08,19.92,1.91,1.56,3.89,3.04,5.88,4.49,2.7,1.97,3.69,4.81,1.41,7.09-.99,.99-4.38,.28-6.3-.55-1.86-.8-3.11-2.91-4.85-4.12-1.08-.75-3.34-1.6-3.74-1.17-.96,1.03-1.94,3.17-1.46,4.19,1.94,4.11,4.32,8.03,6.73,11.89,1.29,2.07,3.37,3.72,4.33,5.9,.55,1.26-.41,3.19-.69,4.82-1.66-.34-3.61-.26-4.9-1.14-1.41-.96-2.12-2.88-3.3-4.25-2.15-2.49-4.21-7.11-7.84-4.42-1.68,1.25-.49,6.45-.48,9.86,0,.57,.55,1.17,.93,1.71,3.24,4.64,6.69,9.16,9.63,13.98,.82,1.35,.8,3.95,.02,5.34-.81,1.45-3.09,3.01-4.56,2.86-1.26-.13-2.41-2.53-3.37-4.07-.49-.79-.18-2.16-.75-2.81-1.22-1.39-2.78-2.48-4.2-3.69-.91,1.45-2.22,2.79-2.65,4.37-1.25,4.58,1.2,7.26,4.98,9.55,7.11,4.3,7.63,6.52,4.14,13.37-.22,.43,.14,1.15,.45,3.09,2.88-2.8,5.51-4.62,6.99-7.12,.62-1.05-1.72-3.54-1.73-5.37,0-1.45,1.18-3.63,2.43-4.22,10.09-4.72,10.73-9.7,2.08-16.73-1.95-1.58-3.4-3.77-5.07-5.68ZM122.84,100.71c-.39,.29-.77,.57-1.16,.86-.04,.47-.3,1.09-.1,1.39,3.03,4.44,3.65,8.94,1.15,13.93-.4,.8,.93,2.73,1.84,3.83,.66,.81,2.49,.88,2.82,1.69,2.94,7.09,9.04,8.44,16.16,8.76v9.95c3.91,.33,6.8-.62,8.09-3.94,1.52-3.95,.86-7.59-2.11-10.96-2.19-2.49-3.77-5.52-6.14-9.11,2.33,0,3.14,0,3.96,0,6.58,.04,9.54-2.86,7.57-9.07-1.59-5-4.94-9.46-7.71-14.04-.93-1.54-2.5-2.7-3.77-4.03,.33-.44,.65-.88,.98-1.32,1.86,.98,4.3,1.52,5.47,3.03,2.48,3.2,4.14,7.03,6.47,10.36,1.36,1.95,3.38,3.43,5.1,5.12,.64-2.56,1.41-5.11,1.84-7.7,.14-.82-.43-2.01-1.05-2.67-7.79-8.26-16.75-14.57-28.64-14.09-2.74,.11-7.59,2.82-7.65,4.47-.18,5.25-4.41,11.63,2.18,15.81,1.98,1.26,4.57,1.71,6.95,2.12,2.08,.36,4.29-.07,6.39,.23,1.9,.28,4.06,.65,5.48,1.77,1.35,1.06,1.9,3.15,2.8,4.79-1.58,.64-3.2,1.9-4.74,1.8-3.06-.18-6.1-1.73-9.09-1.59-5.17,.25-7.91-2.05-9.69-6.57-.7-1.77-2.24-3.21-3.4-4.8Zm261.25,424.19c-4.16-5.57-8.6-10.93-8.38-19.51,3.62,5.09,6.65,9.34,9.68,13.59,1.11-1.38,1.23-2.18,1-2.87-3.67-11.02-7.17-22.1-11.17-32.99-2.12-5.77-2.87-11.4-1.57-17.38,.87-4.02,1.37-8.12,2.31-12.12,4.24-17.99,4.34-36.24,3.36-54.54-.17-3.24-.75-6.69-2.16-9.54-.97-1.96-3.71-3.04-5.67-4.51-.57,2.2-1.7,4.43-1.58,6.6,.22,3.88,1.95,7.76,1.73,11.57-.95,15.93-2.06,31.87-3.73,47.74-1.99,18.9-3.75,37.61,2.12,56.3,2.49,7.94,6.97,13.58,14.07,17.67Zm14.29-258.64c1-.45,1.39-.51,1.54-.73,.37-.53,.83-1.12,.88-1.72,.46-5.54,4.06-8.72,8.3-11.55,1.48-.99,3.49-2.14,3.86-3.58,.58-2.24,.8-5.4-.4-7.01-.94-1.27-4.61-1.69-6.41-.93-4.18,1.78-6.94,5.12-8.16,9.86-.41,1.58-2.99,3.67-4.48,3.59-1.5-.08-3.96-2.49-4.06-4.01-.17-2.54,.67-5.53,2.06-7.71,1.54-2.42,4.34-3.98,6.26-6.21,1.43-1.66,2.74-3.68,3.28-5.75,.28-1.09-.91-3.07-2-3.83-.61-.42-2.46,.71-3.61,1.38-1.79,1.04-3.34,2.94-5.22,3.31-3.81,.76-5.51,2.98-6.63,6.39-.47,1.43-1.97,2.52-3,3.76-.83-1.65-2.74-3.74-2.29-4.88,1.44-3.65,3.5-7.16,5.85-10.32,1.19-1.6,3.6-2.24,5.3-3.51,3.45-2.59,4.97-5.9,3.47-10.36-6.41,2.21-12.6,4.39-18.84,6.44-1.08,.36-2.35,.16-3.52,.21,.11-1.2-.24-2.92,.42-3.51,2.64-2.33,5.38-4.72,8.49-6.29,3.12-1.57,3.69-3.31,2.3-6.24-1.81-3.82-4.58-4.8-8.49-3.32-10.33,3.92-13.08,11.8-7.14,21.12,2.5,3.92,4.67,7.67,4.62,12.69-.03,2.43,1.58,6.15,3.53,7.11,6.49,3.21,8.64,9.01,11.11,14.97,.8,1.93,2.79,4.72,4.28,4.75,4.46,.09,8.37,0,8.71,5.87Zm-177.7,191.95c.56,.14,1.11,.29,1.67,.43,1.29-2.11,3.1-4.07,3.78-6.37,1.82-6.12,3.94-12.31,4.49-18.6,.92-10.59,1.52-21.35,.66-31.9-.44-5.37-1.25-10.46,1.15-15.25,2.78-5.56,1.87-9.49-2.9-13.57-5.01-4.29-9.45-3.63-11.45,2.79-2.36,7.59-3.08,15.25-2.22,23.3,1.73,16.17,2.67,32.43,3.95,48.64,.28,3.51,.59,7.01,.88,10.52Zm123.35-240.74c2.65-6.49,4.96-11.53,6.71-16.74,.64-1.91-.04-4.26-.12-6.41-1.85,1.09-4.15,1.8-5.46,3.35-2.2,2.6-3.76,5.73-6.14,9.5-1.49-5.95-1.65-10.91,2.16-14.39,6.14-5.61,6.07-12.74,6-19.94-.01-1.45-1.63-2.89-2.5-4.33-1.43,.92-3.16,1.57-4.23,2.8-4.6,5.29-6.76,11.45-5.84,18.71-1.07-1.59-1.97-3.19-2.03-4.82-.21-5.66,.44-11.1,4.18-15.84,3.81-4.84,5.01-10.4,2.52-17.41-1.64,2.42-3.27,4.85-4.91,7.27-1.47-7.18,6.62-8.83,6-15.53-.5-5.36,.98-10.9,1.59-16.36-.45-.16-.89-.31-1.34-.47-1.23,2.85-2.7,5.63-3.64,8.57-2.41,7.55-1.65,16.08-7.13,22.7-.54,.66-.44,1.88-.58,2.85-.54,3.96-.51,8.1-1.71,11.84-1.7,5.28-1.15,9.68,1.57,14.54,2.35,4.2,3.69,9.06,4.88,13.78,.99,3.95-.07,8.84,1.86,12.05,3.88,6.43,8.07,12.29,7.98,20.37-.03,2.72,3.04,3.59,4.83,.64,2.81-4.63,5.46-9.39,7.75-14.29,.92-1.96,.73-4.45,1.18-7.63-2.03,.88-3.01,.99-3.41,1.53-2.77,3.8-5.41,7.7-8.08,11.53-.82-3.08-1.65-6.23-2.1-7.88Zm-73.31-54.41c-2.34,1.83-3.79,2.96-5.23,4.09l.36,1.47c3.09-.38,6.4-.17,9.22-1.25,7.09-2.72,9.97-7.31,9.46-14.83-.38-5.7-1.42-11.35-2.16-17.02-.77-.13-1.54-.27-2.31-.4-3.08,4.33-6.2,8.64-9.24,13.01-5.16,7.43-11.14,9.67-20.02,7.81-7.14-1.5-11.82-5.96-15.77-11.74-1.98-2.9-4.63-5.35-6.97-8-.57,.28-1.14,.55-1.7,.83-.91,5.47-1.86,10.92-2.7,16.4-.86,5.55,.99,10.32,5.46,13.45,4.38,3.07,9.41,1.83,14.25,.27-1.84-.56-3.68-1.11-5.47-1.65,4.22-1.48,8.06-2.84,12.1-4.26-.49,1.78-1,3.6-1.91,6.89,5.01-.23,9.28-.43,13.69-.63-.36-2.51-.55-3.83-.75-5.29,3.18,.28,5.89,.52,9.69,.85Zm126.35,427.67c.42-4.72-7.73-12.2-9.98-10.34-4.73,3.9-4.31-.99-5.68-2.89-1.56,1.13-2.81,2.04-4.25,3.09-1.72-5.27-3.32-5.84-9.76-3.69,.99,2.86,1.18,6.77,3.19,8.34,2.37,1.85,2.63,1.85,.58,4.08-.86,.94,.15,3.89,.86,5.71,.15,.38,2.76-.24,4.24-.36,.62-.05,1.25,0,1.57,0,2.57,7.6,9.86,6.91,15.54,10.13-.72,1.01-1.63,2.28-2.67,3.74,1.26,1.69,4.5,3.34,.73,5.82-.36,.24-.11,1.57,.01,2.37,.28,1.85,.66,3.69,1.26,6.99,3.43,.14,8.23,.39,13.02,.39,.28,0,.96-2.03,.72-2.93-.21-.78-1.45-1.28-2.46-2.09,2.33-2.1,7.96-3.73,.91-6.1,.43-.94,.6-2.28,1.33-2.74,2.41-1.52,2.98-2.64,0-4.12-3.04-1.51-2.69-2.68,.49-3.49,.59-.15,1.36-.96,1.39-1.51,.03-.5-.79-1.09-1.31-1.56-.72-.65-1.51-1.23-2.28-1.84,.7-.53,1.33-1.29,2.13-1.54,3.13-1.02,2.53-2.84,.69-4.26-2.83-2.19-5.71-5.1-10.28-1.18ZM134.61,200.86c5.55,1.56,9.66-.05,11.54-4.23,1.99-4.42,.06-9.9-5.03-12.43-4.09-2.04-8.61-3.16-12.86-4.9-6.94-2.84-10.14-10.81-6.96-18.6,.52,6.12,2.31,10,8.91,9.92,7.56-.09,8.59,1.35,10.58,8.75,.43,1.6,2.47,3.8,3.9,3.9,3.75,.27,6.89-4.43,6.86-9.31-.05-5.97-2.38-9.06-7.14-9.15-3.87-.07-7.17-.87-8.9-4.82-.23-.54-.84-1.36-1.22-1.33-5.08,.42-6.82-3.75-9.64-6.61-1.17-1.19-4.81-2.06-4.89-1.89-2.48,5.13-4.67,10.4-6.84,15.68-.11,.26,.61,.77,.74,1.22,.96,3.37,2.58,6.74,2.62,10.12,.05,4.9,1.98,8.29,5.96,10.54,2.55,1.44,5.37,2.45,8.17,3.36,7.17,2.32,7.45,2.83,4.18,9.77Zm139.07,247.12c.83,.18,1.67,.36,2.5,.54,.77-1.96,1.96-3.86,2.23-5.88,1.72-12.85,3.29-25.72,4.75-38.6,.17-1.5-.61-3.12-1.01-4.66-.97-3.75-2.21-7.44-2.89-11.24-.49-2.71-.01-5.59-.44-8.32-.17-1.1-1.48-2.71-2.47-2.87-5.69-.94-11.28,4.46-10.85,10.27,.54,7.37,.8,14.78,1.84,22.08,1.85,12.94,4.2,25.8,6.34,38.69Zm119.1-279.51c-1.58-.83-2.79-1.29-3.79-2.04-1.35-1.01-2.53-2.23-3.78-3.36,1.36-1.1,2.55-2.66,4.1-3.2,3.86-1.35,8-1.93,11.81-3.38,4.17-1.58,8.15-3.68,9.1-8.81,.71-3.86,1.68-7.68,2.29-11.55,.18-1.15-.09-2.92-.85-3.52-.73-.58-2.83-.51-3.52,.14-2.76,2.6-5.21,5.54-8.14,8.75-2.87-1.01-4.26-3.09-1.82-6.28,3.17-4.15,7.65-7.26,11.31-11.07,1.52-1.58,2.99-3.7,3.34-5.76,.25-1.48-1.42-3.29-2.24-4.95-1.78,.97-4.1,1.52-5.22,2.99-3.73,4.9-9.05,6.84-14.4,9-1.51,.61-3.44,2.34-3.6,3.73-.83,7.35,5.79,15.18,12.97,15.99,1.21,.14,2.38,.6,3.68,.94-3.2,5.25-11.29,6.58-15.94,2.58-3.2-2.76-5.37-2.29-6.71,1.36-1.46,3.98-2.82,8.09-3.43,12.26-.61,4.2,1.84,7.28,5.69,8.87,3.27,1.35,6.4,1.25,9.15-2.69Zm-97.88,365.83c-.49-.03-.97-.05-1.46-.08-1.15-4.71-3.73-8.93-1.51-14.49,1.52-3.8,1.76-8.44,1.4-12.6-.69-8.07-2.17-16.07-3.41-24.09-.3-1.91-.94-3.77-1.42-5.65-3.21,8.49-6.09,16.68-2.94,25.49,.52,1.45,.75,3.49,.13,4.79-2.49,5.26-1,10.22,.43,15.3,.69,2.44,1.09,4.97,1.62,7.45-.31,.04-.63,.09-.94,.13-1.51-2-3.01-3.99-4.7-6.22-2.68,2.71-3.39,4.78-1.26,7.73,.93,1.29,.82,3.58,.65,5.36-.41,4.32-1.27,8.6-1.62,12.92-.06,.81,1.45,1.74,2.23,2.61,.74-1.12,1.84-2.16,2.11-3.39,.22-.97-.98-2.25-.81-3.26,.34-1.99,1.2-3.89,1.84-5.82,1.21,1.49,2.77,2.82,3.53,4.51,.69,1.52,.5,3.43,.8,6.02,6.87-5.01,2.39-10.12,1.1-15.27,4.49,3.04,7.74,6.03,6.84,11.46-.15,.9,.12,2.08,.63,2.84,.74,1.11,1.72,2.31,2.88,2.79,.74,.31,2.78-.46,2.87-.98,.21-1.3-.26-2.75-.64-4.08-.17-.58-1.14-.99-1.17-1.52-.12-1.74-.64-4.43,.22-5.04,1.46-1.04,4.1-1.45,5.74-.82,1.01,.38,1.55,3.22,1.46,4.91-.08,1.51-1.48,2.9-1.95,4.45-.23,.76,.03,2.08,.58,2.54,.52,.44,2.44,.26,2.48,.06,.89-3.87,2.34-7.82,2.13-11.67-.19-3.51-3.49-4.82-7.06-4.51-1.49,.13-3,.02-5,.02,1.74-2.64,3.76-4.44,4-6.45,.2-1.7-1.66-3.64-2.62-5.47-1.31,.84-3.09,1.38-3.83,2.57-1.43,2.29-2.27,4.94-3.35,7.44Zm-50.61-257.97h1.55c2.27,3.81,5.15,7.4,6.67,11.5,2.03,5.46,5.53,8.04,11.04,9.15,7.76,1.56,11.8,7.41,10.88,15.19,4.82,.15,7.18-2.48,8.07-6.79,.88-4.3-1.61-5.91-5.24-7.49-2.89-1.26-6.47-3.56-7.37-6.21-1.47-4.33-3.73-6.61-7.86-7.76-7.06-1.95-10.59-6.73-10.93-14-.06-1.35-.41-2.69-.58-3.75-4.6,.73-8.59,1.23-12.51,2.02-2.24,.45-4.15,1.37-2.56,4.4,1.85,3.52,.14,5.94-2.9,7.72-4.33,2.53-8.87,14.29-6.68,18.83,.9,1.87,3.51,2.92,5.34,4.34,.91-1.71,1.83-3.41,2.72-5.14,1.67-3.24,2.71-7.1,5.14-9.59,3.44-3.53,7.05-6.5,5.24-12.43ZM103.27,185.75c-.84-5.73-2.12-7.75-8.49-12.74-1.13-.89-3.2-1.68-4.29-1.22-1.16,.5-2.52,2.69-2.3,3.86,.63,3.27,1.47,6.77,3.27,9.48,2.05,3.08,5.23,5.4,7.94,8.04,5.09,4.96,5.46,8.93,1.32,14.8-.88,1.25-1.86,2.43-2.87,3.74,7.13,2.91,12.62,1.35,14.71-4.57,1.03-2.91,1.62-6.92,.39-9.45-1.66-3.42-5.27-5.89-7.86-8.59,8.91-4.96,8.96-5.62,7.04-17.49-.49-3.05-1.99-4.32-3.87-6.17-2.44-2.4-4.08-5.6-6.18-8.37-1.06-1.4-2.16-2.92-3.58-3.85-2.44-1.6-5.13-2.84-7.77-4.12-1.3-.63-2.71-1.04-4.08-1.55,.21,1.33,.26,2.7,.66,3.97,2.96,9.31,11.59,14.26,16.95,21.8,3.45,4.85,4.14,6.84-1,12.44Zm207.45,276.47c.63,.16,1.27,.32,1.9,.48,.87-1.43,1.82-2.81,2.61-4.29,5.22-9.86,8.03-20.23,8.44-31.53,.56-15.08,2.46-30.11,3.23-45.19,.23-4.5-1.41-9.1-2.19-13.65-.71-.05-1.42-.11-2.13-.16-.78,2.17-1.91,4.28-2.25,6.51-.63,4.05-.94,8.17-1.12,12.27-.5,11.11-.34,22.31-4.81,32.84-.18,.43-.11,.97-.16,1.46-.59,6.02-1.24,12.03-1.75,18.06-.65,7.73-1.18,15.46-1.77,23.2Zm-105.81,229.29c-5.19-7.98-9.99-15.19-14.61-22.52-1.52-2.41-2.88-4.57-6.23-3.85-.24,.05-.63-.63-1.19-1.22,.86-.9,1.65-1.74,1.92-2.03-1.75-4.71-3.23-8.87-4.85-12.98-1.02-2.58-2.26-5.06-3.69-8.23,.06-.04,1.22-.76,3.41-2.13-2.22-.8-3.46-1.64-4.7-1.62-3.61,.06-7.22,.51-10.83,.71-3.32,.18-4.52,2.15-3.56,4.96,1.91,5.61,4.09,11.13,6.46,16.55,.49,1.12,2.22,1.97,3.55,2.41,3.34,1.11,6.78,1.9,10.15,2.82-1.36,6.46,5.17,16.95,12.09,19.64-.1,.44-.14,1.24-.33,1.29-2.97,.63-2.43,2.96-1.69,4.53,.51,1.07,2.35,2.04,3.64,2.11,3.25,.15,6.52-.24,10.43-.44Zm-55.05-489.69c-5.11,2.99-6.38,6.37-6.17,10.57,.17,3.45,.11,6.92,.51,10.34,.21,1.82,1.23,3.53,1.79,5.32,.39,1.24,.83,2.53,.8,3.78-.01,.38-1.93,1.25-2.3,.98-.93-.69-1.93-1.83-2.09-2.91-.38-2.57-.79-4.65-4.16-3.76-3.24,.85-3.79,3.44-2.73,5.8,1.59,3.55,3.96,6.74,5.96,10.1,1.17,1.96,2.27,3.96,3.76,6.57-2.51,.3-3.83,.28-5.04,.64-2.55,.74-5.04,1.68-7.56,2.54,1.08,2.09,1.85,4.45,3.32,6.23,3.33,4.02,4.99,7.77,.32,11.95-2.14,1.91-1.17,3.88,.98,4.55,1.44,.45,4.55-.11,4.79-.9,1.71-5.37,3.54-10.87,3.98-16.43,.4-5.13-.13-10.13,3.59-14.42,.81-.93,1-2.88,.72-4.21-1.13-5.37,1.16-9.36,4.23-13.47,1.17-1.57,1.67-5.18,.67-6.53-3.51-4.77-7.4-9.15-5.37-16.73Zm289.34,477.1c11.21-25.45,7.71-85.31-2-94.03,.67,31.73,1.34,62.88,2,94.03Zm-240.65-142.47c2.59-3.49,5.17-6.95,8.22-11.06,3.26,8.67,6.97,16.96,6.34,26.62,1.29-3.21,1.9-6.36,1.98-9.53,.13-4.96,2.01-7.93,7.32-8.34,1.04-.08,2.19-1.48,2.82-2.55,.27-.46-.63-2.33-1.01-2.34-1.31,0-2.81,.23-3.9,.92-1.18,.74-1.99,2.09-2.96,3.17-.44-.27-.89-.54-1.33-.81,.72-2.21,1.44-4.42,2.25-6.91-1.36-.19-2.71-.37-4.2-.57-.18-5.9,1.83-11.92-3.37-18.33-2.08,5.17-3.7,9.19-5.37,13.32-7.48-1.76-9.47-.31-10.66,8.6-.19,1.46,.05,3.01-.29,4.43-.69,2.9-1.8,5.71-2.44,8.63-.59,2.67-1.12,5.44-.99,8.14,.05,1,2.06,1.9,3.18,2.85,.66-1.33,1.48-2.62,1.91-4.02,.21-.67-.5-1.58-.5-2.37,.02-1.62-.34-4.08,.51-4.66,1.36-.93,3.97-1.35,5.3-.61,1.26,.69,1.92,3.1,2.15,4.84,.25,1.88-.29,3.88-.57,6.73,7.34-7.17,5.9-11.5-4.42-16.13Zm58.67-305.49c-3.05,3.12-5.19,5.13-7.07,7.35-.74,.87-1.59,2.66-1.2,3.29,1.71,2.78,3.4,5.93,5.95,7.77,3.95,2.86,8.65,4.64,12.91,7.1,3.22,1.86,4.96,4.52,4.29,8.62-.24,1.47,.61,4.15,1.64,4.56,1.48,.59,3.93,.11,5.33-.84,1.82-1.24,3.23-3.27,4.42-5.2,2.83-4.58,1.91-8.12-3.1-9.75-4.58-1.49-6.87-4.49-8.77-8.57-3.24-6.97-9.36-11.03-14.4-14.34Zm-59.33-61.39c-.46-3.97-.6-7.67-1.41-11.23-.37-1.63-2.05-2.96-3.14-4.43-1.35,1.02-3.01,1.82-3.97,3.13-1.21,1.64-1.85,3.71-2.83,5.8-4.17-3.09-7.94-5.89-11.71-8.68l-1.35,1.28c1.48,2.42,2.69,5.07,4.49,7.22,5.45,6.47,11.61,12.37,12.76,21.53,.18,1.47,3.31,3.69,4.91,3.56,1.64-.13,4.23-2.62,4.39-4.26,.44-4.64,3.12-6.36,6.91-7.85,4.6-1.81,5.67-4.94,3.75-9.94-1.8,1.49-3.52,2.9-4.74,3.9-.92-2.36-1.84-4.69-2.75-7.02-1.55,2.04-3.09,4.09-5.3,7Zm-37.45,347.69c3.45-1.26,5.76-3.01,7.56-2.58,5.08,1.21,7.29-.94,8.67-5.34,.42-1.35,1.54-2.5,2.4-3.7,3.52-4.89,4.44-9.79,1.64-15.58-1.66-3.43-2.56-7.53-2.67-11.35-.26-8.84,.26-17.69,.27-26.54,0-2.28-.68-4.57-1.05-6.85-.79,.06-1.58,.11-2.36,.17-.22,4.62-.23,9.26-.7,13.85-.7,6.96-1.61,13.9-2.65,20.81-.63,4.19-1.67,8.32-2.54,12.47-.69,3.33-1.04,6.79-2.18,9.96-1.68,4.65-3.93,9.1-6.4,14.67ZM298.26,188.01c4.75,2.51,7.26,1.77,10.16-2.52,1.64-2.42,2.93-6.2,5.16-6.89,7.93-2.48,8.6-9.39,10.3-15.42,1.6-5.67-3.68-13.01-9.44-14.14-.99-.19-2.21,.79-3.32,1.23,.49,.89,.81,1.93,1.49,2.63,1.22,1.26,2.65,2.3,4,3.44-.21,.33-.42,.65-.64,.98-1.99-.38-3.97-.76-6.49-1.25,2.84,6.61,4.33,12.76,.93,19.07-.72-5.93-.3-12.11-4.69-18.01-.34,3.9-.58,6.71-.94,10.97-1.6-3.05-2.46-4.69-3.32-6.33-.37,.1-.73,.21-1.1,.31,.63,3.11,1.25,6.22,1.88,9.33l-1.41,1.08c-1.3-2.34-2.6-4.68-3.91-7.01-3.18,6.27,1.08,9.02,3.08,12.53,3.14,5.53,3.1,6.64-1.74,9.99Zm33.54,329.1c-1.26-14.16-2.29-28.05-3.89-41.88-.31-2.63-2.89-4.99-4.43-7.47-1.4,2.62-3.89,5.18-4.02,7.86-.53,10.82-.59,21.67-.31,32.5,.2,7.89,3.06,9.94,12.66,8.99Zm91.95,66.38c-.97-.01-1.94-.03-2.9-.04-1.29,34.61,1.16,69.14,3.83,103.67,2.9-34.6,4.3-69.17-.93-103.63Zm-66.41-301.15c.43,.02,.86,.04,1.29,.06,.08,1.41,.62,3,.15,4.2-.94,2.4-2.26,4.7-3.71,6.85-4.23,6.23-5.72,12.93-3.25,20.12,.67,1.95,2.56,3.47,3.89,5.19,.59-.12,1.19-.23,1.78-.35-4.71-7.33-1.18-11.56,4.23-15.71,4.6-3.52,5.66-10.46,3.59-15.32-.97-2.29-1.31-4.84-2.11-7.21-.44-1.31-1.06-3.38-1.9-3.55-1.27-.25-3.11,.53-4.17,1.48-1.61,1.45-2.76,3.42-4.11,5.16-.19-2.08,.76-3.49,1.36-5.03,1.03-2.68,1.85-5.44,2.75-8.17-2.99,.27-5.98,.55-8.97,.82,.06,.31,.12,.62,.18,.93-1.99-.75-3.98-1.49-5.98-2.24-.59,.63-1.17,1.27-1.76,1.9,7.27,1.79,6.2,6.95,6.36,11.69,.05,1.6,.29,3.48,1.17,4.7,1.04,1.43,2.9,3.16,4.36,3.12,1.24-.03,2.7-2.23,3.54-3.76,.79-1.44,.89-3.25,1.29-4.9ZM186.64,125.02c-4.39,2.07-7.54,4.61-10.86,4.86-4.66,.36-6.62,2.26-5.72,6.34,.69,3.14,2.43,6.17,4.22,8.9,1.21,1.85,4.07,2.79,4.88,4.7,1.4,3.29,3.33,4.58,6.72,4.22,3.69-.38,6.37-2.29,7.18-5.8,1.25-5.42,2.14-10.95,2.78-16.48,.13-1.09-1.53-2.39-2.36-3.6-.65,1.14-1.63,2.21-1.87,3.43-.41,2.08-.37,4.26-.51,6.4-.43-.04-.86-.08-1.29-.11-.95-4.64,.11-9.94-3.17-12.87Zm-32.1,35.14c-1.13,2.77-2.72,4.87-2.22,5.73,2.82,4.78,2.42,9.96,2.78,15.11,.08,1.14,1.01,2.51,1.96,3.27,4.4,3.49,3.46,7.83,2.39,13.86-1.58-2.92-2.13-4.96-3.45-6.11-1.5-1.31-3.7-1.83-5.59-2.69-.11,1.85-.91,4.03-.22,5.5,2.43,5.16,4.29,10.25,3.34,16.12-.22,1.39,.8,2.98,1.24,4.47,.5,0,1.01,0,1.51,0,.36-7.59,9.42-11.6,7.54-20.22-.2-.93,1.09-2.24,1.8-3.31,3.25-4.9,3.41-18.77-.23-24.04-.51,2.96-.94,5.38-1.21,6.95-2.84-4.31-5.76-8.73-9.66-14.64Zm-38.22,270.3c3.74-3.5,3.76-7.91,3.87-12.21,.24-9.35,.46-18.7,.42-28.05-.03-7.86-2.67-14.86-8.19-20.87-4.26,20.79-.47,40.94,3.9,61.13Zm-46.26,189.29c-.15-.07-.29-.14-.44-.21-1.83-10.22-3.67-20.43-5.5-30.65l-1.82,.2c.91,19,1.83,37.99,2.74,56.99,.53,.13,1.05,.25,1.58,.38,1.94-3.67,3.88-7.35,5.54-10.5,.13,.22,.84,1.34,1.63,2.62,8.41-10.88,6.97-22.45-3.39-26.67-.12,2.72-.24,5.28-.35,7.84ZM374.53,290.86c-.4-2.9-.92-5.59-1.1-8.31-.08-1.31,.03-3.23,.85-3.89,5.18-4.19,5.14-10.67,7.27-16.15,.52-1.35-.42-3.57-1.26-5.09-1.59-2.89-3.58-2.82-4.91,.26-1.17,2.71-1.55,5.83-3.07,8.28-1.06,1.7-3.66,3.79-5.21,3.53-3.16-.52-4.9-3.38-4.03-6.76,.51-2.02,1.73-3.88,2.78-5.72,1.38-2.43,3.43-4.62,4.18-7.21,.47-1.62-.65-3.96-1.66-5.6-.32-.53-2.87-.36-3.88,.3-7.82,5.04-8.7,19.83-1.3,25.49,3.6,2.75,5.11,5.21,3.77,9.87-1.46,5.06,2,9.77,7.56,11.01Zm-39.75,294.98c.66-2.47,1.56-4.26,1.47-6-.08-1.61-1.23-3.17-2.24-5.54h-21.18c3.04,3.96,5.78,7.55,9.04,11.79,0,.45-.43,3.15,.07,3.34,3.95,1.48,2.48,5.02,3.3,7.64,1.26,3.99,2.48,7.98,3.73,12.02,6.4-2.72,8.86-8.89,6.35-14.52-.4-.9-.92-2.62-.6-2.84,3.68-2.58,1.75-4.62,.06-5.89ZM230.11,248.46c-2.08-7.77-.99-10.06,5.89-13.08,1.5-.66,3.01-1.3,4.47-2.05,5.35-2.74,7.69-7.43,8.19-13.16,.28-3.24-.82-5.2-4.63-5.36-7.54-.31-13.9,4.67-17.08,13.65-.85,2.41-1.98,4.79-3.39,6.92-4.42,6.67-1.98,11.98,6.56,13.08Zm191.73,1.8l-1.77-.68c-4.05,5.29-8.37,10.4-12.08,15.92-4.55,6.76-3.69,10.52,2.99,15.34,2.43,1.75,4.91,3.08,4.86,6.74-.01,.95,1.91,1.92,4.12,3.98-1.21-7.01,1.74-10.04,5.72-13.02,2.06-1.53,3.16-4.68,4.02-7.32,.35-1.08-.78-3.23-1.86-3.96-.7-.48-2.9,.37-3.8,1.26-2.08,2.07-3.62,4.68-5.68,6.78-1.13,1.14-2.87,1.68-4.33,2.49,0-1.92-.68-4.21,.13-5.67,1.59-2.83,4.15-5.08,6.06-7.75,3.18-4.45,3.57-9.22,1.62-14.11Zm8.99,434.59c.52,0,1.03,0,1.55,0,4.39-26.81,3.02-92.9-3.45-98.89,.63,32.96,1.27,65.93,1.9,98.89ZM231.87,275.99c.46-.32,.91-.65,1.37-.97-4.94-6.05-2.25-10.53,2.07-14.41,1.88-1.69,4.37-2.7,6.5-4.14,1.99-1.34,4.9-2.46,5.57-4.33,1-2.82,1-6.37,.19-9.27-.38-1.37-4.13-3.16-5.47-2.61-2.74,1.13-4.91,3.68-7.26,5.72-.31,.27-.41,.91-.44,1.38-.27,4.6-3.23,6.81-7.09,8.5-7.1,3.1-8.41,13.4-2.18,18.1,1.76,1.33,4.47,1.39,6.74,2.04Zm37.5-137.74c-2.31,2.36-4.64,4.69-6.91,7.07-3.13,3.28-5.74,3.31-8.16-.23,4.96-1.84,11.72-1.83,11.51-8.89-5.28-2.05-9.75-3.79-14.18-5.51-1.94,.67-4.2,1.46-6.47,2.23-5.23,1.76-7.84,5.19-5.72,8.97,2.18,3.89,5.4,7.32,8.71,10.38,1.19,1.1,3.99,.87,5.97,.6,2.5-.34,4.86-1.54,7.36-2,4.99-.92,9.27-6.23,7.9-12.62Zm122.56,61.71c-5.3-7.7-4.63-10.13,3.53-13.58,2.86-1.21,5.81-2.38,8.39-4.06,7.39-4.81,10.27-15.66,5.78-22.97-3.41,2.5-6.82,4.92-10.12,7.49-.45,.35-.29,1.42-.54,2.11-.6,1.72-.83,3.81-1.98,5.04-3.92,4.2-8.24,8.03-12.29,12.12-2.82,2.85-2.68,8.3,.86,11.96,1.34,1.38,4.2,1.3,6.36,1.89Zm-12.37-55.34c-5.27-6.96-8.66-7.49-16.19-5.94-6.23,1.28-9.34,6.08-13.77,9.36-5.63,4.17-5.5,4.33-1.48,10.28,.34,.51,.19,1.43,.59,1.81,1.29,1.2,2.73,2.23,4.12,3.32,.27-.4,.54-.8,.81-1.2-2.61-4.32-.78-8.13,4.32-8.8,1.62-.21,3.29,.01,4.92-.1,6.86-.47,12.68-2.89,16.68-8.73Zm-254.15-13.88c-6.41,7.28-4.06,17.27,5.99,20.54,5.53,1.8,10.64,3.71,12.05,11.09,2.1-2.22,3.59-3.67,4.93-5.25,2.46-2.9,2.85-5.87-.09-8.74-3.8-3.7-7.6-7.41-11.47-11.04-.69-.65-1.73-.9-2.58-1.39-2.75-1.6-5.48-3.23-8.83-5.2Zm131.3,128.23c-4.08,2.35-5.14,6.39-2.2,11.04,2.74,4.33,6.83,6.26,11.89,6.82,7.38,.82,9.4,4.69,6.04,11.32-1.32,2.61-.04,4.63,2.02,3.71,3.8-1.69,8.34-3.96,10.16-7.3,2.07-3.81-2.11-6.36-5.55-8.36-2.56-1.49-4.69-3.73-6.94-5.73-2.62-2.32-5.01-4.93-7.76-7.06-2.08-1.61-4.58-2.69-7.66-4.44ZM56.93,692.68c1.47-3.64,3.82-7.17,4.26-10.93,3.34-28.21,1.55-56.44-.53-84.63-.32-4.3-2.02-8.49-3.08-12.73-.51,.11-1.02,.21-1.53,.32,2.93,35.86,5.27,71.71,.87,107.98ZM373.66,115.23c-.64-.43-1.28-.87-1.92-1.3-5.39,6.75-12.9,6.51-18.55,6.38-2.83,3.28-5.07,5.22-6.47,7.65-1.53,2.66-3.13,5.78-3.06,8.66,.04,1.94,2.93,3.81,5,6.24,3.77-9.65,3.77-9.5,13.03-9.14,1.95,.08,5.07-.89,5.75-2.29,2.5-5.2,4.21-10.78,6.21-16.21Zm-116.42,100.62c.24,.58,.41,1.18,.71,1.7,.41,.71,1.18,1.3,1.34,2.04,1.95,8.89,7.4,14.18,16.06,16.85,4.11,1.27,4.36,4.93,2.97,8.59-.43,1.13-1.22,2.13-1.96,3.38,4.03,2.46,6.5,.96,8.26-2.37,2.44-4.63,1.07-9.82-2.82-13.9-3.36-3.53-6.55-7.31-9.23-11.37-4.19-6.35-7.53-7.68-15.34-4.92Zm144.24,448.86l-.6-.93c-8,.69-15.99,1.38-24.54,2.12,.73,3.35-5.23,7.42,.43,11.59,.03,.02-1.03,1.85-1.83,2.54-.58,.5-1.59,.52-3.29,1,4,2.52,5.29,4.92,1.76,6.66,.8,2.31,1.31,4.15,2.08,5.86,.35,.77,1.22,1.77,1.9,1.81,.65,.04,1.72-.91,1.97-1.64,.34-1,.09-2.2,.09-2.93,9.33-3.81,7.88-13.86,12.55-19.99-1.21-.57-2.15-1.01-3.16-1.49,5.11-1.86,8.88-3.23,12.65-4.6ZM214.12,182.85c-2.71-1.59-4.86-2.85-7.02-4.11-.79,1.69-2.19,3.37-2.2,5.06,0,1.83,.87,4.88,2.07,5.29,3.84,1.28,4.28,4.34,5.71,7.3,1.54,3.19,4.06,6.12,6.77,8.44,1.1,.94,4.25,.62,5.69-.32,1.18-.77,2.02-3.52,1.61-5.01-1.14-4.17,.28-7.32,2.58-10.52,1.11-1.54,1.78-3.4,2.66-5.12-.46-.28-.93-.55-1.39-.83-1.69,2.36-3.38,4.72-5.54,7.75v-7.52c-2.6,2.02-4.39,3.41-6.41,4.99-.62-2.78-1.2-5.34-1.91-8.51-1.48,1.75-2.41,2.85-2.63,3.1Zm-169.72,.49c-.16-.08-.31-.15-.47-.23-.65-2.65-.79-5.61-2.12-7.86-1.02-1.72-3.54-2.55-5.39-3.77,.18,2.2,.05,4.49,.62,6.58,.46,1.66,1.78,3.09,2.72,4.62-.48,.41-.96,.81-1.44,1.22-1.84-1.79-3.68-3.59-5.52-5.38-.44,.37-.89,.73-1.33,1.1,2.18,2.88,4.35,5.76,6.89,9.12-.04,.08-.54,1.14-1.05,2.2,.22,.46,.44,.93,.66,1.39,3.27-.99,7.04-1.25,9.71-3.11,6.16-4.29,11.41-9.93,19.51-10.79,3.01-.32,3.94-2.38,2.24-4.95-3.97-6.01-8.02-11.96-12.27-17.77-.84-1.15-2.71-1.54-4.1-2.27-.5,.55-1,1.1-1.5,1.65,3.04,3.66,5.76,7.66,9.21,10.88,4.04,3.78,4.13,8.6-.7,11.24-3.94,2.15-8.09,3.91-12.02,5.79-.79-1.89-1.6-3.81-2.41-5.74-.32,.12-.64,.25-.96,.37-.09,1.9-.18,3.81-.27,5.71Zm400.69-27.2c-.44-.33-.89-.66-1.33-.99-2.59,4.01-5.18,8.01-7.78,12.02-1.95,3-3.6,6.26-5.91,8.95-3.6,4.19-3.48,6.45,1.46,8.99,1.71,.88,3.77,1.81,5.57,1.64,5.02-.47,7.45,2.29,9.48,6.22,1.56,3.03,3.46,5.91,6.18,6.01,1.86-2.29,2.91-3.78,4.15-5.07,1.02-1.06,2.52-1.71,3.36-2.86,1.08-1.48,1.72-3.28,2.55-4.94-1.94,.64-4.05,1-5.77,2.01-1.83,1.08-3.3,2.78-5.6,4.81-2.56-7.85,6.22-7.44,6.87-12.17-1.93-2.8-3.7-3.36-5.73,.13-1.07,1.84-2.6,3.41-3.93,5.1-.34-.19-.68-.39-1.03-.58v-5.06c-1.76,.69-3.13,1.24-4.08,1.61-.71-2.04-1.32-3.76-1.92-5.49-1.12,1.14-2.11,2.49-3.41,3.37-1.2,.81-2.74,1.11-4.12,1.63-.16-1.39-.91-3.07-.39-4.11,3.64-7.15,7.55-14.15,11.37-21.21Zm-190.64,167.79c1.51,1.31,3.44,2.77,5.09,4.49,.88,.92,1.99,2.39,1.82,3.43-.79,4.89,.41,7.62,4.97,9.08,.97,.31,2.92-.28,3.42-1.08,2.19-3.5,1.1-8.44-2.29-10.88-4.9-3.54-9.91-6.92-14.66-10.22-3.13,1.38-5.99,3.11-9.09,3.88-2.75,.68-4.02,1.84-3.97,4.58,.08,3.84-1.59,6.42-5.1,8.2-1.26,.64-2.86,2.89-2.57,3.92,1.11,4,3.57,7.1,8.48,8.43,0-1.72,.05-2.81,0-3.9-.49-8.58,2.58-13.09,10.6-16.32,1.48-.59,2.4-2.57,3.3-3.6Zm-157.16,4.85c.93-.08,1.58-.15,2.24-.18,7.21-.36,10.31-5.69,6.62-11.81-1.68-2.78-3.83-5.4-6.24-7.57-2.23-2-4.57-3.36-4.21-7.08,.11-1.13-2.36-2.51-3.66-3.77-.74,1.42-2.2,2.9-2.09,4.26,.43,5.65,2.59,10.31,7.86,13.43,1.68,.99,2.27,3.84,3.35,5.84-2.2,1.04-4.57,3.17-6.55,2.85-2.83-.45-5.35-2.73-8.04-4.16-1.19-.63-2.46-1.12-3.69-1.67,.07,1.49-.37,3.29,.31,4.4,1.17,1.89,2.8,3.71,4.66,4.93,6.64,4.36,6.97,6.52,1.43,12.43-.24,.26-.13,.85-.19,1.31,6.34,.26,7.02-.82,8.2-13.21Zm254.54-149.57c.15,.67,.01,3.14,1.18,4.3,1.32,1.32,3.79,1.62,5.82,1.91,.26,.04,1.49-2.75,1.26-4.04-.53-3,.82-4.09,3.32-4.99,9.84-3.57,10.36-4.73,8.14-14.41-.74-3.24-2.36-3.83-5.29-3.03-8.33,2.27-14.31,10.05-14.42,20.26Zm-61.46,106.1c-3.28,2.7-2.63,5.03,1.29,7.92,5.54,4.08,11.42,8.58,5.85,17.71,6.39-1.61,9.91-4.8,11.56-9.66,1.61-4.77-.34-7.32-4.78-9.63-2.63-1.37-5.78-3.83-6.48-6.4-1.69-6.22-6.69-8.58-10.52-12.35l-1.9,1.04c1.61,3.66,3.21,7.33,4.98,11.37ZM46.34,581.22c-.71,.32-1.42,.64-2.12,.96,.41,1.69,.7,3.42,1.24,5.07,1.63,4.95,4.51,9.8,4.85,14.83,1.26,18.71,1.94,37.47,2.28,56.22,.1,5.32-1.67,10.68-2.65,16.02-.33,1.79-.89,3.54-1.34,5.31,.51,.13,1.02,.26,1.53,.39,1.75-6.61,4.77-13.17,5-19.83,.58-16.75,.21-33.55-.43-50.31-.26-6.83-1.9-13.69-3.58-20.36-.75-2.98-3.14-5.54-4.78-8.29Zm254.39-316.58c7.28,1.79,14.12-3.06,11.64-8.81-3.91-9.07-12.32-14.14-20.25-19.66-.87,2.66-.38,5.18-1.28,7.03-2.29,4.71,.36,6.31,3.85,8.27,7.84,4.4,8.07,5.2,6.05,13.18Zm-86.66,3.89c-4.16,5.93-11.5,8.87-13.5,17.02-1.17,4.74-.3,11.94,4.26,13.96,.81,.36,2.28,.56,2.73,.11,.65-.65,1.17-2.21,.82-2.93-2.56-5.21,.81-7.38,4.46-9.75,7.71-5.02,8.15-11.25,1.24-18.41Zm-41.97,145.23c.65-.08,1.3-.17,1.95-.25,0-2.84-.06-5.69,.01-8.53,.14-5.22,.32-10.45,.54-15.67,.33-7.83,.8-15.66,.99-23.5,.04-1.58-.93-3.19-1.43-4.78-.68-.09-1.37-.17-2.05-.26-1.86,6.02-4.4,11.93-5.37,18.09-.68,4.38,.55,9.13,1.3,13.65,1.18,7.11,2.69,14.16,4.06,21.24Zm-57.46-96.3c.09,.77-.08,1.76,.33,2.28,2.73,3.44,5.48,6.86,8.42,10.11,2.58,2.87,2.82,6.66,.14,9.12-3.2,2.94-5.27,.85-7.19-1.75-.58-.79-1.18-1.66-1.98-2.17-2.32-1.46-3.93-.73-3.84,2.02,.05,1.51,.64,3.39,1.67,4.41,3.76,3.75,4.74,7.69,1.46,12.25,4.48,.83,8.51-1,8.04-4.03-.66-4.3,2.03-5.77,4.55-7.82,4.25-3.44,5.93-8.73,4.34-13.13-1.86-5.13-10.3-12.16-14.41-11.96-.45,.02-.87,.37-1.52,.66Zm170.24-126.26c-2.82-2.3-4.97-4.05-7.12-5.81,1.16,6.58,4.72,12.7-.67,18.79,11.28,2.72,20.01-5.38,17.66-15.6-.21-.91-.59-2.08-.22-2.77,2.32-4.29,1.6-7-2.86-9.82-.48,3.73-.95,7.47-1.56,12.21-2.2-2.68-3.53-4.3-5.76-7.01,.21,4.1,.35,6.62,.52,10.01Zm-28.78-5.31c1.83,3.33,4.83,6.33,4.64,9.11-.21,3.04-3.37,5.88-5.25,8.8,5.85,3.78,16.55,2.91,19.6-1.49,2.57-3.72,.41-13.56-4.1-17.2-.84,2.32-1.62,4.49-2.6,7.21-2.83-5.13-6.57-7.49-12.29-6.42Zm-33.14,25.81c-9.13,.11-20.76,16.05-18.17,23.49,.47,1.35,2.41,2.52,3.92,3.01,.63,.2,2.06-1.47,2.85-2.5,1.96-2.53,3.54-5.38,5.67-7.73,2.64-2.9,6-5.18,8.42-8.23,1.21-1.53,1.69-4.38,1.16-6.24-.32-1.13-3.22-1.53-3.85-1.79ZM23.21,170.29c.67,.37,1.35,.74,2.02,1.11,2.48-4.99,5.52-9.12,11.73-9.09,.82,0,1.77-1.35,2.46-2.22,3.16-4,6.33-8,9.31-12.13,.98-1.35,1.39-3.11,2.47-5.64-2.37,.57-3.48,.54-4.19,1.06-5.6,4.15-11.57,7.22-18.43,9.01-5.19,1.35-9.47,8.65-8.86,12.62,2.8-2.17,5.75-4.47,8.7-6.76l.35,.82c-1.85,3.74-3.7,7.48-5.56,11.22Zm267.21,81.86c-.75,.26-1.51,.53-2.26,.79,.47,5.78,.81,11.58,1.55,17.33,.14,1.08,1.76,2.49,2.95,2.82,4.68,1.27,7.46,3.59,7.12,8.96-.08,1.19,1.81,2.5,2.79,3.75,1.97-2.19,4.44-4.11,5.76-6.64,1.39-2.67,1.46-6.35-2.03-7.59-6.11-2.16-8.69-7.07-11.31-12.26-1.27-2.51-3.03-4.78-4.56-7.16Zm117.26-24.6c3.79,3.08,7.56,6.15,11.33,9.22,.54-.46,1.09-.92,1.63-1.38-5.24-3.21-5.78-7.87-5-13.03,.19-1.26-.05-2.64-.33-3.91-.62-2.82-1.38-5.1-4.71-1.87-2.97,2.89-6.02,1.48-6.89-1.77-.77-2.84,.05-6.22,.62-9.28,.25-1.31,2.15-2.31,2.4-3.62,.45-2.34,.2-4.81,.25-7.22-2.27,.9-5.24,1.18-6.67,2.81-3.78,4.31-4.7,9.66-3.22,15.28,1.52,5.76,6.61,8.84,12.42,7.62,.89-.19,1.81-.26,2.71-.38,.35,.38,.69,.77,1.04,1.15-1.71,1.96-3.42,3.91-5.59,6.39Zm-166.55-41.13c-1.8,2.11-2.98,3.5-4.31,5.06-.69-2.18-1.23-3.89-1.91-6.04-4.21,5.14-4.52,13.84-1.15,17.44,5.11,5.44,10.98,5.35,17.86,.1-1.85-2.5-4.95-4.88-5.16-7.49-.23-2.8,2.27-5.82,3.57-8.75-.27-.16-.54-.32-.81-.47-2.2,1.99-4.4,3.98-6.92,6.25-.42-2.18-.69-3.59-1.18-6.1Zm114.87,10.46c.95,2.69,1.22,4.4,2.09,5.7,.93,1.38,2.42,2.39,3.67,3.56,1.17-1.47,3.54-3.18,3.31-4.37-1.1-5.59,3.02-6.76,6.38-8.87,2.07-1.3,4.33-2.71,5.63-4.66,1.29-1.93,1.47-4.6,2.14-6.95-2.42-.64-5.09-2.23-7.2-1.67-2.65,.71-6.96,3.41-6.81,4.83,.45,4.04-2.02,5.06-4.21,6.95-1.95,1.68-3.51,3.8-5.01,5.48Zm30.08,111.97c.08-.28,.17-.44,.16-.59-.03-.49-.01-1-.16-1.46-2.31-7.24-3.12-13.6,4.47-19.11,4.1-2.98,6.03-8.75,4.54-14.32-.47-1.77-2.55-3.1-3.89-4.64-1.23,1.14-2.87,2.06-3.62,3.46-2.95,5.49-5.7,11.09-8.32,16.75-.64,1.39-1.14,3.42-.59,4.68,2.23,5.16,4.89,10.14,7.42,15.23Zm-100.27-94.67c-5.1,.09-6.46,2.37-4.71,6.08,2.49,5.29,7.1,8.06,12.52,9.46,3.61,.93,5.83,2.64,5.93,6.66,.03,1.28,.62,3.34,1.43,3.61,1.11,.37,2.86-.35,3.99-1.11,3.81-2.56,4.33-5.72,1.18-9.05-1.98-2.09-4.73-3.41-7.02-5.23-3.02-2.4-5.86-5.02-8.88-7.42-1.69-1.34-3.58-2.42-4.44-2.99Zm4.96-61.21c2.15-7.37,7.19-10.34,13.66-11.85,1.41-.33,3.32-2.89,3.26-4.35-.21-5.47-1.15-10.92-1.81-16.37l-1.39-.06c-2.3,3.66-5.56,7.06-6.63,11.05-1.2,4.46-4.11,6.51-7.37,8.59-4.69,2.99-5.03,8,.28,12.98Zm161.27,509.45c5.86-23.4,5.78-46.01,1.51-68.67-.5,0-1.01-.02-1.51-.03v68.7ZM186.26,330.13c6.5-2.71,10.58-11.28,8.26-17.22-.36-.93-1.78-1.81-2.85-2.04-4.93-1.07-5.12-1.96-2.05-6.2,1.75-2.42,3.17-5.31,3.84-8.2,.33-1.4-1.41-3.28-2.21-4.94-1.55,.9-3.68,1.43-4.53,2.77-3.6,5.68-3.7,11.98-2.77,18.28,2.61,.61,4.76,1.11,7.85,1.83-1.53,1.96-2.23,3.65-3.46,4.29-5.55,2.88-4.26,6.87-2.06,11.43Zm243.73,229.54c4.35-6.58,3.23-11.49-2.06-14.29-1.74-.92-3.45-1.93-5.25-2.72-5-2.18-7.56-5.34-7-11.39,.63-6.87-3.76-9.4-10.05-6.91,1.29,2.57,2.53,5.18,3.87,7.73,2.31,4.41,3.85,9.63,7.24,12.95,4.14,4.06,5.18,7.89,3.8,13.09-.27,1,.09,2.59,.78,3.28,.49,.49,2.7,.28,2.96-.23,.49-.96,.32-2.39,.1-3.57-.32-1.75-1.48-3.52-1.26-5.13,.22-1.54,1.76-2.89,2.72-4.32,1.38,1.31,3.36,2.38,3.99,3.98,.7,1.78,.16,4.03,.16,7.5Zm-43.17-198.25c-1.71-.55-2.81-1.28-3.78-1.14-4,.59-7.94,1.82-11.94,2.05-2.28,.13-5.73-.57-6.66-2.1-.85-1.41,.66-4.61,1.75-6.69,.78-1.48,2.81-2.25,3.87-3.66,.51-.68,.34-2.25-.11-3.1-.27-.5-1.79-.71-2.59-.49-3.77,1.06-7.46,8.78-6.49,13.32,.93,4.35,4.5,6.66,9.68,6.39,2.14-.11,4.28-.02,6.76-.02-4.11,7.32-3.32,11.29,2.25,13.22,.96,.33,2.14,.05,3.21,.05-.03-1.19,.43-2.92-.18-3.49-4.31-3.99-1.44-6.98,1.08-10.12,.98-1.23,1.88-2.52,3.15-4.24Zm-39.8-48.74c-2.08,3.81-6.06,7.77-5.33,10.44,1.62,5.93-.74,9.08-4.14,12.97-1.95,2.23-2.69,5.64-3.5,8.65-.15,.54,1.99,1.71,3.08,2.59,2.11-4.26,8.44-4.76,9.02-10.63,.33-3.32,1.38-6.81,3-9.72,2.95-5.28,2.99-8.21-2.13-14.29Zm-118.87,8.29c.29,.81,.63,2.83,1.66,4.4,1.34,2.06,3.84,2.41,4.28-.31,.76-4.75,4.62-6.37,7.34-9.27,2.69-2.87,5.31-6.17,6.64-9.77,.58-1.58-2.11-4.37-3.32-6.62-1.72,1.72-4.45,3.21-4.94,5.23-.82,3.38-2.49,4.98-5.5,6.09-4.12,1.52-6.15,4.68-6.16,10.25Zm-46.01-65.55c3.31-3.6,5.71-6.56,8.49-9.09,2.04-1.86,4.6-3.14,6.91-4.7,3.38-2.28,1.64-4.77,.26-7.24-1.5-2.69-3.55-3.88-6.49-2.19-6.15,3.54-10.13,8.81-11.7,15.71-.8,3.48,.07,6.51,2.53,7.5Zm27.64,12.09c-3.7-6.84-.51-10.91,3.88-15.04,1.47-1.38,2.51-5.26,1.63-6.56-1.09-1.61-4.49-2.59-6.7-2.31-4.38,.55-8.8,7.49-8.72,12.45,.1,6.06,3,9.72,9.9,11.46Zm162.61,33.79c-9.94,6.78-13.21,14.83-9.72,24.57,1.21,3.38,3.36,5.92,8.27,5.26-3.77-4.29-5.09-8.49-1.3-12.95,1.17-1.37,2.23-2.83,3.37-4.24,4.15-5.13,4.06-7.07-.62-12.64Zm33.12,258.18c5.52-1.39,4.31-4.72,4.05-7.26-.57-5.49-1.28-10.99-2.32-16.41-.41-2.16-1.29-5.14-2.89-5.99-3.6-1.91-7.52-4.69-12.9-1.96,2.25,4.15,3.45,8.79,6.44,11.37,6.17,5.34,11.04,10.63,7.62,20.24Zm-120.26-239.6c.7,4.15,2.12,7.95,1.79,11.6-.63,7.01,2.66,11.95,6.95,16.66,2.58,2.83,5.04,1.58,5.1-1.37,.07-3.54-.88-7.44-2.54-10.57-1.63-3.07-3.07-5.78-3.14-9.43-.09-4.87-3.96-7.42-8.16-6.88Zm-80.63,.82c3.58-1.91,6.84-3.47,9.91-5.33,6.45-3.9,6.7-13.09,.44-18.01-3.18,4.32-6.09,8.87-9.61,12.88-2.98,3.4-3.27,6.48-.74,10.46Zm-64.74-15.74c.42,.21,1.03,.81,1.52,.72,1.7-.32,4.85-1.1,4.82-1.32-.42-2.9-1.29-5.73-2.05-8.58-1.57,.59-3.88,.73-4.57,1.86-2.54,4.16-5.46,4.93-9.96,3.15-1.57-.62-4.01,.95-6.05,1.51,1.32,1.37,2.41,3.37,4.02,4,3.94,1.53,5.85,3.97,5.58,8.21-.07,1.14,.32,2.31,.5,3.47,.58,.1,1.15,.21,1.73,.31,1.43-4.28,2.86-8.56,4.46-13.33ZM270.75,29.07c1.15,2.15,2.3,4.29,3.45,6.44,2.02-1.67,4.67-2.97,5.93-5.1,2.24-3.78,3.89-7.97,5.27-12.17,.52-1.58,.14-4.09-.87-5.3-.62-.74-3.48-.28-4.9,.47-6.08,3.18-8.15,8.67-8.88,15.66Zm-54.64,335.02c-2.28-6.01-.94-10.96,4.11-15.15,4.17-3.47,4.73-6.89,1.79-12.13-8.06,3.43-10.81,11.46-14.42,18.14-2.74,5.07,2.59,10.07,8.51,9.14Zm164.54-15.99c-.47-2.31-.67-3.9-1.12-5.42-1.61-5.47-.63-10.31,3.12-14.65,1.05-1.21,2.1-2.69,2.41-4.21,.56-2.67,1.76-5.74-.97-7.42-2.56,2.69-4.66,5.21-7.08,7.39-7.8,7-6.52,18.93,3.64,24.32Zm-130.65-6.69c-2.55,7.06-8.62,9.27-14.52,12.07-4.52,2.14-6.03,9.61-3.36,13.91,.65,1.05,2.19,1.86,3.45,2.07,.65,.11,2.32-1.41,2.25-2.05-.66-6.22,4.28-8.63,7.62-12.35,3.23-3.59,6.14-7.82,4.56-13.65Zm-147.29,185.45c-3.76-5.51-7.26-5.45-11.34-.82-5.59,6.35-1.18,12.07,.18,18.93,3.74-2.63,8.69-3.59,7.75-8.73-.78-4.22-.53-7.31,3.41-9.38Zm84.26-240.78c-1.53-5.14-.06-8.15,3.88-10.96,6.37-4.56,6.55-9.19,1.73-13.31-3.08,2.43-6.62,4.41-8.96,7.34-1.99,2.49-3.33,6.02-3.64,9.21-.38,3.87,1.2,7.37,6.99,7.72Zm64.44,11.94c-.37,.28-.74,.56-1.11,.84,1.26,2.1,3.61,4.22,3.58,6.3-.1,7.65,5.71,10.3,10.69,13.39,3.56,2.21,6.34,.32,5.98-3.82-.17-2.03-1.32-4.58-2.89-5.76-5.21-3.93-10.81-7.34-16.26-10.95Zm163.02,27.62c-.89-1.07-1.61-2.06-2.46-2.93-4.09-4.21-3.99-4.86,.39-8.37,2.14-1.71,4.36-3.59,5.79-5.87,2.96-4.74,1.23-9.55-2.47-10.75-1.49,2.56-2.41,5.3-4.24,7.08-4.39,4.26-6.92,9.12-6.39,15.27,.48,5.56,3.59,7.47,9.39,5.56Zm-213.96-120.52c-4.11,2.61-7.94,4.96-11.69,7.45-4.41,2.92-5.57,6.95-3.35,11.08,16.6-5.76,20.44-10.52,15.04-18.53Zm-37.56,346.21c.5,.07,1,.14,1.5,.21,.51-2.32,1.64-4.69,1.42-6.94-.57-5.9,1.86-10.39,5.31-14.79,1.57-2.01,2.58-4.53,3.5-6.95,.33-.87-.06-2.86-.58-3.04-1.03-.36-2.97-.25-3.47,.43-1.59,2.18-3.57,4.63-3.79,7.13-.5,5.53-2.65,8.12-8.34,9.44-7.19,1.67-8.81,10.04-3.29,14.65,0-2.27,0-4.39,0-6.51,.01-2.67,.38-4.99,3.95-4.84,3.63,.15,4.91,2.25,4.7,5.51-.13,1.91-.59,3.79-.91,5.69Zm-14.42-430.1c4.44,5.56,11.19,9.65,11.7,18.03,1.55-1.07,3.19-2.28,3.23-3.54,.08-2.69-.09-5.7-1.23-8.05-1.37-2.84-1.14-4.95-.17-7.84,1.09-3.25,.77-6.97,1.07-10.49-.59-.06-1.17-.12-1.76-.18-1.05,2.78-1.42,6.26-3.35,8.15-2,1.96-5.5,2.39-9.5,3.93ZM43.74,598.19v63.72c4.12-21.2,4.08-42.41,0-63.72Zm244.64-302.18c-4.23,8.04-2.36,14.87,4.33,18.35,4.74,2.47,9.36,4.96,7.22,12.33,5.6-4.25,5.65-6.89,2.14-11.11-3.51-4.22-6.49-8.87-9.65-13.37-1.32-1.88-2.51-3.84-4.03-6.2ZM62.61,692.51c1.74-3.26,3.41-5.64,4.3-8.29,.66-1.95,.14-4.26,.43-6.36,.96-7.1-1.5-15.76,8.35-19.06,.15-.05-.19-3.57-.86-3.79-8.53-2.85-10.8-1.09-10.74,8.06,.02,3.78,.43,7.58,.22,11.34-.32,5.6-1.03,11.17-1.7,18.11Zm201.77-334.66c3.89-2.35,4.36-4.19,.94-7.27-2.84-2.55-6.31-4.4-9.5-6.57-.6,.37-1.21,.74-1.81,1.12,1.9,5.72,3.44,11.6,5.91,17.06,.73,1.61,4,2.28,6.24,2.87,.6,.16,2.56-2.16,2.44-2.34-1.12-1.64-2.57-3.06-4.21-4.87Zm134.73-41.2c.55-7.38,.94-13.91,6.12-19.27,2.71-2.8,1.02-7.83-2.38-10.42-10.12,12.51-11.34,20.82-3.74,29.68ZM225.77,35.95c5.22-5.27,5.31-14.78-.08-18.84-1.45-1.09-4.41-1.83-5.68-1.07-1.54,.92-2.79,3.62-2.76,5.53,.03,2.08,1.47,4.27,2.66,6.18,1.7,2.74,3.74,5.27,5.86,8.2Zm-17.25,311.71c.1-10.74,.44-10.34,8.47-17.15,2.26-1.92,1.92-6.94,2.62-10.56,.05-.25-1.48-1.25-1.81-1.06-2.32,1.32-6.5,.31-5.85,5.5,.24,1.96-1.91,4.77-3.72,6.34-6.54,5.69-6.73,10.53,.29,16.92Zm-80.7-51.87c4.24-.26,7.5-1.59,9.53-5.44,1.92-3.64,.25-6.17-2.11-8.8-1.04-1.16-1.28-3-2.13-4.38-.97-1.59-2.22-3.01-3.34-4.5-.85,.7-2.36,1.36-2.41,2.12-.12,1.8,.12,3.79,.83,5.44,.62,1.44,2.58,2.34,3.05,3.78,.58,1.77,.88,4.12,.18,5.73-2.15,4.93-5.01,3.1-8,.49-.84-.73-2.54-.48-3.85-.68,.41,1.41,.41,3.56,1.32,4.07,2.07,1.15,4.58,1.5,6.92,2.17Zm-41.02,224.38c-.89-.38-1.78-.76-2.66-1.14-1.01,1.62-2.35,3.13-2.94,4.9-1.04,3.11-1.5,6.4-2.42,9.55-1.21,4.15-2.78,7.9-8.46,6.65-.89-.2-2.75,.89-2.99,1.72-.27,.92,.53,2.51,1.35,3.33,3.53,3.51,7.58,2.6,9.8-2,.86-1.77,2.02-3.42,2.64-5.26,1.99-5.88,3.8-11.83,5.68-17.75ZM334.86,226.47c-.62-6.72-5.1-8.77-8.93-11.05-1.55-.92-4.03-.28-6.09-.35,.37,2.22,.3,4.65,1.22,6.61,1.08,2.28,2.81,4.4,4.69,6.11,1.37,1.24,3.67,2.62,5.15,2.26,1.73-.42,3.03-2.66,3.96-3.57Zm-173.17,292.81c-5.09,2.05-3.17,15.7-13.73,7.06-3.05,5.65-.93,10.64-.34,16.85,2.19-2.71,3.33-4.56,4.88-5.94,1.69-1.51,3.79-2.54,5.64-3.87,3.38-2.43,5.17-9.31,3.55-14.09Zm-89.01-207.84c3.66,2.02,6.54,.79,8.07-1.73,1.15-1.9,1.81-5.47,.78-7.06-3.54-5.43-7.89-10.32-12.01-15.36-.3-.36-1.14-.27-3.45-.75,2.28,4.79,3.53,8.85,5.92,12.07,3.18,4.28,5.76,8.06,.69,12.82Zm239.27-73.77c5.67,.53,10.15-2.06,11.11-5.93,.9-3.63-2.37-9.31-7.19-11.14-1.86-.7-4.4,.36-6.62,.62,.88,1.68,1.36,3.9,2.73,4.92,3.68,2.75,4.36,5.48,1.27,9.01-.49,.56-.71,1.35-1.29,2.51Zm25.83,301.62c-1.11-4.29-2.18-9.21-3.78-13.95-.33-.98-2.62-1.31-4-1.93-.5,1.7-1.8,3.64-1.38,5.07,2.15,7.32,4.59,14.56,7.31,21.69,.52,1.36,2.74,2.07,4.18,3.07,.24-.42,.48-.85,.72-1.27q-3.81-8.1,3.88-11.77c-2.69-.35-4.23-.54-6.94-.89Zm62.69-211.3c-.57-.23-1.14-.45-1.71-.68-1.49,2.14-2.76,4.48-4.51,6.37-1.99,2.14-4.82,3.57-6.55,5.87-3.66,4.87-2.62,12.83,1.66,14.93,1,.49,2.39,.16,3.61,.21-.26-1.11-.15-2.59-.83-3.28-3.28-3.27-2.55-5.94,.62-8.75,1.7-1.51,3.49-3.2,4.46-5.2,1.45-2.99,2.2-6.31,3.25-9.49Zm-79.05-66.63c3.3-4.67,5.58-9.58,3.49-14.67-.91-2.22-4.51-3.93-7.2-4.59-1.44-.35-4.61,1.7-5.07,3.25-.48,1.62,.83,5,2.28,5.72,4.38,2.14,7.08,4.84,6.49,10.3Zm3.4,20.97c2.52-1.33,4.92-4.81,3.65-8.18-1.3-3.44-4.57-6.44-7.66-8.72-1.1-.81-4.76,.53-6.13,1.97-.73,.77,.51,4.12,1.65,5.76,1.04,1.49,3.39,1.99,4.71,3.37,1.41,1.47,2.29,3.46,3.77,5.8Zm-163.65,410.7c6.9,2.3,12.37-3.13,11.12-9.67-1.35-7.11-12.18-15.38-18.57-15.06,3.24,3.1,7.41,6.33,10.61,10.34,4.12,5.17,2.02,10.07-3.16,14.39Zm162.51-387.64c3.53-3.56,3.18-7.87-1.11-11.37-1.33-1.08-1.81-3.19-2.7-4.82-.87-1.6-1.76-3.19-2.64-4.78-1.54,1.26-3.61,2.24-4.46,3.87-.8,1.52-1.14,4.4-.24,5.5,3.31,4.05,7.22,7.61,11.15,11.6Zm-190.82,44.23c1.36,.22,2.13,.53,2.85,.43,5.03-.66,11.48-7.68,10.38-12.67-.57-2.58-4.14-6.01-6.66-6.29-4.13-.45-2.52,3.55-2.62,6.21-.11,2.77-.96,5.55-1.73,8.25-.37,1.3-1.3,2.43-2.21,4.06Zm196.38-100.2c4.69,1.44,7.64,.32,9.55-3.18,2.29-4.19,.35-7.61-2.36-10.66-2.23-2.5-5.27-3.2-7.84-.94-2.85,2.49-1.78,5.83,.72,7.64,3.38,2.47,3.13,4.43-.05,7.14Zm78.18,442.43c.44,.35,.89,.7,1.33,1.05,1.89-.4,4.89-.23,5.46-1.32,2.05-3.97,3.98-8.25,4.64-12.62,.72-4.74-3.89-6.59-7.39-9.3-1,2.96-1.96,6.22-.79,8.23,2.18,3.76,1.32,6.31-1,9.28-1.04,1.33-1.52,3.1-2.25,4.67ZM178.07,211.05c.98-1.23,1.91-2.51,2.95-3.69,1.19-1.34,2.91-2.39,3.62-3.93,1.02-2.21,1.85-4.76,1.77-7.14-.04-1.37-1.81-3.19-3.23-3.81-.72-.31-2.6,1.4-3.6,2.51-1.4,1.57-2.42,3.47-3.68,5.17-3.36,4.57-2.91,7.06,2.17,10.88Zm161.63,91.61c6.33-5.68,5.77-21.53-.32-26.06-2.62-1.95-5.07-2.13-6.8,1.3,4.24,7.72,11.48,14.42,7.12,24.76Zm-126.89,393.58c-2.48,0-4.62-.51-6.35,.1-4,1.41-7.88,3.22-11.64,5.19-1.38,.72-3.45,2.81-3.18,3.48,.77,1.95,2.24,4.11,4.04,5.03,1.75,.9,4.23,.39,6.66,.51-3.84-10.57,6.91-8.67,10.47-14.31Zm-32.64-141.8c-7.89-.6-12.46,2.31-14.44,10-.33,1.27,.85,4.2,1.38,4.21,2.55,.05,6.44,.25,7.43-1.23,2.53-3.8,3.78-8.45,5.63-12.98Zm-15.6,1.93c-6.25-2.55-12.04,.07-14.21,6.99-.5,1.58,.06,3.5,.13,5.26,2.91-.49,6.82,0,8.51-1.7,2.6-2.61,3.68-6.74,5.57-10.55Zm-7.12-416.18c-3.68,2.93-5.97,6.31-4.01,9.75,2.44,4.27,6.28,7.75,9.55,11.54,.09,.11,.6-.13,1.23-.3,.62-7.71-1.28-14.6-6.77-20.99Zm70.89,389.29c.47,.02,.93,.04,1.4,.07-1.24-15.79-2.47-31.58-3.71-47.37-4.11,16.04-1.42,31.7,2.31,47.3Zm-30.65,166.42c-1.93-.22-3.88-.94-5.57-.54-3.15,.74-6.15,2.14-9.21,3.25-3.34,1.22-4.78,3.15-2.89,6.72,2.16,4.08,4.6,4.93,8.42,2.68-3.28-8.81,6.73-6.78,9.25-12.12ZM236.8,108.81c-9.28-4.09-10.74-5.47-12.55-9.79-.66-1.57-2.12-3.12-3.62-3.88-.71-.36-3.17,.94-3.43,1.87-.46,1.65-.4,3.92,.44,5.36,3.88,6.69,10.48,8.88,19.16,6.44Zm25.1,605.45c-7.95,0-14.33-.1-20.71,.04-3.39,.07-4.77,2.16-4.58,6.34,4.28-.55,8.26-1.06,12.86-1.66,.7,.98,4.62,2.31,7.65,.93,1.68-.77,2.67-3.06,4.77-5.65Zm10.16-356.15c5.57-.4,9.08-3.26,9.17-7.43,.09-4.35-2.91-8.1-6.99-8.82-2.26-.4-3.36,.1-3.08,2.78,.47,4.34,.6,8.72,.9,13.47Zm177.48-224.2c3.11,2.82,6.51,2.37,8.98,.19,2.76-2.44,4.8-5.78,6.77-8.97,.32-.52-1.08-2.67-2.14-3.28-.75-.44-2.65,.06-3.36,.8-3.49,3.58-6.75,7.38-10.25,11.27Zm-182.91-34.45c0,.57,0,1.13,0,1.7,1.97,.59,4.04,1.9,5.88,1.63,6.2-.88,10.5-9.49,7.62-15.09-.58-1.12-2.53-2.08-3.85-2.08-.79,0-2.47,2.29-2.23,3.06,2.13,6.69-1.53,9.39-7.43,10.78Zm-99.31,211.72c3.65-4.97,6.78-9.02,9.62-13.27,.64-.96,.83-3.19,.21-3.79-.84-.82-2.79-1.12-4.03-.79-5.89,1.58-9.33,10.21-5.8,17.85Zm188.02-63.88c2.82-3.66,5.65-6.67,7.63-10.16,.98-1.73,.68-4.39,.34-6.54-.12-.74-2.34-1.93-3.18-1.66-5.12,1.69-8.32,12.63-4.79,18.35Zm-190.73,43.62c2.51-7.46,13.34-10.82,7.36-20.73-7.41,3.79-10.85,12.66-7.36,20.73Zm171.98-36.26c-2.7,2.13-4.82,3.09-5.64,4.71-.51,1.01,.87,3.06,1.59,4.55,.62,1.29,1.27,2.76,2.33,3.59,1.11,.87,3.79,1.76,3.98,1.48,1.49-2.31,3.76-5.09,3.41-7.35-.37-2.37-3.38-4.33-5.68-6.98Zm20.42,71.9c-2.06,4.22-4.45,8.31-6.11,12.68-2.43,6.39-.37,10.04,7.32,12.91-4.75-5.15-3.8-10.7-1.11-14.99,2.34-3.74,2.79-6.62-.1-10.6ZM143.05,79.81c.14-.83,.28-1.66,.43-2.48-4.07-1.78-8.04-3.88-12.25-5.18-1.62-.5-5.26,.51-5.47,1.41-.65,2.81,.41,5.88,3.93,6.16,4.43,.36,8.9,.09,13.36,.09Zm22.57,159.52c4.58-3.36,7.89-5.47,10.77-8.06,1.05-.95,1.74-3.23,1.37-4.56-.31-1.14-3.13-2.81-3.54-2.5-3.05,2.28-6.18,4.7-8.41,7.72-1.06,1.43-.18,4.29-.18,7.41Zm10.86,72.6c-2.42,3.72-4.84,6.78-6.42,10.22-.58,1.27,.39,3.8,1.46,5.07,.64,.75,3.18,.7,4.32,.05,4.35-2.47,5.08-10.5,.63-15.34Zm-68.4,46.05c-.12-.98,.19-3.26-.74-4.78-.96-1.57-3.12-2.41-4.76-3.57-.19,1.69-1.08,3.76-.42,4.99,1.75,3.28,2.01,5.68-1.56,7.82-.84,.5-1.62,2.43-1.28,3.21,.38,.87,2.02,1.55,3.17,1.66,3.99,.36,5.89-2.58,5.58-9.33Zm89.1,365.49c.81,3.11,.89,6.37,2.46,8.54,1.16,1.6,4.24,2.16,6.53,2.37,.63,.06,2.18-2.86,2.17-4.4-.05-5.89-2.9-7.61-11.17-6.51Zm101.28,6.18c.31-3.66-.35-6.67-5.07-6.25-2.31,.21-5.14-.29-4.98,3.63,.19,4.65,2.59,8.04,5.89,8.14,4.05,.12,4.49-2.36,4.16-5.52Zm52.87-170.86c2.5,3.15,5.59,5.84,7.08,9.24,1.67,3.8,3.59,4.51,7,3.23,.33-8.95-5.33-14.05-14.09-12.46Zm-76.4,166.86c.88,8.64,2.42,10.39,8.14,9.53,4.81-.73,2.66-4.25,2.27-6.52-.79-4.66-3.63-5.4-10.41-3Zm36.01-1.85c2.03,10.43,3.3,12.09,7.76,11.11,4.75-1.05,4.09-5.19,3.28-7.86-1.91-6.27-7.05-1.31-11.04-3.24Zm-227.65-164.81c4.67,.74,7.16-1.35,8.47-4.88,1.13-3.03,.7-6.26-2.41-7.71-2.41-1.12-5.43-1.53-8.04-1.19-.75,.1-1,3.93-1.48,6.06,.46,.1,.91,.2,1.37,.3,.73-1.44,1.46-2.88,2.29-4.52,6.76,4.11,1.09,7.72-.2,11.94Zm81.93-293.98c.68,.19,1.35,.38,2.03,.57,1.8-4.83,3.73-9.62,5.26-14.54,.3-.96-.99-2.41-1.55-3.64-1.24,.64-2.95,.96-3.64,1.98-3.26,4.82-4.34,10.06-2.1,15.62Zm150.78,54.62c.14,.14,.29,.28,.43,.42,1.74,1.05,3.48,2.1,5.21,3.14,.75-2.13,2.47-4.53,1.97-6.3-.51-1.82-2.99-3.52-5-4.36-1.86-.78-4.29-.68-6.34-.29-.63,.12-1.59,3.04-1.1,3.67,1.2,1.55,3.16,2.52,4.82,3.72Zm-92.65,234.41c-1.37-2.86-3.08-5.33-3.63-8.04-.3-1.5,1.04-3.68,2.25-4.97,.56-.59,3.26-.24,3.84,.54,.93,1.24,1.17,3.19,1.19,4.85,.03,1.81-.53,3.63-.83,5.45,.63,.13,1.26,.26,1.89,.39,4.11-2.47,.77-6.9,.9-10.1,.16-3.65-3.06-5.97-6.77-5.53-5.18,.62-5.24,5.02-4.75,8.76,.46,3.49-.84,8.81,5.91,8.64Zm.89,171.23c-8.52-1.52-9.81-.69-10.58,5.86-.43,3.63,1.47,4.14,4.33,4.15,5.03,.02,6.58-2.3,6.26-10.01Zm38.29-1.21c-.54,.71-1.08,1.43-1.61,2.14,1.44,2.61,2.35,5.87,4.5,7.59,1.36,1.09,5.74,.74,6.63-.5,1.24-1.73,1.38-6.64,.42-7.13-2.91-1.49-6.57-1.51-9.94-2.1Zm48.09-375.97c6.33-3.26,8.64-9.79,6.56-15.41-.94-2.54-2.28-5.29-5.57-4.09-3.69,1.35-2.13,4.3-.92,6.55,2.1,3.88,3.63,7.67-.08,12.95Zm-134.96,360.12c-.32-2.76-1.34-5.19-.57-6.69,.85-1.65,3.35-2.46,5.14-3.63l-.59-1.72c-2.96,.65-5.99,1.08-8.87,2-3.72,1.19-5.33,3.63-3.27,7.49,2,3.74,4.81,4.51,8.17,2.56Zm15.5,25.69c.51-.46,2.54-1.42,2.83-2.74,.73-3.44-2.67-8.83-5.37-8.69-1.6,.08-4.28,1.48-4.47,2.62-.96,5.69,1.26,8.71,7.02,8.81Zm109.49-8.51c.15,8.14,1.42,10.38,5.41,9.94,1.44-.16,3.86-1.86,3.86-2.86,0-6.89-1.79-9.7-5.63-9.29-1.51,.16-2.87,1.71-3.64,2.2Zm-167.08-168.89c-6.34-.46-10.45,2.58-12.17,9.07-.3,1.15,.26,3.63,.6,3.66,1.8,.17,4.67,.42,5.32-.57,2.42-3.69,4.11-7.85,6.25-12.17Zm46.47,11.09c2.34-.42,5.56-.04,6.54-1.35,2.53-3.38,4.08-7.5,5.95-11.19-8-1.19-12.39,2.67-12.49,12.55Zm185.03-7.87c1.69,2.98,3.74,5.34,4.41,8.03,1.22,4.94,3.95,4.77,7.58,3.48-.16-9.23-4.03-13.14-11.99-11.51Zm-42.29,9.85c-1.94-9.39-7.16-13.55-13.19-11.78,2.05,3.7,4.17,7.52,6.53,11.78h6.66Zm-21.55-352.47c5.83,.47,10.07-3.55,8.06-8.37-.73-1.74-3.81-2.49-5.82-3.69-.92,1.74-2.29,3.4-2.62,5.25-.37,2.05,.2,4.27,.39,6.81ZM121.82,558.15c-6.65-2-13.09,1.42-13.63,7.24-.13,1.4,1.48,3.88,2.79,4.31,2.3,.75,5.1,.59,4.48-3.46-.48-3.16,.86-5.36,4.03-6.38,.78-.25,1.41-1.01,2.32-1.71Zm123.78-183.45c.57,.89,1.19,2.84,2.48,3.5,.71,.36,3.11-1.14,3.72-2.33,1.39-2.74,2.45-5.74,3-8.76,.2-1.07-1.23-3.02-2.39-3.58-.86-.42-3.25,.41-3.64,1.28-1.29,2.86-1.98,6-3.17,9.89Zm145.87,198.61c-4.58-10.65-8.12-13.71-14.61-12.32,5.12,3.96,3.95,14.14,14.61,12.32Zm-63.93,161.44c4.61,.19,7.62-.57,8.2-4.44,.28-1.89-.1-5.48-.82-5.65-2.57-.62-5.41-.11-8.14-.02,.25,3.29,.5,6.58,.77,10.11Zm-184.47-167.05c.72-1.95,1.15-3.92,2.12-5.57,1-1.7,2.52-3.1,3.88-4.71-7.11-2.38-13.44,2.6-13.28,10.28h7.27Zm49.68-215.47c-2.76-4.85-1.13-8.96,1.49-12.95,.72-1.1,1.59-2.2,1.89-3.43,.21-.87-.43-1.95-.69-2.93-.91,.43-1.99,.69-2.71,1.34-1.35,1.22-2.33,2.89-3.76,3.97-3.67,2.77-2.74,6.45-1.95,9.88,.57,2.44,1.75,5.09,5.73,4.12Zm103.64,204.57c2.07,2.85,4.59,5.04,5.43,7.75,1.71,5.52,2.19,6.13,8.27,4.6-1.58-8.37-6.61-13.07-13.7-12.35Zm40.06,.91c2.07,2.84,4.46,4.84,5.14,7.31,1.61,5.87,5.19,4.52,9.08,3.57-1.31-6.66-7.48-11.7-14.22-10.88Zm9.13,153.59c2.25,.93,4.98-.23,6.34-3.55,.48-1.17-.25-3.47-1.22-4.47-2.9-2.97-6.41-4.5-10.26-3.22,1.78,3.89,3.23,7.07,5.14,11.24Zm-266.31-70.78c-6.2-.61-8.77,.86-10.93,7.11-.42,1.21,.26,2.8,.44,4.22,2.24-.47,5.49-.21,6.49-1.58,1.97-2.69,2.68-6.29,4-9.74Zm230.68,69.25c-.14,.65-.28,1.31-.42,1.96,2.52-.75,5.58-.89,7.35-2.48,.98-.88,.52-4.69-.59-6.28-2.35-3.35-5.92-3.68-8.82-2.41,.92,3.44,1.7,6.33,2.47,9.22Zm-89.38-10.49c-5.26-1.34-12.5,1.52-14.49,4.84-1.36,2.26,.95,6.46,3.75,6.49,1.69,.02,3.39-.57,5.49-.97-2.61-5.28-1.57-8.73,5.25-10.37Zm102.59-141.68c1.71,2.71,3.68,4.95,4.63,7.56,1.75,4.81,3.37,5.61,8.57,3.15-2.3-7.62-6.65-11.13-13.19-10.71ZM69.55,184.09c-9.18-2.78-22.76,5.24-24.29,14.77,4.12-3.38,7.36-6.68,11.18-9,3.88-2.35,8.35-3.73,13.1-5.77Zm282.57,81.94c.84-4.73,1.79-9.19,2.35-13.7,.15-1.21-.75-2.64-1.45-3.79-.13-.21-1.86,.16-2.48,.7-4.29,3.71-3.4,13.43,1.58,16.79Zm-195.78,429.2c-4.89-1.97-7.69,.18-9.24,3.3-.87,1.73-.79,5.32,.38,6.37,1.76,1.57,4.85,1.64,7.38,2.35,.23-.51,.46-1.02,.69-1.52-1.13-2.21-2.26-4.43-3.37-6.61,1.36-1.27,2.5-2.33,4.16-3.88Zm127.43,3.81c1.48,3.3,2.55,5.85,3.76,8.32,.62,1.27,1.28,3.17,2.29,3.45,1.5,.42,3.94,.21,4.84-.77,.8-.88,.68-3.61-.13-4.75-1.57-2.23-3.72-4.2-6-5.71-1.22-.8-3.23-.4-4.75-.54Zm105.55-136.61c1.54,1.32,2.9,2.29,4.01,3.49,1.34,1.44,2.45,3.09,3.71,4.6,.98,1.18,2.05,2.3,3.08,3.44,.88-1.73,2.66-3.57,2.47-5.16-.72-5.81-6.49-8.66-13.27-6.37Zm-150.03,141.23c1.3,7.96,4.1,9.63,11.96,7.42,.89-8.32,.3-5.85-11.96-7.42Zm-7.68,21.17c-3.23-.22-5.52,.36-5.24,4.13,.21,2.88,.31,5.69,4.41,5.51,3.16-.14,5.84-.44,5.88-4.68,.04-3.82-1.58-5.42-5.05-4.96Zm4.74-22.94c-2.41,.42-5.16,.89-7.9,1.37,.47,2.43,.16,5.68,1.62,7.06,1.63,1.54,4.86,1.37,7.53,1.98-.48-4.03-.79-6.63-1.25-10.41Zm-59.42-352.62c1.1-3.71,2.56-7.06,2.93-10.52,.2-1.88-1.45-3.95-2.27-5.94-.96,1.33-1.99,2.63-2.85,4.02-.41,.66-.4,1.58-.78,2.27-2.45,4.4-1.59,7.47,2.98,10.16Zm164.1,374.24v10.91c2.81-.18,5.17-.33,7.45-.48,.66-9.57-.42-11.05-7.45-10.43ZM147.94,74.98q4.83,7.98,13.93,12.69c-1.79-8.26-6.14-12.35-13.93-12.69Zm130.27,636.74c1.81-.88,3.99-1.94,6.17-2.99-1.42-2.45-2.38-5.44-4.41-7.17-1.45-1.23-4.33-.77-6.95-1.12,1.9,4.13,3.26,7.08,5.2,11.28Zm64.42-200.29c.53-.24,1.07-.48,1.6-.72-2.48-8.53-4.96-17.06-7.45-25.59l-1.24,.39c.79,5.8,2.13,11.59,2.21,17.4,.06,4.28,1.66,6.66,4.88,8.51Zm-177.03,222.18c-.56-3.27-.7-6.27-1.69-8.94-.43-1.15-2.57-1.99-4.07-2.28-.76-.15-2.38,1.08-2.64,1.98-1.54,5.24,2.06,9.5,8.4,9.24Zm15.27-1.17c-1.27-2.8-2.28-5.71-3.88-8.24-.65-1.02-2.68-1.74-3.94-1.58-.89,.12-2.1,1.91-2.22,3.05-.73,6.8,2.36,8.92,10.05,6.77Zm69.07-6.39c-.58-.64-1.17-1.27-1.75-1.91-2.38,.51-5.78,.25-6.86,1.72-1.25,1.7-.7,4.94-.3,7.41,.08,.46,4.06,1.21,4.64,.51,1.83-2.24,2.9-5.1,4.27-7.72Zm-110.53-414.5c1.43,3.12,2.81,5.11,3.22,7.28,.44,2.33-.18,4.83,0,7.24,.05,.63,1.33,1.65,2.04,1.64,.94,0,2.24-.6,2.75-1.37,2.79-4.21-1.25-13.16-8.01-14.79Zm66.27,242.77c-6.8-.09-10.99,3.61-11.79,12.21,2.67-1.04,5.5-1.29,6.74-2.82,2.19-2.72,3.42-6.22,5.05-9.39Zm-94.34,143.42c3.62,6.73,6.15,7.96,10.49,5.67-.82-1.32-1.64-2.64-2.56-4.1,2.01-1.44,3.78-2.7,5.55-3.97l-.6-1.51c-4.22,1.28-8.44,2.57-12.89,3.92Zm147.19,36.18c1.42-7.25,.75-9.35-3.1-9.5-2.15-.08-4.72-.57-4.77,3.11-.08,5.15,1.73,6.79,7.87,6.39Zm61.66-23.02c4.43-.12,8.42,2.31,8.7-2.88,.1-1.87-1.89-4.31-3.57-5.7-1.76-1.46-4.3-1.97-6.5-2.89,.83,4.44,6.7,5.98,1.37,11.47Zm-212.81-152.67c-5.66-.78-7.79,.89-8.78,7.4-.2,1.31,.67,2.78,1.05,4.18,1.68-.93,4.08-1.46,4.87-2.89,1.45-2.62,1.95-5.76,2.85-8.69Zm59.65-230.23c-2.87-3.38-5.07-5.97-7.27-8.56-1.08,1.2-3.29,3.11-3.06,3.49,1.72,2.74,3.87,5.22,6.1,7.58,.18,.19,1.99-1.16,4.23-2.5Zm88.51,375.51c-.47,.6-.93,1.2-1.4,1.81,.94,1.97,1.42,4.99,2.92,5.63,1.83,.78,4.77,.02,6.68-1.04,.73-.4,.49-4.86-.24-5.15-2.43-.98-5.28-.91-7.97-1.24Zm-29.38,7.28c-.06-.57-.12-1.14-.19-1.7,.22-2.84,.45-5.68,.7-8.88-3.47-2.55-5.21,1.29-6.91,3.32-.98,1.17-1.08,4.73-.18,5.45,1.64,1.3,4.33,1.28,6.58,1.81Zm91.6-510.24c.88,2.86,1.33,5.5,2.53,7.74,.55,1.02,2.56,1.26,3.91,1.85,.47-1.38,1.53-2.86,1.3-4.11-.4-2.19-1.42-4.34-2.53-6.3-.6-1.06-1.93-1.71-2.93-2.54-.76,1.12-1.52,2.24-2.29,3.37ZM68.54,560.62c.08,.06,.95,1.26,1.92,1.36,1.71,.17,4.65,.18,5.02-.66,1.22-2.77,1.78-5.93,2.02-8.98,.06-.84-1.9-1.83-2.93-2.75-.55,1.08-1.08,2.19-1.66,3.25-1.22,2.21-2.47,4.4-4.37,7.78Zm255.72-212.66c.72-.1,1.45-.19,2.17-.29,1.21-2.93,2.69-5.79,3.41-8.83,.16-.7-2.31-2.02-3.57-3.05-1.35,2.15-3.32,4.15-3.85,6.49-.38,1.67,1.16,3.78,1.84,5.69Zm-162.06,131.32c-7.44,7.93-6.14,16.76-5,25.57,1.61-8.21,3.21-16.41,5-25.57Zm170.55-150.68c2.95-.07,4.43-2.96,3.44-5.84-1-2.92-3.73-5.26-5.7-7.85-.61,1.12-1.95,2.45-1.7,3.32,.97,3.35,2.45,6.56,3.96,10.37Zm-176.49-89.15c4.89-2.1,7.43-6.85,6.01-10.2-.44-1.03-2.1-2.02-3.27-2.11-.85-.07-2.53,1.3-2.61,2.15-.32,3.12-.13,6.29-.13,10.16Zm144.33,472.45c.99-.71,3.72-1.64,4.09-3.14,1.07-4.4-4.65-9.43-9.27-8.84,1.5,3.46,3.02,6.97,5.19,11.97Zm-219.47-140.41c.05-.6,.11-1.2,.16-1.81,1.55-2.5,3.1-5,5.16-8.33-1.83,0-4.52-.81-5.72,.18-2.05,1.69-3.16,4.52-4.67,6.87,1.69,1.03,3.37,2.06,5.06,3.09Zm126.43-5.27c3.31-3.75,6.27-7.11,9.43-10.7-4.4-3.19-6.77-.08-8.92,2.34-1.97,2.22-4.18,4.88-.51,8.36Zm122.44-271.18c.81,2.05,1.67,3.64,2.05,5.34,.39,1.74,.1,3.64,.51,5.37,.26,1.1,1.27,2.03,1.94,3.03,1-.92,2.52-1.66,2.92-2.79,1.54-4.34-2.21-10.04-7.42-10.95Zm-194.16,400.53c-.2-.57-.4-1.13-.61-1.7-2.18,.96-4.55,1.63-6.49,2.95-1.8,1.22-4.81,2.42-2.5,5.66,1.86,2.62,4.04,4.11,7.43,1.91-.76-1.89-1.45-3.63-2.17-5.43,.83-.67,1.44-1.19,2.07-1.68,.75-.58,1.51-1.13,2.26-1.7Zm6.94,26.8c.65,3.62,.94,6.67,1.86,9.51,.29,.91,2.27,1.79,3.43,1.73,.85-.04,2.09-1.52,2.34-2.56,.86-3.58-2.47-7.75-7.63-8.69Zm220.93,1.06l-1.91,.81c-.7,2.96-1.4,5.93-2.16,9.17,5.01,.62,8.14-1.05,8.53-5.15,.14-1.46-2.88-3.22-4.45-4.84Zm-13.38-186.25c-.34,.19-.68,.38-1.02,.57,.71,4.91,1.42,9.83,2.15,14.89,4.68,.94,6.03-.18,4.33-4.77-1.38-3.73-3.61-7.14-5.47-10.7Zm-184.23,159.51c-3.39-2.48-5.71,0-7.57,1.95-1.02,1.07-1.52,3.58-1,4.96,1,2.63,2.94,4.83,6.44,3.44q-2.14-7.05,2.12-10.35Zm-77.93-128.15c7.39,1.66,6.49,.86,8.38-9.25-5.01,.13-7.66,2.98-8.38,9.25Zm315.72-5c1.38,1.23,3.13,2.25,4.06,3.76,1.06,1.73,1.26,3.98,2.16,5.84,.25,.53,1.98,.96,2.45,.63,.77-.55,1.45-1.75,1.5-2.71,.27-4.6-3.41-7.79-10.17-7.52ZM128.39,350.19c-.61,.16-1.22,.31-1.83,.47-1.77,3.16-3.53,6.31-5.39,9.63,3.39,.95,7.03,1.32,8.37-2.48,.76-2.14-.7-5.06-1.15-7.63Zm14.47,356.13c.38-4.56,.64-7.69,.99-11.86-2.3,1.8-4.84,3.45-6.83,5.59-.49,.53,.39,3.11,1.34,4.02,1.23,1.18,3.16,1.62,4.51,2.25Zm9.83-397.69c.87,.02,1.74,.04,2.61,.06,.72-2.85,1.67-5.68,2.02-8.58,.12-1.03-1.22-2.24-1.89-3.37-1.35,.92-3.8,1.79-3.84,2.77-.13,3.02,.67,6.08,1.1,9.12Zm114.94,403.39c2.19-.95,5.57-1.44,5.98-2.83,.56-1.86-.75-4.71-2.1-6.52-.61-.82-3.23-.14-4.8-.14,.31,3.27,.55,5.76,.91,9.49Zm96.8-11.07c1.73,3.47,3.35,6.72,5.13,10.29,4-1.79,3.2-4.7,2.33-7.49-1.14-3.65-3.71-4.11-7.46-2.8ZM155.34,271.84l2.46,.1c.4-3.44,.98-6.87,1.07-10.32,.02-.82-1.63-1.68-2.51-2.53-.72,.94-2.06,1.9-2.04,2.82,.09,3.31,.64,6.62,1.02,9.92Zm178.87,439.86c1.39-.56,3.78-.77,4.47-1.96,1.64-2.83-4.38-9.26-7.58-8.81,.9,3.13,1.82,6.3,3.11,10.77ZM165.21,219.23c5.18-2.96,5.66-7.37,1.2-10.83-4.05,3.74-4.35,6.47-1.2,10.83Zm-32.71,514.17l2.21-.62c.26-2.55,.8-5.11,.65-7.63-.06-.96-1.7-2.54-2.6-2.53-1.01,.01-2.97,1.69-2.85,2.33,.54,2.88,1.67,5.65,2.59,8.46Zm138.08-18.74c-8.5-.81-8.67-.71-9.26,5.33,4.24,.41,8.73,1.45,9.26-5.33Zm104.69-14.07c1.03,3.5,.33,7.64,4.99,8.47,.5,.09,2.13-2.31,2.03-3.45-.31-3.64-1.53-6.81-7.02-5.02Zm-100.83-377.49c1.24,2.93,2.21,5.49,3.44,7.92,.36,.71,1.53,1.49,2.24,1.42,.63-.07,1.42-1.19,1.67-1.99,1.44-4.66-1.59-7.88-7.35-7.34Zm84.86,388.2c1.79,.25,2.65-1.26,2.18-4.12-.89-5.38-3.97-7.87-8.17-7.09,1.78,3.33,3.65,6.81,6,11.21Zm-6.22-344.73c1.68-2.96,5.16-5.06,1.71-8.23-.92-.84-4.27-.73-4.9,.12-2.45,3.32,.05,5.53,3.19,8.11Zm-118.11,348.33c-7.9-1.62-9.84-.69-9.6,4.61,3.87-.08,8.29,1.16,9.6-4.61Zm-78.39-428.9c2.59-3.29,1.13-6.05-1.03-8.36-.33-.36-3.71,.94-4.02,1.97-1.24,4.09,2.02,5.17,5.05,6.39Zm187.54,59.03c-1.4,2.19-3.18,3.93-2.83,4.63,.97,1.96,2.75,3.57,4.42,5.08,.12,.11,2.94-2.09,2.78-2.45-.99-2.24-2.48-4.26-4.37-7.25Zm58.83,347.24c1.34-3.69,2.61-6.89,3.64-10.17,.29-.94-.08-2.08-.15-3.13-1.14,.33-2.79,.29-3.34,1.05-2.92,3.98-2.22,8.08-.14,12.25ZM36.82,627.5c.21,4.45,.41,8.84,.61,13.2,5.54-3.91,5.33-9.65-.61-13.2Zm320.82-49.21c-2.68-1.66-4.13-3.25-5.54-3.22-1.1,.02-3.21,2.3-3.01,3.14,.36,1.55,1.91,3.58,3.3,3.89,1.08,.24,2.67-1.83,5.26-3.81Zm102.18,57.05c5.32-5.34,5.05-10.23-.39-13.58,0,2.82-.04,5.4,.01,7.98,.03,1.58,.21,3.17,.38,5.6Zm-248.46,80.3c-6.22-2.23-8.69-1.38-10.35,3.47,3.83,.22,7.86,1.62,10.35-3.47Zm11.96-.25c-7-2.09-9.34-1.11-9.96,4.05,3.77,0,7.91,1.35,9.96-4.05Zm158.22,6.49c-.45,.26-.91,.52-1.36,.78-1.17,3.34-2.34,6.68-3.64,10.36,3.95-.37,6.3-2.48,6.84-5.87,.26-1.62-1.17-3.5-1.84-5.26ZM166.69,338.71l-2.69,.21c0,2.47-.46,5.07,.17,7.38,.38,1.42,2.41,2.39,3.71,3.57l1.04-1.17c-.74-3.33-1.49-6.66-2.23-9.99Zm-76.48,363.54c.46-3.17,.78-5.45,1.33-9.26-2.38,1.44-4.35,2.19-5.62,3.59-.7,.77-.82,3.26-.18,3.83,1.22,1.09,3.17,1.36,4.47,1.85Zm-17.55-6.29c3.1,2.59,5.18,4.32,7.26,6.06,.37-.39,.73-.79,1.1-1.18-.72-1.12-1.44-2.25-2.11-3.29,1.14-1.47,2.1-2.71,3.06-3.94-.25-.43-.49-.87-.74-1.3-2.4,1.02-4.8,2.05-8.58,3.66Zm47.77,37.32c-.27-3.81-.48-6.7-.68-9.6-1.29,.3-3.52,.33-3.71,.95-.93,3.16-.96,6.33,4.39,8.65Zm-9.7-38.98c-3.36,.5-6.19,.92-9.03,1.34-.08,.55-.16,1.1-.25,1.66,1.91,1.55,3.82,3.1,5.19,4.21,1.53-2.69,2.51-4.42,4.09-7.2Zm223.98-176.83l.7,1.83c3.53-1.41,7.05-2.83,10.58-4.24-.21-.51-.42-1.02-.63-1.54-4.19-.38-8.4-.79-10.64,3.95Zm-51.35,198.02c-.31,.58-.62,1.15-.93,1.73,1.46,.85,2.9,2.32,4.4,2.39,1.52,.07,3.1-1.24,4.66-1.94-1.45-.8-2.81-1.86-4.36-2.33-1.14-.35-2.5,.07-3.77,.15Zm14.72-1.34c-1.7,1.37-2.84,2.3-3.99,3.23,1.37,.82,2.71,2.23,4.12,2.29,1.41,.07,2.88-1.21,4.33-1.89-1.29-1.05-2.58-2.1-4.45-3.63ZM51.97,165.09c-6.02-.92-10.05,1.96-9.73,6.73,3.55-2.45,6.64-4.59,9.73-6.73Zm223.65,555.63c2.08-1.42,3.53-2.4,4.97-3.38-1.51-.77-2.99-2.06-4.53-2.14-1.36-.07-2.8,1.21-4.2,1.9,1.12,1.08,2.24,2.15,3.76,3.63Zm150.62-154.05c1.77,3.33,3.08,5.81,4.4,8.29,.79-.85,2.19-1.66,2.25-2.55,.23-3.36-1.28-5.57-6.65-5.74ZM156.89,243.07c-.89,3.49-1.51,5.88-2.12,8.28,1,.04,2.41,.51,2.92,.03,2.12-1.98,3.53-4.28-.8-8.31Zm111.99,130.1c3.93-.68,5.33-2.98,4.98-6.35-.09-.89-1.18-1.68-1.81-2.52-.75,.72-1.91,1.33-2.15,2.19-.55,1.98-.66,4.09-1.02,6.67Zm-197.27,190.95c-5.12-.85-4.47,3.01-4.62,5.6-.05,.8,2.17,1.74,3.77,2.93,.36-3.62,.59-5.94,.85-8.53Zm214.45-5.57c4.03,2.21,7.55,4.15,11.08,6.09-1.11-5.36-4.88-7.63-11.08-6.09Zm-28-176.28c.73,.48,1.45,.96,2.18,1.44,1.48-1.94,2.95-3.87,4.43-5.81-1.01-.66-2.02-1.32-3.02-1.99-1.19,2.12-2.39,4.23-3.58,6.35Zm128.9,326.82c3.63-4.95,2.47-8.55-3.01-9.72,1.01,3.24,1.87,6.03,3.01,9.72Zm-41.67-175.37c3.97-3.99,3.34-9.51-.64-13.19,.19,3.95,.41,8.31,.64,13.19Zm-203.35-249.32c.84-.24,1.67-.48,2.51-.72-.46-2.23-.93-4.46-1.39-6.69l-3.41,1.12c.76,2.09,1.53,4.19,2.29,6.28Zm252.73,422.7c.46,.17,.92,.33,1.39,.5,.68-1.24,2.16-2.72,1.88-3.67-.68-2.27-1.45-5.25-5.72-4.29,.88,2.67,1.66,5.07,2.45,7.47ZM30.84,173.74c1.62-2.85,3.24-5.69,4.99-8.77-4.66-.24-5.7,1.4-4.99,8.77ZM97.43,703.16c1.17-4.06,1.74-6.04,2.79-9.7-2.79,1.58-5.73,2.37-5.92,3.58-.24,1.59,1.68,3.52,3.12,6.12Zm320.57-136.78c1.02,2.05,1.98,4.22,3.18,6.26,.38,.64,1.39,1.16,2.15,1.22,.36,.03,1.11-1.14,1.17-1.81,.29-3.1-3.06-5.85-6.5-5.67Zm-72.88-23.15c-.96,.17-1.91,.35-2.87,.52,.73,3.09,1.46,6.17,2.19,9.26,.76-.15,1.52-.3,2.28-.45-.53-3.11-1.07-6.22-1.6-9.34Zm-162.97,173.5c-.34-.7-.68-1.39-1.02-2.09-2.57,.27-6.05-1.1-6.29,5.27,2.92-1.27,5.12-2.23,7.31-3.19Zm221.75-11.38c1.18-.97,2.11-1.74,3.74-3.08-2.7-1.82-4.88-3.29-7.06-4.76l-.97,1.34c1.33,2.01,2.65,4.02,4.29,6.5Zm-203.77,11.37c-.36-.7-.72-1.4-1.07-2.1-2.78,0-6.01-.79-6.3,5.44,2.98-1.35,5.18-2.34,7.38-3.33Zm116.3-203.72c-.95,6.55,.25,8.09,5.8,8.16-1.86-2.61-3.6-5.07-5.8-8.16ZM46.07,120.14c.15-.71,.31-1.42,.46-2.13-2.22-2.86-5.13-2.28-8.44,.19,2.66,.65,5.32,1.3,7.97,1.95Zm397.82,48.61c2.68,1.96,5.37,3.93,9.04,6.62-1.88-5.22-4.16-7.82-9.04-6.62Zm-395.8-9.01c-.43-.53-.86-1.07-1.29-1.6-2.91,2.35-5.83,4.7-8.74,7.05,.48,.59,.96,1.19,1.43,1.78,2.87-2.41,5.73-4.82,8.6-7.23Zm261.33,186.23c-1.81-1.91-3.02-3.19-4.24-4.47-.6,1.15-1.85,2.46-1.63,3.42,.29,1.28,1.63,2.44,2.77,3.32,.22,.17,1.59-1.15,3.09-2.27Zm-152.97,167.43l-1.51-.2c-2.58,2.88-2.54,5.88-.94,8.95,.57,.04,1.13,.07,1.7,.11l.75-8.85Zm150.4,207.15c1.55-1.28,2.55-2.1,3.55-2.92-.98-.75-1.94-2.05-2.96-2.1-.95-.05-1.97,1.22-2.96,1.91,.67,.89,1.35,1.77,2.36,3.11Zm-115.68-3.54c-.24-.52-.48-1.03-.71-1.55-5.41-.89-5.6-.79-6.31,4.54,2.72-1.16,4.87-2.08,7.02-2.99Z"/>
  <path class="cls-1" d="M169.71,826c-12.45,4.3-18.82,2.3-25.75-8.05-1.98-2.95-3.99-4.44-7.56-4-2.27,.28-4.61-.02-6.91,.08-4.34,.18-8.24,1.36-9.99,5.84-1.86,4.78-.77,9.08,2.84,12.67,1.87,1.85,4.04,3.41,5.86,5.3,1.13,1.18,1.85,2.74,3.29,4.95-1.75-.14-2.46,.01-2.9-.27-7.45-4.76-12.94-11.35-15.82-19.58-2.92-8.37,2.27-15.21,11.19-15.53,6.08-.22,12.18,.06,18.27-.09,2.09-.05,4.36-.33,6.2-1.22,3.47-1.68,3.56-5.2,2.53-8.15-.43-1.23-3.21-2.3-4.93-2.32-13.48-.19-26.96-.1-41.03-.1v47.56c-10.86-5.39-5.85-15.04-7.73-22.98-6.99,.12-14.49,1.42-19.79-5.9-1.28,2.27-1.99,3.5-2.67,4.75-4.61,8.4-4.38,9.05,3.29,15.3,2.68,2.18,4.95,4.88,7.4,7.34-.37,.54-.74,1.08-1.11,1.62-1.48-.57-3.45-.71-4.36-1.77-6.24-7.19-12.35-14.49-18.26-21.95-1.25-1.58-1.83-3.9-2.16-5.96-.71-4.44,1.38-6.2,5.58-4.5,3.9,1.57,5.3-.31,5.64-3.55,.32-3.07,.07-6.2,.07-10.01h-13.19v-5.84h216.04c.08,1.71,.16,3.42,.26,5.43-1.99,.27-3.72,.5-5.99,.81v46.78c-5.68-1.88-6.28-3.09-7.62-14.92-1.43,.47-2.78,.89-4.13,1.35-9.86,3.39-19.66-2.68-21.17-13.16-.52-3.61-.22-7.16,3.14-9.26,4.73-2.97,9.93-3.36,15.11-1.18,2.23,.94,4.23,2.39,6.87,3.91v-13.64h-34.28v48.16c-4.5-2.97-7.72-5.11-7.75-9.86-.03-3.91,0-7.82,0-11.97h-16.93c-.33,.61-.51,.87-.62,1.16-.83,2.26-1.66,4.52-2.48,6.78-2.33-1.22-4.71-2.34-6.95-3.71-.94-.58-1.73-1.58-2.28-2.56-1.31-2.31-3.38-4.77-3.28-7.09,.05-1.29,3.84-2.42,6.64-4.02v-16.82h-14.85v47.27c-7.19-3.98-9.42-9.44-7.7-17.11Zm.1-30.15h-15.84c1.27,8.14,6.74,17.79-7.83,19.24,2.12,5.56,6.08,6.62,10.48,6.43,6.69-.28,12.67-4.62,13.1-9.84,.43-5.17,.09-10.41,.09-15.83Zm30.52-.19v18.31h17.58v-18.31h-17.58Zm-102.57,.14h-20.03c0,1.96,0,3.58,0,5.21-.05,13.27,1.43,14.45,14.94,12.2,3.56-.59,5.62-1.98,5.17-6.13-.39-3.57-.08-7.21-.08-11.27Zm153.35,14.46c-3.23,.07-7.5,.96-9.6,5.75-2.21,5.04,.17,8.46,5.51,7.43,3.93-.76,7.76-2.34,11.42-4.01,1.11-.5,2-2.49,2.15-3.88,.48-4.28-1.17-5.26-9.49-5.29Z"/>
  <path class="cls-1" d="M215.78,787.25c-2.12-2.52-4.4-4.93-6.33-7.58-2.83-3.88-6.01-6.1-11.23-5.13-4.47,.83-7.2-1.94-9.19-8.03,9.02-3.77,20.82,6.3,27.87,19.73l-1.11,1.01Z"/>
  <path class="cls-1" d="M427.44,788.21c-3.42-4.19-5.56-7.6-8.47-10.1-2.13-1.83-5.27-3.42-7.98-3.46-6.33-.09-8.65-1.35-10.85-8,9.04-3.15,26.99,10.08,27.31,21.56Z"/>
  <path class="cls-1" d="M358.47,591.95c-2.53,2.95-5.12,5.7,2.22,7.51-3.1,2.45-4.91,4.8-7.15,5.33-1.43,.34-3.51-2-5.26-3.19-.88-.59-1.67-1.31-2.84-2.23,1.02-5.65,4.64-8.11,13.04-7.42Z"/>
  <path class="cls-1" d="M234.15,72.15c-1.64-1.12-3.53-2-4.86-3.41-5.84-6.18-8.89-6.42-15.34-.89-2.88,2.47-5.36,6.27-10.97,2.55,5.38-3.68,10.1-7.84,15.56-10.4,6.21-2.92,11.06-.3,13.9,5.91,.79,1.73,1.71,3.41,2.57,5.11-.29,.38-.58,.76-.87,1.13Z"/>
  <path class="cls-1" d="M299.52,71.51c-2.12-.65-3.76-.82-5.02-1.61-9.32-5.78-9.24-5.77-16.4,1.82-1.09,1.16-2.96,1.58-5.36,2.79,1.87-7.36,7.21-13.01,11.86-13.62,4.71-.62,10.83,3.53,14.93,10.61Z"/>
  <path class="cls-1" d="M106.44,610.45c-.71,1.63-1.34,3.3-2.15,4.88-.81,1.56-1.8,3.02-2.71,4.52-2.5-3.76-2.47-3.84,4.86-9.4Z"/>
  <path class="cls-1" d="M107.78,616.61c-.64,3.76-1.12,6.57-1.65,9.68-3.77-3.48-3.49-5.47,1.65-9.68Z"/>
  <path class="cls-1" d="M254.17,692.7c-35.69-.02-64.37-28.65-64.38-64.25,0-35.23,28.86-64.18,64.05-64.24,35.45-.06,64.36,28.88,64.34,64.41-.02,35.39-28.71,64.11-64.01,64.09Zm-55.2-39.87c1.48-1.2,2.78-2.79,4.46-3.52,11.58-5.08,23.24-9.98,34.86-14.96,1.15-.49,2.23-1.16,3.34-1.74-.15-.35-.3-.69-.45-1.04-15.37,2.17-30.74,4.34-47.53,6.71,6.22,2.85,7.45,6.66,4.95,11.71-.35,.71,.22,1.88,.37,2.83,.32,.36,.58,.93,.97,1.04,4.94,1.42,7.6,4.17,5.96,9.68-.07,.23,1.09,.82,1.67,1.25,.71,.78,1.36,2.17,2.14,2.25,4.23,.4,6.45,2.48,6.83,6.75,.05,.58,1.29,1.04,1.98,1.56,.67,.74,1.54,2.21,1.98,2.1,4.77-1.27,7.79,.18,9.12,5.08,.07,.28,1.65,.14,2.54,.19,.52,.68,1.45,1.98,1.5,1.94,5.02-3.35,8.72-.95,12.03,3.23,1.93-15.91,3.78-31.24,5.64-46.57-.42-.09-.85-.19-1.27-.28-.56,1.26-1.15,2.49-1.66,3.77-4.16,10.51-8.24,21.04-12.51,31.51-.95,2.34-2.58,4.4-3.89,6.59,.41-1.74,.61-3.57,1.26-5.21,4.43-11.1,8.96-22.16,13.45-33.24,.55-1.36,1.03-2.75,1.54-4.13-.44-.25-.88-.51-1.31-.76-.91,1.18-1.83,2.34-2.72,3.53-6.86,9.2-13.65,18.45-20.62,27.57-1.33,1.74-3.31,2.97-5,4.44,1.1-1.81,2.06-3.72,3.32-5.41,7.15-9.52,14.38-18.98,21.59-28.46,1.13-1.48,3.42-3.06-.46-3.93,.07-2.59-.86-2.94-3.24-1.91-13.58,5.9-27.22,11.65-40.85,17.44Zm101.96-61.64c-1.2,1.34-2.25,2.87-3.63,3.98-9.61,7.74-19.29,15.39-28.95,23.07-1.19,.95-2.4,1.87-3.59,2.8,.23,.41,.47,.81,.7,1.22,14.27-6.16,28.54-12.33,43.37-18.74-5.19-1.74-8.51-4.11-6.74-9.8,.2-.65-.78-1.67-1.21-2.52-.62-.46-1.24-1.32-1.86-1.32-4.93,.02-7.46-2.25-7.62-7.26-.02-.55-1.28-1.05-1.97-1.58-.9-.44-1.86-1.34-2.68-1.23-4.16,.59-7.02-.57-8.33-4.88-.13-.44-2.06-.33-3.16-.48-.84-.47-1.96-1.54-2.49-1.31-3.56,1.6-6.14,.6-8.81-2.06-1.2-1.19-4.53-2.28-5.17-1.66-4.35,4.27-8.19,2.61-12.53-1.04,2.4,16.22,4.68,31.61,6.96,47,.38-.04,.76-.08,1.14-.13l5.28-44.26c.69,.08,1.38,.17,2.07,.25-1.7,14.79-3.39,29.59-5.09,44.38,1.54-.57,2.12-1.41,2.47-2.34,2.3-6.16,4.33-12.43,6.87-18.49,2.9-6.92,6.24-13.65,9.41-20.48-.37,1.88-.46,3.86-1.14,5.62-4.25,10.87-8.65,21.69-12.96,32.54-.57,1.45-.93,2.98-1.39,4.47,.42,.17,.85,.34,1.27,.51,.9-1.26,1.8-2.53,2.72-3.78,6.94-9.41,13.83-18.84,20.86-28.19,1.14-1.51,2.84-2.6,4.28-3.89-8.67,12.45-17.33,24.9-26,37.35,1.94-.21,3.07-1.25,4.3-2.18,11.2-8.55,22.42-17.07,33.62-25.6Zm-83.99-9.97c-.51,.94-1.48,1.9-1.46,2.82,.19,6.09-4.62,6.53-9.13,7.68,9.58,7.09,18.8,13.78,27.85,20.7,3.32,2.54,6.23,5.64,9.32,8.49-1.58-.84-3.3-1.5-4.71-2.56-10.25-7.67-20.45-15.43-30.67-23.14-.8-.6-1.7-1.08-3.67-2.31,2.81,7.14-.57,10.38-5.86,12.18,14.14,5.85,27.57,11.47,41.07,16.88,.97,.39,2.53-.68,3.81-1.09-.02-1.46,.57-3.38-.15-4.32-3.69-4.83-7.94-9.25-11.57-14.13-5.15-6.94-9.93-14.16-14.86-21.25,10.06,12.08,20.12,24.15,30.19,36.23l.65-.4c-6.11-14.29-12.23-28.57-18.62-43.5-1.64,5.69-4.66,8.65-10.5,6.86-.44-.14-1.13,.55-1.71,.86Zm92.77,70.28c-15.06-5.85-29.59-11.5-44.12-17.14-.14,.4-.28,.81-.43,1.21,12.38,9.39,24.76,18.79,37.37,28.35-.05-9.66,.42-8.25,7.18-12.42Zm3.94-32.94c-6.25-3.03-6.62-7.54-3.44-13.32-15.31,6.69-29.49,12.88-43.67,19.08,.11,.36,.22,.72,.33,1.08,15.25-2.23,30.5-4.46,46.78-6.84Zm-58.93,23.18c-.39,.07-.78,.13-1.17,.2-1.91,15.34-3.82,30.68-5.92,47.49,4.7-5.54,9.14-5.51,13.74-1.02-2.28-16.02-4.46-31.35-6.64-46.67Zm12.28-10.61c-.1,.38-.21,.75-.31,1.13,14.41,5.71,28.82,11.41,44.07,17.45-4.38-5.8-1.83-9.73,3.67-13.29-16.72-1.86-32.07-3.57-47.43-5.28Zm-26.07-1.8c0-.39,0-.78,0-1.17-15.37-1.86-30.74-3.72-47.39-5.74,5.21,4.66,5.25,8.99,.12,13.71,16.58-2.39,31.92-4.59,47.27-6.8Zm8.87-13.32l1.11-.26c-2.2-15.35-4.39-30.69-6.73-47.08-3.11,6.55-7.75,6.57-13.14,3.86,6.51,15.08,12.63,29.28,18.76,43.48Zm11.42,23.56c-.35,.17-.71,.34-1.06,.51,6.05,14.37,12.1,28.75,18.71,44.43,1.3-7.12,5.11-9.43,11.3-7.81-9.89-12.69-19.42-24.91-28.94-37.13Zm-66.71-19.11c15.87,1.83,31.22,3.61,46.57,5.38,.09-.36,.17-.72,.26-1.08-14.37-5.78-28.74-11.56-43.11-17.34,4.01,5.82,.26,9.46-3.73,13.04Zm82.42,64.9c-6.69-15.75-12.75-30.01-18.81-44.27-.36,.1-.73,.2-1.09,.3,2.11,15.35,4.22,30.71,6.44,46.87,3.46-4.74,7.05-7.79,13.47-2.9Zm-13.17-48.05c-.27,.27-.54,.55-.82,.82,9.52,12.28,19.05,24.55,28.8,37.12,1.96-7.84,2.26-8.16,9.13-9.9-12.39-9.36-24.75-18.7-37.12-28.04Zm49.52-16.61c-15.51,2.37-30.86,4.72-46.21,7.06,.05,.38,.1,.75,.15,1.13,15.26,1.74,30.51,3.49,46.19,5.28q-3.59-5.29-.12-13.46Zm-49.6,7.69c-.1-5.3-4.61-9.54-9.97-9.39-5.17,.15-9.34,4.37-9.38,9.49-.04,5.24,4.46,9.72,9.73,9.69,5.29-.03,9.73-4.55,9.63-9.79Z"/>
  <path class="cls-1" d="M273.87,163.4c2.45-5.35,4.68-10.23,6.7-14.64,3.09,5.35,.43,12.56-6.7,14.64Z"/>
  <path class="cls-1" d="M244.71,140.17c.89,1.26,1.79,2.51,3.15,4.43,1.18-2.18,2.04-3.77,2.91-5.36,.48,.09,.96,.18,1.45,.27-.52,2.54-.92,5.13-1.7,7.58-.13,.41-2.53,.77-2.94,.31-1.72-1.92-3.08-4.17-4.58-6.29,.57-.31,1.14-.62,1.72-.94Z"/>
  <path class="cls-1" d="M207.42,664.93c11.92-9.28,23.84-18.55,35.76-27.83-6.26,5.46-12.32,11.17-18.85,16.29-5.36,4.21-11.26,7.72-16.92,11.54Z"/>
  <path class="cls-1" d="M254,634.66c-3.52-.38-5.8-2.12-6.03-5.87-.22-3.53,2.53-6.39,6.01-6.41,3.48-.02,6.25,2.81,6.08,6.34-.19,3.76-2.43,5.54-6.05,5.94Z"/>
</svg>