<?xml version="1.0" encoding="UTF-8" standalone="no" ?>
<!DOCTYPE svg PUBLIC "-//W3C//DTD SVG 1.1//EN" "http://www.w3.org/Graphics/SVG/1.1/DTD/svg11.dtd">
<svg xmlns="http://www.w3.org/2000/svg" xmlns:xlink="http://www.w3.org/1999/xlink" version="1.1" width="1280" height="1024" viewBox="0 0 1280 1024" xml:space="preserve">
<desc>Created with Fabric.js 5.3.0</desc>
<defs>
</defs>
<g transform="matrix(1 0 0 1 640 512)" id="background-logo"  >
<rect style="stroke: none; stroke-width: 0; stroke-dasharray: none; stroke-linecap: butt; stroke-dashoffset: 0; stroke-linejoin: miter; stroke-miterlimit: 4; fill: rgb(255,255,255); fill-rule: nonzero; opacity: 1;"  paint-order="stroke"  x="-640" y="-512" rx="0" ry="0" width="1280" height="1024" />
</g>
<g transform="matrix(1.9211538461538462 0 0 1.9211538461538462 640 395.6864080388972)" id="logo-logo"  >
<g style=""  paint-order="stroke"   >
		<g transform="matrix(0.917930923744532 0 0 0.9179309237445321 0 0)"  >
<g style=""  paint-order="stroke"   >
		<g transform="matrix(1 0 0 1 0 0)"  >
<linearGradient id="SVGID_44_436998" gradientUnits="userSpaceOnUse" gradientTransform="matrix(1 0 0 1 -100 -100)"  x1="0" y1="0" x2="0" y2="200">
<stop offset="0%" style="stop-color:rgb(147,103,233);stop-opacity: 1"/>
<stop offset="100%" style="stop-color:rgb(94,31,219);stop-opacity: 1"/>
</linearGradient>
<polygon style="stroke: none; stroke-width: 1; stroke-dasharray: none; stroke-linecap: butt; stroke-dashoffset: 0; stroke-linejoin: miter; stroke-miterlimit: 4; fill: url(#SVGID_44_436998); fill-rule: nonzero; opacity: 1;"  paint-order="stroke"  points="100,100 0,100 0,95.12 95.12,95.12 95.12,-95.12 -95.12,-95.12 -95.12,0 -100,0 -100,-100 100,-100 100,100 " />
</g>
</g>
</g>
</g>
</g>
<g transform="matrix(1.9211538461538462 0 0 1.9211538461538462 642.218519944411 667.1540909470717)" id="text-logo"  >
<g style=""  paint-order="stroke"   >
		<g transform="matrix(1 0 0 1 0 0)" id="text-logo-path-0"  >
<path style="stroke: rgb(255,255,255); stroke-width: 0; stroke-dasharray: none; stroke-linecap: butt; stroke-dashoffset: 0; stroke-linejoin: miter; stroke-miterlimit: 4; fill: rgb(128,76,230); fill-rule: nonzero; opacity: 1;"  paint-order="stroke"  transform=" translate(-180.60500000000002, 19.225)" d="M 2.74 -1.69 L 2.74 -1.69 L 2.74 -37.06 Q 2.74 -38.48 4.03 -38.51 L 4.03 -38.51 L 23.71 -38.51 Q 24.87 -38.51 24.87 -33.64 Q 24.87 -28.76 23.71 -28.76 L 23.71 -28.76 L 13.54 -28.76 L 13.54 -23.2 L 20.63 -23.2 Q 21.67 -23.2 21.67 -19.36 L 21.67 -19.36 Q 21.67 -18.21 21.42 -16.64 Q 21.16 -15.07 20.52 -15.07 L 20.52 -15.07 L 13.54 -15.07 L 13.54 -9.56 L 23.66 -9.56 Q 24.6 -9.56 24.92 -7.14 L 24.92 -7.14 Q 25.08 -6.1 25.08 -4.91 Q 25.08 -3.73 24.75 -1.87 Q 24.41 0 23.66 0 L 23.66 0 L 4.83 0 Q 2.74 0 2.74 -1.69 Z M 56.15 -19.79 L 47.23 -37.95 Q 47.07 -38.22 49.51 -38.47 Q 51.96 -38.73 53.65 -38.73 L 53.65 -38.73 Q 60.58 -38.73 61.25 -36.74 L 61.25 -36.74 L 65.04 -27.5 L 69.39 -37.01 Q 70.06 -38.65 76.26 -38.67 L 76.26 -38.67 Q 77.85 -38.67 80.2 -38.42 Q 82.55 -38.16 82.55 -37.95 L 82.55 -37.95 L 73.2 -18.93 L 82.87 -0.73 Q 83.03 -0.46 80.5 -0.2 Q 77.98 0.05 76.21 0.05 L 76.21 0.05 Q 69.23 0.05 68.55 -1.83 L 68.55 -1.83 L 64.45 -12.33 L 60.71 -1.48 Q 60.18 0.05 53.65 0.05 L 53.65 0.05 Q 52.06 0.05 49.7 -0.16 L 49.7 -0.16 Q 47.53 -0.35 47.53 -0.73 L 47.53 -0.73 Q 47.53 -0.75 47.55 -0.78 L 47.55 -0.78 L 56.15 -19.79 Z M 103.75 -0.78 L 103.75 -0.78 L 113.48 -38 Q 113.5 -38.46 121.02 -38.46 L 121.02 -38.46 Q 121.24 -38.46 121.42 -38.46 L 121.42 -38.46 Q 128.54 -38.46 128.54 -38 L 128.54 -38 L 138.07 -0.73 Q 138.07 -0.35 135.54 -0.12 Q 133 0.11 131.52 0.11 L 131.52 0.11 Q 126.74 0.11 126.34 -1.42 L 126.34 -1.42 L 124.54 -8.51 L 115.78 -8.51 L 114.2 -1.69 Q 113.88 0 108.91 0 L 108.91 0 Q 106.28 0 105.02 -0.31 Q 103.75 -0.62 103.75 -0.78 Z M 120.14 -26.88 L 117.15 -15.52 L 122.93 -15.52 L 120.46 -26.88 L 120.14 -26.88 Z M 160.81 -1.48 L 160.81 -1.48 L 162.1 -37.22 Q 162.1 -38.54 168.79 -38.56 L 168.79 -38.56 Q 170.78 -38.56 173.64 -38.26 Q 176.5 -37.95 176.82 -37.06 L 176.82 -37.06 L 183 -19.74 L 188.37 -37.11 Q 188.85 -38.54 195.97 -38.56 L 195.97 -38.56 Q 198.01 -38.56 200.84 -38.26 Q 203.67 -37.95 203.67 -37.17 L 203.67 -37.17 L 205.26 -1.1 Q 205.26 -0.48 203.11 -0.21 Q 200.96 0.05 199.32 0.05 L 199.32 0.05 Q 194.44 0.05 194.44 -1.05 L 194.44 -1.05 L 193.28 -23.1 L 186.57 -0.78 Q 186.35 -0.11 182.84 -0.11 Q 179.32 -0.11 179.18 -0.73 L 179.18 -0.73 L 172.25 -23.31 L 171.5 -1.37 Q 171.45 -0.54 169.41 -0.24 Q 167.37 0.05 166.02 0.05 Q 164.68 0.05 163.42 -0.11 L 163.42 -0.11 Q 160.79 -0.48 160.81 -1.48 Z M 233.6 -4.51 Q 228.72 -9.56 228.72 -19.27 Q 228.72 -28.98 233.65 -33.99 Q 238.58 -38.99 246.37 -38.99 Q 254.16 -38.99 258.94 -34.07 Q 263.72 -29.14 263.72 -19.16 Q 263.72 -9.18 258.81 -4.32 Q 253.91 0.54 246.19 0.54 Q 238.47 0.54 233.6 -4.51 Z M 241.79 -26.02 Q 240 -23.61 240 -19.23 Q 240 -14.85 241.71 -12.51 Q 243.41 -10.18 246.19 -10.18 Q 248.97 -10.18 250.7 -12.54 Q 252.44 -14.9 252.44 -19.31 Q 252.44 -23.71 250.65 -26.08 Q 248.86 -28.44 246.22 -28.44 Q 243.57 -28.44 241.79 -26.02 Z M 284.98 -31.02 Q 284.82 -32.23 284.82 -33.49 Q 284.82 -34.75 284.98 -35.96 L 284.98 -35.96 Q 285.35 -38.48 286.32 -38.51 L 286.32 -38.51 L 310.22 -38.51 Q 311.16 -38.51 311.56 -35.96 L 311.56 -35.96 Q 311.73 -34.75 311.73 -33.49 Q 311.73 -32.23 311.56 -31.02 L 311.56 -31.02 Q 311.19 -28.49 310.22 -28.49 L 310.22 -28.49 L 303.8 -28.49 L 303.8 -0.89 Q 303.8 0.21 298.35 0.21 Q 292.9 0.21 292.9 -0.89 L 292.9 -0.89 L 292.9 -28.49 L 286.32 -28.49 Q 285.38 -28.49 284.98 -31.02 L 284.98 -31.02 Z M 331.72 -31.02 Q 331.56 -32.23 331.56 -33.49 Q 331.56 -34.75 331.72 -35.96 L 331.72 -35.96 Q 332.1 -38.48 333.07 -38.51 L 333.07 -38.51 L 356.97 -38.51 Q 357.91 -38.51 358.31 -35.96 L 358.31 -35.96 Q 358.47 -34.75 358.47 -33.49 Q 358.47 -32.23 358.31 -31.02 L 358.31 -31.02 Q 357.94 -28.49 356.97 -28.49 L 356.97 -28.49 L 350.55 -28.49 L 350.55 -0.89 Q 350.55 0.21 345.1 0.21 Q 339.65 0.21 339.65 -0.89 L 339.65 -0.89 L 339.65 -28.49 L 333.07 -28.49 Q 332.13 -28.49 331.72 -31.02 L 331.72 -31.02 Z" stroke-linecap="round" />
</g>
</g>
</g>
<g transform="matrix(1.9211538461538462 0 0 1.9211538461538462 641.2391442307693 399.1428096194262)" id="tagline-3a78d944-c0db-44d4-8ad5-60158c925687-logo"  >
<g style=""  paint-order="stroke"   >
		<g transform="matrix(1 0 0 1 0 0)" id="tagline-3a78d944-c0db-44d4-8ad5-60158c925687-logo-path-0"  >
<linearGradient id="SVGID_436999" gradientUnits="userSpaceOnUse" gradientTransform="matrix(1 0 0 1 8.600000000000001 -61.06)"  x1="-8.600000000000023" y1="-14.546040000000005" x2="-8.600000000000023" y2="82.45396">
<stop offset="0%" style="stop-color:rgb(147,103,233);stop-opacity: 1"/>
<stop offset="100%" style="stop-color:rgb(94,31,219);stop-opacity: 1"/>
</linearGradient>
<path style="stroke: rgb(255,255,255); stroke-width: 0; stroke-dasharray: none; stroke-linecap: butt; stroke-dashoffset: 0; stroke-linejoin: miter; stroke-miterlimit: 4; fill: url(#SVGID_436999); fill-rule: nonzero; opacity: 1;"  paint-order="stroke"  transform=" translate(-41.925000000000004, 30.1)" d="M 8.6 -60.2 L 8.6 0 L 34.4 0 L 34.4 -5.16 L 14.62 -5.16 L 14.62 -27.52 L 29.24 -27.52 L 29.24 -32.68 L 14.62 -32.68 L 14.62 -55.04 L 33.54 -55.04 L 33.54 -60.2 Z M 46.01 -47.3 L 46.01 -12.9 C 46.01 -1.38 52.55 0.86 60.63 0.86 C 68.8 0.86 75.25 -1.55 75.25 -12.9 L 75.25 -47.3 C 75.25 -58.82 68.8 -61.06 60.63 -61.06 C 52.55 -61.06 46.01 -58.82 46.01 -47.3 Z M 52.03 -14.62 L 52.03 -45.58 C 52.03 -53.41 55.38 -55.04 60.63 -55.04 C 65.88 -55.04 69.23 -53.41 69.23 -45.58 L 69.23 -14.62 C 69.23 -6.79 65.88 -5.16 60.63 -5.16 C 55.38 -5.16 52.03 -6.79 52.03 -14.62 Z" stroke-linecap="round" />
</g>
</g>
</g>
<g transform="matrix(1.9211538461538462 0 0 1.9211538461538462 637.9664586538468 767.2920750804851)" id="tagline-ee21041c-fd7a-4646-a088-df0a2334375e-logo"  >
<g style=""  paint-order="stroke"   >
		<g transform="matrix(1 0 0 1 0 0)" id="tagline-ee21041c-fd7a-4646-a088-df0a2334375e-logo-path-0"  >
<path style="stroke: none; stroke-width: 0; stroke-dasharray: none; stroke-linecap: butt; stroke-dashoffset: 0; stroke-linejoin: miter; stroke-miterlimit: 4; fill: rgb(139,83,255); fill-rule: nonzero; opacity: 1;"  paint-order="stroke"  transform=" translate(-317.685, 8.785)" d="M 5.48 -7.83 L 5.48 0 L 7.51 0 L 7.51 -7.83 L 12.27 -20.3 L 10.24 -20.3 L 6.5 -10.5 L 2.76 -20.3 L 0.73 -20.3 Z M 32.48 -15.95 L 32.48 -4.35 C 32.48 -0.46 34.68 0.29 37.41 0.29 C 40.16 0.29 42.34 -0.52 42.34 -4.35 L 42.34 -15.95 C 42.34 -19.84 40.16 -20.59 37.41 -20.59 C 34.68 -20.59 32.48 -19.84 32.48 -15.95 Z M 34.51 -4.93 L 34.51 -15.37 C 34.51 -18.01 35.64 -18.56 37.41 -18.56 C 39.18 -18.56 40.31 -18.01 40.31 -15.37 L 40.31 -4.93 C 40.31 -2.29 39.18 -1.74 37.41 -1.74 C 35.64 -1.74 34.51 -2.29 34.51 -4.93 Z M 66.47 -4.93 L 66.47 -20.3 L 64.44 -20.3 L 64.44 -4.35 C 64.44 -0.46 66.64 0.29 69.37 0.29 C 72.12 0.29 74.3 -0.46 74.3 -4.35 L 74.3 -20.3 L 72.27 -20.3 L 72.27 -4.93 C 72.27 -2.29 71.14 -1.74 69.37 -1.74 C 67.6 -1.74 66.47 -2.29 66.47 -4.93 Z M 96.83 0 L 98.86 0 L 98.86 -7.54 L 100.89 -7.54 L 104.52 0 L 106.69 0 L 102.98 -7.77 C 104.69 -8.21 105.82 -9.4 105.82 -12.18 L 105.82 -15.66 C 105.82 -19.55 103.65 -20.3 100.89 -20.3 L 96.83 -20.3 Z M 98.86 -9.28 L 98.86 -18.56 L 100.89 -18.56 C 102.66 -18.56 103.79 -18.01 103.79 -15.37 L 103.79 -12.47 C 103.79 -9.83 102.66 -9.28 100.89 -9.28 Z M 150.6 -20.3 L 150.6 0 L 159.3 0 L 159.3 -1.74 L 152.63 -1.74 L 152.63 -9.28 L 157.56 -9.28 L 157.56 -11.02 L 152.63 -11.02 L 152.63 -18.56 L 159.01 -18.56 L 159.01 -20.3 Z M 178.93 0 L 181.05 0 L 184.38 -7.89 L 187.72 0 L 189.83 0 L 185.54 -10.15 L 189.83 -20.3 L 187.72 -20.3 L 184.47 -12.62 L 181.22 -20.3 L 179.1 -20.3 L 183.31 -10.35 Z M 209.18 0 L 211.21 0 L 212.37 -5.51 L 217.56 -5.51 L 218.72 0 L 220.75 0 L 216.48 -20.3 L 213.44 -20.3 Z M 212.74 -7.25 L 214.98 -17.89 L 217.21 -7.25 Z M 254.53 -20.3 L 251.63 -20.3 L 248.18 -7.89 L 244.73 -20.3 L 241.83 -20.3 L 241.83 0 L 243.86 0 L 243.86 -16.12 L 247.14 -4.35 L 249.23 -4.35 L 252.5 -16.12 L 252.5 0 L 254.53 0 Z M 276.92 -2.9 L 276.92 0 L 277.85 0 L 277.18 2.73 L 278.17 3.02 L 279.53 0 L 279.53 -2.9 Z M 324.31 -15.95 L 324.31 -4.35 C 324.31 -0.46 326.51 0.29 329.24 0.29 C 331.99 0.29 334.17 -0.52 334.17 -4.35 L 334.17 -15.95 C 334.17 -19.84 331.99 -20.59 329.24 -20.59 C 326.51 -20.59 324.31 -19.84 324.31 -15.95 Z M 326.34 -4.93 L 326.34 -15.37 C 326.34 -18.01 327.47 -18.56 329.24 -18.56 C 331.01 -18.56 332.14 -18.01 332.14 -15.37 L 332.14 -4.93 C 332.14 -2.29 331.01 -1.74 329.24 -1.74 C 327.47 -1.74 326.34 -2.29 326.34 -4.93 Z M 358.3 -4.93 L 358.3 -20.3 L 356.27 -20.3 L 356.27 -4.35 C 356.27 -0.46 358.47 0.29 361.2 0.29 C 363.95 0.29 366.13 -0.46 366.13 -4.35 L 366.13 -20.3 L 364.1 -20.3 L 364.1 -4.93 C 364.1 -2.29 362.96 -1.74 361.2 -1.74 C 359.43 -1.74 358.3 -2.29 358.3 -4.93 Z M 388.66 0 L 390.69 0 L 390.69 -7.54 L 392.72 -7.54 L 396.34 0 L 398.52 0 L 394.81 -7.77 C 396.52 -8.21 397.65 -9.4 397.65 -12.18 L 397.65 -15.66 C 397.65 -19.55 395.47 -20.3 392.72 -20.3 L 388.66 -20.3 Z M 390.69 -9.28 L 390.69 -18.56 L 392.72 -18.56 C 394.49 -18.56 395.62 -18.01 395.62 -15.37 L 395.62 -12.47 C 395.62 -9.83 394.49 -9.28 392.72 -9.28 Z M 455.13 -20.3 L 452.23 -20.3 L 448.78 -7.89 L 445.32 -20.3 L 442.42 -20.3 L 442.42 0 L 444.45 0 L 444.45 -16.12 L 447.73 -4.35 L 449.82 -4.35 L 453.1 -16.12 L 453.1 0 L 455.13 0 Z M 481.72 -20.3 L 477.08 -20.3 L 477.08 -18.56 L 478.38 -18.56 L 478.38 -1.74 L 477.08 -1.74 L 477.08 0 L 481.72 0 L 481.72 -1.74 L 480.41 -1.74 L 480.41 -18.56 L 481.72 -18.56 Z M 508.02 0.29 C 510.75 0.29 512.95 -0.46 512.95 -4.35 L 512.95 -4.93 C 512.95 -9.6 505.12 -12.59 505.12 -15.37 C 505.12 -18.01 506.25 -18.56 508.02 -18.56 C 509.79 -18.56 510.92 -18.01 510.92 -15.37 L 510.92 -14.21 L 512.95 -14.21 L 512.95 -15.95 C 512.95 -19.84 510.78 -20.59 508.02 -20.59 C 505.3 -20.59 503.09 -19.84 503.09 -15.95 L 503.09 -15.37 C 503.09 -11.19 510.92 -8.21 510.92 -4.93 C 510.92 -2.29 509.79 -1.74 508.02 -1.74 C 506.25 -1.74 505.12 -2.29 505.12 -4.93 L 505.12 -6.44 L 503.09 -6.44 L 503.09 -4.35 C 503.09 -0.52 505.27 0.29 508.02 0.29 Z M 539.55 0.29 C 542.27 0.29 544.48 -0.46 544.48 -4.35 L 544.48 -4.93 C 544.48 -9.6 536.65 -12.59 536.65 -15.37 C 536.65 -18.01 537.78 -18.56 539.55 -18.56 C 541.31 -18.56 542.45 -18.01 542.45 -15.37 L 542.45 -14.21 L 544.48 -14.21 L 544.48 -15.95 C 544.48 -19.84 542.3 -20.59 539.55 -20.59 C 536.82 -20.59 534.62 -19.84 534.62 -15.95 L 534.62 -15.37 C 534.62 -11.19 542.45 -8.21 542.45 -4.93 C 542.45 -2.29 541.31 -1.74 539.55 -1.74 C 537.78 -1.74 536.65 -2.29 536.65 -4.93 L 536.65 -6.44 L 534.62 -6.44 L 534.62 -4.35 C 534.62 -0.52 536.79 0.29 539.55 0.29 Z M 570.49 -20.3 L 565.85 -20.3 L 565.85 -18.56 L 567.15 -18.56 L 567.15 -1.74 L 565.85 -1.74 L 565.85 0 L 570.49 0 L 570.49 -1.74 L 569.18 -1.74 L 569.18 -18.56 L 570.49 -18.56 Z M 592.01 -15.95 L 592.01 -4.35 C 592.01 -0.46 594.21 0.29 596.94 0.29 C 599.69 0.29 601.87 -0.52 601.87 -4.35 L 601.87 -15.95 C 601.87 -19.84 599.69 -20.59 596.94 -20.59 C 594.21 -20.59 592.01 -19.84 592.01 -15.95 Z M 594.04 -4.93 L 594.04 -15.37 C 594.04 -18.01 595.17 -18.56 596.94 -18.56 C 598.71 -18.56 599.84 -18.01 599.84 -15.37 L 599.84 -4.93 C 599.84 -2.29 598.71 -1.74 596.94 -1.74 C 595.17 -1.74 594.04 -2.29 594.04 -4.93 Z M 624.25 -20.3 L 624.25 0 L 626.28 0 L 626.28 -15.37 L 632.61 0 L 634.64 0 L 634.64 -20.3 L 632.61 -20.3 L 632.61 -4.93 L 626.28 -20.3 Z" stroke-linecap="round" />
</g>
</g>
</g>
</svg>