<svg id="_0112_report_analysis_3" xmlns="http://www.w3.org/2000/svg" xmlns:xlink="http://www.w3.org/1999/xlink" viewBox="0 0 500 500" data-imageid="report-analysis-3-82" imageName="Report Analysis 3" class="illustrations_image" style="width: 188px;"><defs><style>.cls-1_report-analysis-3-82{fill:url(#linear-gradient);}.cls-1_report-analysis-3-82,.cls-2_report-analysis-3-82,.cls-3_report-analysis-3-82,.cls-4_report-analysis-3-82,.cls-5_report-analysis-3-82,.cls-6_report-analysis-3-82,.cls-7_report-analysis-3-82,.cls-8_report-analysis-3-82,.cls-9_report-analysis-3-82,.cls-10_report-analysis-3-82,.cls-11_report-analysis-3-82,.cls-12_report-analysis-3-82,.cls-13_report-analysis-3-82,.cls-14_report-analysis-3-82,.cls-15_report-analysis-3-82{stroke-width:0px;}.cls-2_report-analysis-3-82{isolation:isolate;opacity:.18;}.cls-2_report-analysis-3-82,.cls-15_report-analysis-3-82{fill:#68e1fd;}.cls-3_report-analysis-3-82{fill:url(#linear-gradient-10-report-analysis-3-82);}.cls-4_report-analysis-3-82{fill:url(#linear-gradient-4-report-analysis-3-82);}.cls-5_report-analysis-3-82{fill:url(#linear-gradient-2-report-analysis-3-82);}.cls-6_report-analysis-3-82{fill:url(#linear-gradient-3-report-analysis-3-82);}.cls-7_report-analysis-3-82{fill:url(#linear-gradient-8-report-analysis-3-82);}.cls-8_report-analysis-3-82{fill:url(#linear-gradient-9-report-analysis-3-82);}.cls-9_report-analysis-3-82{fill:url(#linear-gradient-7-report-analysis-3-82);}.cls-10_report-analysis-3-82{fill:url(#linear-gradient-5-report-analysis-3-82);}.cls-11_report-analysis-3-82{fill:url(#linear-gradient-6-report-analysis-3-82);}.cls-12_report-analysis-3-82{fill:#231f20;}.cls-13_report-analysis-3-82{fill:#fff;}.cls-14_report-analysis-3-82{fill:#ffb4a3;}</style><linearGradient id="linear-gradient-report-analysis-3-82" x1="718.33" y1="2402.25" x2="742.14" y2="2515.69" gradientTransform="translate(-472.36 2739.59) scale(1 -1)" gradientUnits="userSpaceOnUse"><stop offset="0" stop-color="#231f20" stop-opacity="0"/><stop offset="1" stop-color="#231f20"/></linearGradient><linearGradient id="linear-gradient-2-report-analysis-3-82" x1="718.33" y1="2386.87" x2="742.14" y2="2500.31" xlink:href="#linear-gradient-report-analysis-3-82"/><linearGradient id="linear-gradient-3-report-analysis-3-82" x1="740.9" y1="2506.38" x2="743.85" y2="2563.5" gradientTransform="translate(-471 2760.19) scale(1 -1)" xlink:href="#linear-gradient-report-analysis-3-82"/><linearGradient id="linear-gradient-4-report-analysis-3-82" x1="736.75" y1="2802.12" x2="740.43" y2="2450.28" gradientTransform="translate(-471 2760.19) scale(1 -1)" gradientUnits="userSpaceOnUse"><stop offset=".02" stop-color="#fff" stop-opacity="0"/><stop offset=".32" stop-color="#fff" stop-opacity=".39"/><stop offset=".68" stop-color="#fff" stop-opacity=".68"/><stop offset="1" stop-color="#fff"/></linearGradient><linearGradient id="linear-gradient-5-report-analysis-3-82" x1="734.87" y1="2786.32" x2="738.22" y2="2467.05" xlink:href="#linear-gradient-4-report-analysis-3-82"/><linearGradient id="linear-gradient-6-report-analysis-3-82" x1="804.95" y1="2625.67" x2="855.39" y2="2555.96" gradientTransform="translate(-472.36 2739.59) scale(1 -1)" xlink:href="#linear-gradient-4-report-analysis-3-82"/><linearGradient id="linear-gradient-7-report-analysis-3-82" x1="701.16" y1="2598.93" x2="590.13" y2="2416.54" xlink:href="#linear-gradient-report-analysis-3-82"/><linearGradient id="linear-gradient-8-report-analysis-3-82" x1="649.47" y1="2529.7" x2="629.32" y2="2575.68" xlink:href="#linear-gradient-report-analysis-3-82"/><linearGradient id="linear-gradient-9-report-analysis-3-82" x1="577.61" y1="2461.45" x2="698.44" y2="2461.45" xlink:href="#linear-gradient-report-analysis-3-82"/><linearGradient id="linear-gradient-10-report-analysis-3-82" x1="664.07" y1="2480.57" x2="579.88" y2="2363.29" xlink:href="#linear-gradient-report-analysis-3-82"/></defs><path id="background_report-analysis-3-82" class="cls-2_report-analysis-3-82 targetColor" d="M81.31,410.97l99.56,4.37,24.63,1.09c26.71,1.16,53.43,2.33,80.14,2.13,22.37-.15,44.73-1.27,67.07-2.37l74.49-3.72c5.68-.28,13.58-4.94,9.95-9.32,18.19-20.13,32.99-45.46,37.01-72.29,4.02-26.83-1.75-55.47-17.93-77.25-12.2-16.39-30.89-31.3-30.22-51.74.39-12.31,8.16-23.58,7.95-35.89-.2-11.84-7.93-22.52-17.63-29.3-9.7-6.77-21.25-10.4-32.6-13.81-44.27-13.46-96.44-27.47-142.63-24.42-46.18,3.05-92.85,22.37-120.9,59.22-6.17,8.12-11.46,17.05-19.04,23.86-13.65,12.28-32.77,16.04-49.09,24.4-25.66,13.21-44.41,38.52-50.87,66.64-6.46,28.13-.88,58.54,13.79,83.37,7.72,13.04,17.79,24.51,27.79,35.91,5.46,6.24,11.1,12.59,18.36,16.6,7.26,4.01,13.03,6.76,20.16,2.53Z" style="fill: rgb(202, 192, 242);"/><g id="table_report-analysis-3-82"><path class="cls-15_report-analysis-3-82 targetColor" d="M423.57,412.6h-22.94v-100.94c-.02-17.99-14.6-32.58-32.6-32.6H114.61c-17.99.02-32.58,14.6-32.6,32.6v100.94h-22.84v-100.94c.04-30.63,24.85-55.44,55.48-55.48h253.42c30.63.04,55.44,24.85,55.48,55.48v100.94Z" style="fill: rgb(202, 192, 242);"/><path class="cls-1_report-analysis-3-82" d="M423.57,311.66v100.94h-22.94v-100.94c-.02-17.99-14.6-32.57-32.6-32.6H114.61c-17.99.02-32.57,14.6-32.6,32.6v100.94h-22.84v-100.94c.04-30.63,24.85-55.44,55.48-55.48h253.42c30.63.03,55.45,24.85,55.49,55.48Z"/><path class="cls-5_report-analysis-3-82" d="M423.57,327.04v100.94h-22.94v-116.32c-.02-17.99-14.6-32.57-32.6-32.6H114.61c-17.99.02-32.57,14.6-32.6,32.6v116.32h-22.84v-100.94c.04-30.63,24.85-55.44,55.48-55.48h253.42c30.63.03,55.45,24.85,55.49,55.48Z"/></g><polygon id="paper_report-analysis-3-82" class="cls-13_report-analysis-3-82" points="247.14 258.22 317.36 258.22 294.05 270.8 229.33 270.8 247.14 258.22"/><g id="data_graphic_report-analysis-3-82"><rect class="cls-15_report-analysis-3-82 targetColor" x="233.85" y="212.31" width="74.1" height="44.03" style="fill: rgb(202, 192, 242);"/><rect class="cls-6_report-analysis-3-82" x="233.85" y="212.31" width="74.1" height="44.03"/><rect class="cls-15_report-analysis-3-82 targetColor" x="150.09" y="63.58" width="235.18" height="157.86" rx="11.56" ry="11.56" style="fill: rgb(202, 192, 242);"/><rect class="cls-4_report-analysis-3-82" x="150.09" y="63.58" width="235.18" height="157.86" rx="11.56" ry="11.56"/><rect class="cls-10_report-analysis-3-82" x="148.04" y="69.73" width="235.18" height="143.03" rx="11" ry="11"/><rect class="cls-15_report-analysis-3-82 targetColor" x="191.75" y="113.77" width="8" height="61.15" style="fill: rgb(202, 192, 242);"/><rect class="cls-15_report-analysis-3-82 targetColor" x="205.37" y="124.68" width="8" height="50.24" style="fill: rgb(202, 192, 242);"/><rect class="cls-15_report-analysis-3-82 targetColor" x="219.28" y="113.77" width="8" height="61.15" style="fill: rgb(202, 192, 242);"/><rect class="cls-15_report-analysis-3-82 targetColor" x="232.9" y="138.36" width="8" height="36.55" style="fill: rgb(202, 192, 242);"/><rect class="cls-15_report-analysis-3-82 targetColor" x="246.81" y="113.77" width="8" height="61.15" style="fill: rgb(202, 192, 242);"/><rect class="cls-15_report-analysis-3-82 targetColor" x="260.42" y="132.12" width="8" height="42.8" style="fill: rgb(202, 192, 242);"/><path class="cls-15_report-analysis-3-82 targetColor" d="M338.78,97c-16.43-.05-29.78,13.23-29.83,29.66-.05,16.43,13.23,29.78,29.66,29.83h0v-10.36h-.12c-10.86,0-19.66-8.8-19.66-19.66s8.8-19.66,19.66-19.66,19.66,8.8,19.66,19.66h0c0,.94-.07,1.88-.21,2.81h10.5c.08-.83.12-1.67.12-2.51.01-16.43-13.3-29.75-29.72-29.77-.02,0-.04,0-.05,0Z" style="fill: rgb(202, 192, 242);"/><path class="cls-11_report-analysis-3-82" d="M368.44,129.26c-1.29,15.4-14.17,27.24-29.62,27.23h-.17v-10.36c9.73-.07,17.93-7.25,19.31-16.88h10.49Z"/></g><g id="character_report-analysis-3-82"><path class="cls-14_report-analysis-3-82" d="M241.42,392.01c-.2,1.27.07,2.57.76,3.65.85.79,1.91,1.31,3.06,1.49,3.84,1.1,7.34,3.15,10.18,5.95-8.2,1.92-16.7,2.2-25.01.81-1.6.11-2.99-1.09-3.1-2.69-.02-.29,0-.58.07-.86l.56-67.9c0-5.94,4.25-12.8,11.25-9.53,5.9,2.75,4.37,11.07,4.15,16.24-.65,17.61-1.29,35.22-1.91,52.84Z"/><path class="cls-14_report-analysis-3-82" d="M208.66,392.01c-.2,1.27.07,2.57.76,3.65.85.79,1.92,1.3,3.06,1.49,3.84,1.11,7.34,3.15,10.19,5.95-8.21,1.92-16.71,2.2-25.03.81-.97-.06-1.88-.48-2.55-1.18-.41-.72-.58-1.55-.49-2.37l.56-67.9c.05-5.94,4.26-12.8,11.25-9.53,5.9,2.75,4.37,11.07,4.15,16.24-.63,17.61-1.27,35.22-1.91,52.84Z"/><path class="cls-9_report-analysis-3-82" d="M215.05,206.93c-.44-5.04-.96-10.19-3.09-14.78-2.13-4.59-6.16-8.61-11.16-9.35-.62-.12-1.26-.09-1.87.08-1.2.39-1.9,1.61-2.81,2.48s-2.6,1.33-3.28.28c.85-3.56,4.37-6.18,4.7-9.83.06-1.6-.2-3.19-.76-4.69-1.46-4.64-3.07-9.23-4.84-13.77-.45-1.16-1.09-2.46-2.26-2.8-.85-.16-1.73,0-2.49.42-5.72,2.6-9.43,8.25-12.21,13.88-2.42,4.93-4.42,10.27-4.16,15.75.17,3.68,1.37,7.25,1.74,10.92.33,3.28,0,6.85,1.58,9.83,3.07,5.75,11.27,6.03,16.29,10.19,1.61,1.33,2.93,3.09,4.86,3.85,1.09.45,1.9,1.3,3.11,1.34,3.79.15,18.3.47,18.3.47,0,0-1.35-10.98-1.64-14.28Z"/><path class="cls-12_report-analysis-3-82" d="M186.75,145.74c.73.3,1.4.74,1.98,1.29,3.69,3.39,4.83,8.74,2.84,13.34-.27.69-.72,1.29-1.29,1.76-.46.26-.89.55-1.3.88-.08.11-.18.19-.31.24-.1.03-.21.03-.32,0-2.48-.84-4.79-2.1-6.84-3.72-1.94-1.98-3.5-4.29-4.61-6.83-1.04-2.04-1.29-5.37,1.09-6.74,1.06-.49,2.23-.7,3.4-.6,1.79-.18,3.6-.05,5.35.38Z"/><path class="cls-14_report-analysis-3-82" d="M195.53,208.76l.45-11.57,9.18-1.61,8.5,48.4s-13.11-8.25-13.7-9.46-4.42-25.77-4.42-25.77Z"/><path class="cls-14_report-analysis-3-82" d="M162.43,197.69c-.09.55-.04,1.12.15,1.64.21.38.52.7.91.91,1.17.57,2.47.84,3.77.8,2.71.09,5.46.09,8.13,0,.61,0,1.33-.13,1.61-.67.11-.27.15-.55.13-.84l-.11-9.89c.03-1.29-.08-2.58-.32-3.85-.43-2.16-1.79-4.03-3.72-5.09-1.78-.82-3.83-.85-5.64-.09-1.38.54-2.59,1.44-3.51,2.6-.58.99-.82,2.14-.69,3.28-.16,3.74-.39,7.5-.71,11.2Z"/><path class="cls-7_report-analysis-3-82" d="M175.95,190.94c-.7.74-1.75,1.01-2.72.71-.94-.32-1.81-.85-2.52-1.54-.93-.8-1.82-1.64-2.67-2.53-.74.99-1.13,2.2-1.09,3.44.07,1.3.58,2.6.27,3.87-.34,1-.94,1.89-1.74,2.59l-2.12,2.18c-.23.24-.52.5-.84.43-.16-.06-.3-.15-.42-.28-.67-.67-1.3-1.34-1.91-2.04-.29-.3-.52-.65-.69-1.03-.15-.48-.19-.98-.14-1.47l.12-2.89c0-.59.08-1.18.26-1.75.26-.54.57-1.06.93-1.55.53-.99,1-2.01,1.42-3.05.62-1.34,1.45-2.56,2.47-3.63.5-.59,1.14-1.04,1.86-1.32.5-.14,1.03-.21,1.55-.2,1.85-.06,3.7-.02,5.55.11.48,0,.96.09,1.42.24,1.67.66,3.42,2.99,2.72,4.81-.25.64-.74,1.09-.96,1.8-.29,1.05-.04,2.23-.75,3.11Z"/><path class="cls-15_report-analysis-3-82 targetColor" d="M183.72,199.7c8.98,2.29,17.48,7.86,21.54,16.18,2,4.05,2.87,8.53,3.81,12.96,2.1,10.04,4.61,19.99,7.53,29.85.08.46.32.88.68,1.18.4.2.85.26,1.29.17,10.97-.92,21.96-1.55,32.97-1.91.75-.1,1.51.01,2.21.32.71.47,1.24,1.18,1.51,1.99,1.36,3.14,2.05,6.52,2.03,9.94-11.92,2.97-23.94,5.48-36.05,7.52-6.69,1.09-14.1,1.97-19.75-1.79-4.15-2.76-6.49-7.49-8.63-12.02,1.31,5.99,2.35,12.02,3.11,18.11.33,1.34.14,2.75-.52,3.95-.97,1-2.29,1.58-3.68,1.64-10.71,1.7-21.59,2.03-32.39.98-3.05.18-5.68-2.1-5.95-5.13-4.3-14.35-4.07-29.71-7.65-44.27-.97-3.95-2.18-7.85-2.83-11.9-.54-4.13-.54-8.31,0-12.44.6-5.25,2.79-12.28,8.14-14.59,2.04-.88,4.47-.91,6.64-1.19,4.03-.59,8.09-.96,12.16-1.09,4.66-.09,9.31.43,13.84,1.55Z" style="fill: rgb(202, 192, 242);"/><path class="cls-14_report-analysis-3-82" d="M188.73,187.99c-.45,1.12.1,2.39,1.22,2.84.04.02.08.03.12.04.84.16,1.78-.34,2.52.07s.79,1.69.92,2.65c.25,1.51,1.16,2.82,2.48,3.59,1.32.76,2.85,1.09,4.37.94,1.93-.03,3.73-.97,4.85-2.55.72-1.29.91-2.81.51-4.23-.4-1.4-1.08-2.71-2-3.85-1.65-2.18-4.81-5.19-7.81-4.9-2.34.21-6.44,3.19-7.18,5.39Z"/><path class="cls-14_report-analysis-3-82" d="M262.26,255.36c.77-.42,1.6-.7,2.47-.83.97-.06,1.94.12,2.83.51,3.46,1.37,6.12,4.25,8.27,7.29.98,1.39,1.93,3.07,1.46,4.7-.46,1.28-1.53,2.26-2.85,2.6-1.31.32-2.66.42-4,.31l-9.73-.34c-.94.03-1.87-.13-2.74-.48-1.73-.84-2.4-2.92-2.89-4.78-.33-1.22-1.27-3.12-1.17-4.37.08-1.09.22-.87,1.17-1.22,2.47-.93,4.77-2.25,7.19-3.38Z"/><path class="cls-13_report-analysis-3-82" d="M263.7,255.95c.1.43.35.82.7,1.09.31.15.65.22.99.2h2.57c-.89-3.25-2.11-6.41-3.62-9.43l-2.77-6.02c-.4-.85-.91-1.8-1.81-2.04-1.09-.29-3.39.78-3.28,2.05s2,3.22,2.6,4.27c1.77,3.18,3.32,6.48,4.62,9.87Z"/><path class="cls-12_report-analysis-3-82" d="M215.93,295.26c8.99.55,18.03,2.57,25.84,7.06s14.32,11.6,16.97,20.21l-26.65,13.93c-.84.53-1.79.84-2.77.92-1.47,0-2.7-1.09-3.83-1.99-4.66-3.99-10.11-6.96-15.98-8.74-11.79-3.39-24.46-.8-36.57-2.62-3.14-.35-6.18-1.36-8.89-2.98-4.45-2.93-6.88-8.21-7.58-13.49s.12-10.62.93-15.87c.08-1.39.58-2.72,1.43-3.81.91-.79,2.01-1.32,3.2-1.53,8.21-2.18,20.16-6.85,27.8-1.38,3.33,2.39,5.85,5.57,9.59,7.47,5.18,2.62,10.9,2.48,16.52,2.83Z"/><path class="cls-12_report-analysis-3-82" d="M240.45,393.79c.5-.23,1.04-.36,1.59-.37.51.07.99.24,1.43.5l13.35,6.94c.98.43,1.88,1.05,2.63,1.81.76.79,1.01,1.94.64,2.97-.63,1.04-1.72,1.73-2.93,1.86-2.52.51-5.08.76-7.65.75-5.6.15-11.2.15-16.81,0-2.45.05-4.89-.32-7.22-1.09-.7-.19-1.29-.64-1.66-1.27-.18-.52-.22-1.07-.12-1.61.38-3.86-.21-6.82,4.05-7.44,4.33-.55,8.58-1.58,12.68-3.06Z"/><path class="cls-12_report-analysis-3-82" d="M207.69,393.79c.5-.23,1.04-.36,1.59-.37.51.07.99.24,1.43.5l13.36,6.94c.98.43,1.87,1.05,2.62,1.81.76.79,1.01,1.94.66,2.97-.63,1.04-1.72,1.73-2.93,1.86-2.52.51-5.08.76-7.65.75-5.61.15-11.21.15-16.81,0-2.45.05-4.9-.32-7.23-1.09-.69-.19-1.28-.65-1.65-1.27-.19-.51-.23-1.07-.13-1.61.39-3.86-.2-6.82,4.05-7.44,4.33-.55,8.58-1.58,12.68-3.06Z"/><rect class="cls-15_report-analysis-3-82 targetColor" x="170.76" y="339.57" width="11.55" height="51.27" style="fill: rgb(202, 192, 242);"/><path class="cls-15_report-analysis-3-82 targetColor" d="M139.35,384.67h74.89c1.93,0,3.5,1.56,3.5,3.49h0c0,1.93-1.56,3.49-3.5,3.49h-74.89c-1.93,0-3.5-1.56-3.5-3.49h0c0-1.93,1.56-3.49,3.5-3.49Z" style="fill: rgb(202, 192, 242);"/><circle class="cls-12_report-analysis-3-82" cx="138.74" cy="399.34" r="7.65"/><circle class="cls-12_report-analysis-3-82" cx="176.07" cy="399.34" r="7.65"/><circle class="cls-12_report-analysis-3-82" cx="213.38" cy="399.34" r="7.65"/><path class="cls-14_report-analysis-3-82" d="M179.76,151.4s5.9-1.21,7.92,2.18c2.02,3.4,1.34,14.63,3.76,17.72s2.69,4.83.26,6.71-1.88,7.12-3.08,8.74c-1.2,1.62-4.29,3.76-9.94,1.75-5.65-2.01-15.6-6.79-15.6-7.46s.29-28.73,16.68-29.64Z"/><path class="cls-12_report-analysis-3-82" d="M181.52,145.94c4.19,2.67,5.82,8.41,4.37,13.2-1.45,4.78-5.35,8.52-9.9,10.55-.97.29-1.81.91-2.36,1.76-.17.44-.24.91-.22,1.39,0,3.71.28,6.94-2.62,9.7-1.26,1.1-2.61,2.1-4.02,2.99-.34.21-.64.46-.9.76-.83,1.09-.48,2.55-.37,3.87.24,4.56-2.78,8.64-7.21,9.75-.91.2-1.84.26-2.72.55-.91.23-1.67.84-2.1,1.67-.49,1.18.09,2.55-.1,3.8-.28,1.82-2.09,3.01-3.82,3.59-3.56,1.16-7.43.81-10.72-.98-1.09-.62-2.38-.61-3.28-1.56-.95-1.16-1.52-2.59-1.64-4.09-.1-2,.1-4.01.58-5.95l2.73-13.71c.71-3.59,1.74-7.65,4.94-9.38,1.1-.43,2.14-.97,3.11-1.64.92-.99,1.52-2.24,1.7-3.58.9-3.89,1.4-7.89,2.57-11.7s3.09-7.56,6.24-10.02c3.33-2.59,7.65-3.48,11.91-3.63,6.05-.21,9.83-1.97,13.73,2.65"/><path class="cls-15_report-analysis-3-82 targetColor" d="M107.66,213.92s-2.41-.54-2.41,7.52,20.14,117.59,20.14,117.59c0,0-1.88,4.03,16.64,3.28,18.52-.75,78.13-1.09,78.13-1.09,0,0,5.36,0,5.9-7.79.54-7.79-11-9.13-11-9.13l-47.53-2.18-18.79-106.26-41.08-1.92Z" style="fill: rgb(202, 192, 242);"/><path class="cls-8_report-analysis-3-82" d="M226.06,333.39c-.54,7.79-5.9,7.79-5.9,7.79,0,0-38.52.17-63.24.66-6.04.12-11.25.25-14.89.42-18.57.81-16.65-3.28-16.65-3.28,0,0-20.14-109.48-20.14-117.54s2.42-7.52,2.42-7.52l25.65,1.17,15.42.71,18.79,106.32,47.53,2.18s11.55,1.3,11,9.09Z"/><path class="cls-3_report-analysis-3-82" d="M226.06,333.39c-.54,7.79-5.9,7.79-5.9,7.79,0,0-38.52.17-63.24.66-5.3-.94-4.42-2.81-4.42-2.81,0,0-20.14-109.54-20.14-117.59,0-3.45.45-5.33.96-6.35l15.42.71,18.79,106.32,47.53,2.18s11.55,1.3,11,9.09Z"/></g></svg>